; NON-PLATED HOLES START AT T1
; THROUGH (PLATED) HOLES START AT T100
M48
INCH
T100C0.038000
T101C0.035000
T102C0.030000
T103C0.039370
%
T100
X002744Y011894
X004304Y011894
X001184Y011894
T101
X015744Y004453
X007744Y012894
X008744Y002894
X017515Y001894
X008744Y003894
X017515Y008894
X012744Y002894
X017515Y004453
X003744Y012894
X015744Y011453
X012744Y003894
X005744Y001894
X015744Y001894
X015744Y008894
X005744Y003894
X017515Y011453
T102
X001744Y001894
X001744Y002894
T103
X004744Y005894
X004744Y010894
X005744Y005894
X006744Y005894
X005744Y010894
X006744Y010894
X007744Y005894
X008744Y005894
X007744Y010894
X008744Y010894
T00
M30
