G04 MADE WITH FRITZING*
G04 WWW.FRITZING.ORG*
G04 DOUBLE SIDED*
G04 HOLES PLATED*
G04 CONTOUR ON CENTER OF CONTOUR VECTOR*
%ASAXBY*%
%FSLAX23Y23*%
%MOIN*%
%OFA0B0*%
%SFA1.0B1.0*%
%ADD10C,0.410000X0.39*%
%ADD11C,0.023622X2e-08*%
%ADD12R,0.194312X0.294400X0.185688X0.285776*%
%ADD13C,0.004312*%
%ADD14C,0.010000*%
%ADD15C,0.005000*%
%ADD16C,0.008000*%
%ADD17R,0.001000X0.001000*%
%LNSILK1*%
G90*
G70*
G54D10*
X574Y289D03*
G54D11*
X726Y844D03*
G54D13*
X79Y384D02*
X269Y384D01*
X269Y94D01*
X79Y94D01*
X79Y384D01*
D02*
G54D14*
X1702Y899D02*
X1624Y899D01*
D02*
X1781Y1096D02*
X1781Y929D01*
D02*
X1545Y1096D02*
X1545Y929D01*
D02*
X1702Y1135D02*
X1624Y1135D01*
D02*
X1683Y1017D02*
X1643Y1017D01*
D02*
X1663Y998D02*
X1663Y1037D01*
D02*
X1702Y199D02*
X1624Y199D01*
D02*
X1781Y396D02*
X1781Y229D01*
D02*
X1545Y396D02*
X1545Y229D01*
D02*
X1702Y436D02*
X1624Y436D01*
D02*
X1683Y317D02*
X1643Y317D01*
D02*
X1663Y298D02*
X1663Y337D01*
D02*
X984Y422D02*
X1184Y422D01*
D02*
X1184Y422D02*
X1184Y356D01*
D02*
X1184Y356D02*
X984Y356D01*
D02*
X984Y356D02*
X984Y422D01*
D02*
X984Y322D02*
X1184Y322D01*
D02*
X1184Y322D02*
X1184Y256D01*
D02*
X1184Y256D02*
X984Y256D01*
D02*
X984Y256D02*
X984Y322D01*
D02*
X484Y1322D02*
X684Y1322D01*
D02*
X684Y1322D02*
X684Y1256D01*
D02*
X684Y1256D02*
X484Y1256D01*
D02*
X484Y1256D02*
X484Y1322D01*
G54D15*
D02*
X338Y938D02*
X338Y906D01*
D02*
X338Y772D02*
X338Y741D01*
D02*
X161Y989D02*
X125Y989D01*
D02*
X125Y989D02*
X125Y690D01*
D02*
X125Y690D02*
X161Y690D01*
D02*
X762Y860D02*
X762Y887D01*
D02*
X762Y887D02*
X789Y887D01*
D02*
X900Y887D02*
X927Y887D01*
D02*
X927Y887D02*
X927Y860D01*
D02*
X789Y722D02*
X762Y722D01*
D02*
X762Y722D02*
X762Y749D01*
D02*
X927Y749D02*
X927Y722D01*
D02*
X927Y722D02*
X900Y722D01*
G54D16*
D02*
X105Y641D02*
X105Y1038D01*
D02*
X124Y641D02*
X105Y641D01*
D02*
X124Y1038D02*
X105Y1038D01*
G54D17*
X0Y1378D02*
X1967Y1378D01*
X0Y1377D02*
X1967Y1377D01*
X0Y1376D02*
X1967Y1376D01*
X0Y1375D02*
X1967Y1375D01*
X0Y1374D02*
X1967Y1374D01*
X0Y1373D02*
X1967Y1373D01*
X0Y1372D02*
X1967Y1372D01*
X0Y1371D02*
X1967Y1371D01*
X0Y1370D02*
X7Y1370D01*
X1960Y1370D02*
X1967Y1370D01*
X0Y1369D02*
X7Y1369D01*
X1960Y1369D02*
X1967Y1369D01*
X0Y1368D02*
X7Y1368D01*
X1960Y1368D02*
X1967Y1368D01*
X0Y1367D02*
X7Y1367D01*
X1960Y1367D02*
X1967Y1367D01*
X0Y1366D02*
X7Y1366D01*
X1960Y1366D02*
X1967Y1366D01*
X0Y1365D02*
X7Y1365D01*
X1960Y1365D02*
X1967Y1365D01*
X0Y1364D02*
X7Y1364D01*
X1960Y1364D02*
X1967Y1364D01*
X0Y1363D02*
X7Y1363D01*
X1960Y1363D02*
X1967Y1363D01*
X0Y1362D02*
X7Y1362D01*
X1960Y1362D02*
X1967Y1362D01*
X0Y1361D02*
X7Y1361D01*
X1960Y1361D02*
X1967Y1361D01*
X0Y1360D02*
X7Y1360D01*
X1960Y1360D02*
X1967Y1360D01*
X0Y1359D02*
X7Y1359D01*
X1960Y1359D02*
X1967Y1359D01*
X0Y1358D02*
X7Y1358D01*
X1960Y1358D02*
X1967Y1358D01*
X0Y1357D02*
X7Y1357D01*
X1960Y1357D02*
X1967Y1357D01*
X0Y1356D02*
X7Y1356D01*
X1960Y1356D02*
X1967Y1356D01*
X0Y1355D02*
X7Y1355D01*
X1960Y1355D02*
X1967Y1355D01*
X0Y1354D02*
X7Y1354D01*
X1960Y1354D02*
X1967Y1354D01*
X0Y1353D02*
X7Y1353D01*
X1960Y1353D02*
X1967Y1353D01*
X0Y1352D02*
X7Y1352D01*
X1960Y1352D02*
X1967Y1352D01*
X0Y1351D02*
X7Y1351D01*
X1960Y1351D02*
X1967Y1351D01*
X0Y1350D02*
X7Y1350D01*
X1960Y1350D02*
X1967Y1350D01*
X0Y1349D02*
X7Y1349D01*
X1960Y1349D02*
X1967Y1349D01*
X0Y1348D02*
X7Y1348D01*
X1960Y1348D02*
X1967Y1348D01*
X0Y1347D02*
X7Y1347D01*
X1960Y1347D02*
X1967Y1347D01*
X0Y1346D02*
X7Y1346D01*
X1960Y1346D02*
X1967Y1346D01*
X0Y1345D02*
X7Y1345D01*
X1960Y1345D02*
X1967Y1345D01*
X0Y1344D02*
X7Y1344D01*
X1960Y1344D02*
X1967Y1344D01*
X0Y1343D02*
X7Y1343D01*
X1960Y1343D02*
X1967Y1343D01*
X0Y1342D02*
X7Y1342D01*
X1960Y1342D02*
X1967Y1342D01*
X0Y1341D02*
X7Y1341D01*
X1960Y1341D02*
X1967Y1341D01*
X0Y1340D02*
X7Y1340D01*
X1960Y1340D02*
X1967Y1340D01*
X0Y1339D02*
X7Y1339D01*
X1960Y1339D02*
X1967Y1339D01*
X0Y1338D02*
X7Y1338D01*
X1960Y1338D02*
X1967Y1338D01*
X0Y1337D02*
X7Y1337D01*
X1960Y1337D02*
X1967Y1337D01*
X0Y1336D02*
X7Y1336D01*
X1960Y1336D02*
X1967Y1336D01*
X0Y1335D02*
X7Y1335D01*
X1960Y1335D02*
X1967Y1335D01*
X0Y1334D02*
X7Y1334D01*
X1960Y1334D02*
X1967Y1334D01*
X0Y1333D02*
X7Y1333D01*
X1960Y1333D02*
X1967Y1333D01*
X0Y1332D02*
X7Y1332D01*
X1960Y1332D02*
X1967Y1332D01*
X0Y1331D02*
X7Y1331D01*
X1960Y1331D02*
X1967Y1331D01*
X0Y1330D02*
X7Y1330D01*
X1960Y1330D02*
X1967Y1330D01*
X0Y1329D02*
X7Y1329D01*
X1960Y1329D02*
X1967Y1329D01*
X0Y1328D02*
X7Y1328D01*
X1960Y1328D02*
X1967Y1328D01*
X0Y1327D02*
X7Y1327D01*
X1960Y1327D02*
X1967Y1327D01*
X0Y1326D02*
X7Y1326D01*
X1960Y1326D02*
X1967Y1326D01*
X0Y1325D02*
X7Y1325D01*
X1960Y1325D02*
X1967Y1325D01*
X0Y1324D02*
X7Y1324D01*
X1960Y1324D02*
X1967Y1324D01*
X0Y1323D02*
X7Y1323D01*
X1960Y1323D02*
X1967Y1323D01*
X0Y1322D02*
X7Y1322D01*
X1960Y1322D02*
X1967Y1322D01*
X0Y1321D02*
X7Y1321D01*
X1960Y1321D02*
X1967Y1321D01*
X0Y1320D02*
X7Y1320D01*
X1960Y1320D02*
X1967Y1320D01*
X0Y1319D02*
X7Y1319D01*
X546Y1319D02*
X573Y1319D01*
X598Y1319D02*
X616Y1319D01*
X1960Y1319D02*
X1967Y1319D01*
X0Y1318D02*
X7Y1318D01*
X546Y1318D02*
X575Y1318D01*
X597Y1318D02*
X616Y1318D01*
X1960Y1318D02*
X1967Y1318D01*
X0Y1317D02*
X7Y1317D01*
X546Y1317D02*
X576Y1317D01*
X597Y1317D02*
X616Y1317D01*
X1960Y1317D02*
X1967Y1317D01*
X0Y1316D02*
X7Y1316D01*
X546Y1316D02*
X577Y1316D01*
X597Y1316D02*
X616Y1316D01*
X1960Y1316D02*
X1967Y1316D01*
X0Y1315D02*
X7Y1315D01*
X546Y1315D02*
X578Y1315D01*
X597Y1315D02*
X616Y1315D01*
X1960Y1315D02*
X1967Y1315D01*
X0Y1314D02*
X7Y1314D01*
X546Y1314D02*
X579Y1314D01*
X597Y1314D02*
X616Y1314D01*
X1960Y1314D02*
X1967Y1314D01*
X0Y1313D02*
X7Y1313D01*
X546Y1313D02*
X579Y1313D01*
X598Y1313D02*
X616Y1313D01*
X1960Y1313D02*
X1967Y1313D01*
X0Y1312D02*
X7Y1312D01*
X546Y1312D02*
X552Y1312D01*
X572Y1312D02*
X579Y1312D01*
X610Y1312D02*
X616Y1312D01*
X1960Y1312D02*
X1967Y1312D01*
X0Y1311D02*
X7Y1311D01*
X546Y1311D02*
X552Y1311D01*
X573Y1311D02*
X580Y1311D01*
X610Y1311D02*
X616Y1311D01*
X1960Y1311D02*
X1967Y1311D01*
X0Y1310D02*
X7Y1310D01*
X546Y1310D02*
X552Y1310D01*
X574Y1310D02*
X580Y1310D01*
X610Y1310D02*
X616Y1310D01*
X1960Y1310D02*
X1967Y1310D01*
X0Y1309D02*
X7Y1309D01*
X546Y1309D02*
X552Y1309D01*
X574Y1309D02*
X580Y1309D01*
X610Y1309D02*
X616Y1309D01*
X1960Y1309D02*
X1967Y1309D01*
X0Y1308D02*
X7Y1308D01*
X546Y1308D02*
X552Y1308D01*
X574Y1308D02*
X580Y1308D01*
X610Y1308D02*
X616Y1308D01*
X1960Y1308D02*
X1967Y1308D01*
X0Y1307D02*
X7Y1307D01*
X546Y1307D02*
X552Y1307D01*
X574Y1307D02*
X580Y1307D01*
X610Y1307D02*
X616Y1307D01*
X1960Y1307D02*
X1967Y1307D01*
X0Y1306D02*
X7Y1306D01*
X546Y1306D02*
X552Y1306D01*
X574Y1306D02*
X580Y1306D01*
X610Y1306D02*
X616Y1306D01*
X1960Y1306D02*
X1967Y1306D01*
X0Y1305D02*
X7Y1305D01*
X546Y1305D02*
X552Y1305D01*
X574Y1305D02*
X580Y1305D01*
X610Y1305D02*
X616Y1305D01*
X1960Y1305D02*
X1967Y1305D01*
X0Y1304D02*
X7Y1304D01*
X546Y1304D02*
X552Y1304D01*
X573Y1304D02*
X580Y1304D01*
X610Y1304D02*
X616Y1304D01*
X1960Y1304D02*
X1967Y1304D01*
X0Y1303D02*
X7Y1303D01*
X546Y1303D02*
X552Y1303D01*
X573Y1303D02*
X580Y1303D01*
X610Y1303D02*
X616Y1303D01*
X1960Y1303D02*
X1967Y1303D01*
X0Y1302D02*
X7Y1302D01*
X546Y1302D02*
X553Y1302D01*
X571Y1302D02*
X579Y1302D01*
X610Y1302D02*
X616Y1302D01*
X1960Y1302D02*
X1967Y1302D01*
X0Y1301D02*
X7Y1301D01*
X546Y1301D02*
X579Y1301D01*
X610Y1301D02*
X616Y1301D01*
X1960Y1301D02*
X1967Y1301D01*
X0Y1300D02*
X7Y1300D01*
X546Y1300D02*
X578Y1300D01*
X610Y1300D02*
X616Y1300D01*
X1960Y1300D02*
X1967Y1300D01*
X0Y1299D02*
X7Y1299D01*
X546Y1299D02*
X578Y1299D01*
X610Y1299D02*
X616Y1299D01*
X1960Y1299D02*
X1967Y1299D01*
X0Y1298D02*
X7Y1298D01*
X546Y1298D02*
X577Y1298D01*
X610Y1298D02*
X616Y1298D01*
X1960Y1298D02*
X1967Y1298D01*
X0Y1297D02*
X7Y1297D01*
X546Y1297D02*
X576Y1297D01*
X610Y1297D02*
X616Y1297D01*
X1960Y1297D02*
X1967Y1297D01*
X0Y1296D02*
X7Y1296D01*
X546Y1296D02*
X574Y1296D01*
X610Y1296D02*
X616Y1296D01*
X1960Y1296D02*
X1967Y1296D01*
X0Y1295D02*
X7Y1295D01*
X416Y1295D02*
X482Y1295D01*
X546Y1295D02*
X571Y1295D01*
X610Y1295D02*
X616Y1295D01*
X684Y1295D02*
X731Y1295D01*
X1960Y1295D02*
X1967Y1295D01*
X0Y1294D02*
X7Y1294D01*
X417Y1294D02*
X483Y1294D01*
X546Y1294D02*
X552Y1294D01*
X559Y1294D02*
X566Y1294D01*
X610Y1294D02*
X616Y1294D01*
X684Y1294D02*
X731Y1294D01*
X1960Y1294D02*
X1967Y1294D01*
X0Y1293D02*
X7Y1293D01*
X417Y1293D02*
X483Y1293D01*
X546Y1293D02*
X552Y1293D01*
X559Y1293D02*
X566Y1293D01*
X610Y1293D02*
X616Y1293D01*
X684Y1293D02*
X731Y1293D01*
X1960Y1293D02*
X1967Y1293D01*
X0Y1292D02*
X7Y1292D01*
X417Y1292D02*
X483Y1292D01*
X546Y1292D02*
X552Y1292D01*
X560Y1292D02*
X567Y1292D01*
X610Y1292D02*
X616Y1292D01*
X684Y1292D02*
X731Y1292D01*
X1960Y1292D02*
X1967Y1292D01*
X0Y1291D02*
X7Y1291D01*
X417Y1291D02*
X483Y1291D01*
X546Y1291D02*
X552Y1291D01*
X560Y1291D02*
X568Y1291D01*
X610Y1291D02*
X616Y1291D01*
X684Y1291D02*
X731Y1291D01*
X1960Y1291D02*
X1967Y1291D01*
X0Y1290D02*
X7Y1290D01*
X417Y1290D02*
X483Y1290D01*
X546Y1290D02*
X552Y1290D01*
X561Y1290D02*
X568Y1290D01*
X610Y1290D02*
X616Y1290D01*
X627Y1290D02*
X627Y1290D01*
X684Y1290D02*
X731Y1290D01*
X1960Y1290D02*
X1967Y1290D01*
X0Y1289D02*
X7Y1289D01*
X417Y1289D02*
X483Y1289D01*
X546Y1289D02*
X552Y1289D01*
X561Y1289D02*
X569Y1289D01*
X610Y1289D02*
X616Y1289D01*
X625Y1289D02*
X629Y1289D01*
X684Y1289D02*
X731Y1289D01*
X1960Y1289D02*
X1967Y1289D01*
X0Y1288D02*
X7Y1288D01*
X417Y1288D02*
X483Y1288D01*
X546Y1288D02*
X552Y1288D01*
X562Y1288D02*
X569Y1288D01*
X610Y1288D02*
X616Y1288D01*
X624Y1288D02*
X630Y1288D01*
X684Y1288D02*
X731Y1288D01*
X1960Y1288D02*
X1967Y1288D01*
X0Y1287D02*
X7Y1287D01*
X417Y1287D02*
X483Y1287D01*
X546Y1287D02*
X552Y1287D01*
X563Y1287D02*
X570Y1287D01*
X610Y1287D02*
X616Y1287D01*
X624Y1287D02*
X630Y1287D01*
X684Y1287D02*
X731Y1287D01*
X1960Y1287D02*
X1967Y1287D01*
X0Y1286D02*
X7Y1286D01*
X417Y1286D02*
X483Y1286D01*
X546Y1286D02*
X552Y1286D01*
X563Y1286D02*
X570Y1286D01*
X610Y1286D02*
X616Y1286D01*
X624Y1286D02*
X630Y1286D01*
X684Y1286D02*
X731Y1286D01*
X1960Y1286D02*
X1967Y1286D01*
X0Y1285D02*
X7Y1285D01*
X546Y1285D02*
X552Y1285D01*
X564Y1285D02*
X571Y1285D01*
X610Y1285D02*
X616Y1285D01*
X624Y1285D02*
X630Y1285D01*
X1960Y1285D02*
X1967Y1285D01*
X0Y1284D02*
X7Y1284D01*
X546Y1284D02*
X552Y1284D01*
X564Y1284D02*
X572Y1284D01*
X610Y1284D02*
X616Y1284D01*
X624Y1284D02*
X630Y1284D01*
X1960Y1284D02*
X1967Y1284D01*
X0Y1283D02*
X7Y1283D01*
X546Y1283D02*
X552Y1283D01*
X565Y1283D02*
X572Y1283D01*
X610Y1283D02*
X616Y1283D01*
X624Y1283D02*
X630Y1283D01*
X1960Y1283D02*
X1967Y1283D01*
X0Y1282D02*
X7Y1282D01*
X546Y1282D02*
X552Y1282D01*
X566Y1282D02*
X573Y1282D01*
X610Y1282D02*
X616Y1282D01*
X624Y1282D02*
X630Y1282D01*
X1960Y1282D02*
X1967Y1282D01*
X0Y1281D02*
X7Y1281D01*
X546Y1281D02*
X552Y1281D01*
X566Y1281D02*
X573Y1281D01*
X610Y1281D02*
X616Y1281D01*
X624Y1281D02*
X630Y1281D01*
X1960Y1281D02*
X1967Y1281D01*
X0Y1280D02*
X7Y1280D01*
X546Y1280D02*
X552Y1280D01*
X567Y1280D02*
X574Y1280D01*
X610Y1280D02*
X616Y1280D01*
X624Y1280D02*
X630Y1280D01*
X1960Y1280D02*
X1967Y1280D01*
X0Y1279D02*
X7Y1279D01*
X546Y1279D02*
X552Y1279D01*
X567Y1279D02*
X575Y1279D01*
X610Y1279D02*
X616Y1279D01*
X624Y1279D02*
X630Y1279D01*
X1960Y1279D02*
X1967Y1279D01*
X0Y1278D02*
X7Y1278D01*
X546Y1278D02*
X552Y1278D01*
X568Y1278D02*
X575Y1278D01*
X610Y1278D02*
X616Y1278D01*
X624Y1278D02*
X630Y1278D01*
X1960Y1278D02*
X1967Y1278D01*
X0Y1277D02*
X7Y1277D01*
X546Y1277D02*
X552Y1277D01*
X569Y1277D02*
X576Y1277D01*
X610Y1277D02*
X616Y1277D01*
X624Y1277D02*
X630Y1277D01*
X1960Y1277D02*
X1967Y1277D01*
X0Y1276D02*
X7Y1276D01*
X546Y1276D02*
X552Y1276D01*
X569Y1276D02*
X576Y1276D01*
X610Y1276D02*
X616Y1276D01*
X624Y1276D02*
X630Y1276D01*
X1960Y1276D02*
X1967Y1276D01*
X0Y1275D02*
X7Y1275D01*
X546Y1275D02*
X552Y1275D01*
X570Y1275D02*
X577Y1275D01*
X610Y1275D02*
X616Y1275D01*
X624Y1275D02*
X630Y1275D01*
X1960Y1275D02*
X1967Y1275D01*
X0Y1274D02*
X7Y1274D01*
X546Y1274D02*
X552Y1274D01*
X570Y1274D02*
X577Y1274D01*
X610Y1274D02*
X616Y1274D01*
X624Y1274D02*
X630Y1274D01*
X1960Y1274D02*
X1967Y1274D01*
X0Y1273D02*
X7Y1273D01*
X546Y1273D02*
X552Y1273D01*
X571Y1273D02*
X578Y1273D01*
X610Y1273D02*
X616Y1273D01*
X624Y1273D02*
X630Y1273D01*
X1960Y1273D02*
X1967Y1273D01*
X0Y1272D02*
X7Y1272D01*
X546Y1272D02*
X552Y1272D01*
X571Y1272D02*
X579Y1272D01*
X598Y1272D02*
X630Y1272D01*
X1960Y1272D02*
X1967Y1272D01*
X0Y1271D02*
X7Y1271D01*
X546Y1271D02*
X552Y1271D01*
X572Y1271D02*
X579Y1271D01*
X597Y1271D02*
X630Y1271D01*
X1960Y1271D02*
X1967Y1271D01*
X0Y1270D02*
X7Y1270D01*
X546Y1270D02*
X552Y1270D01*
X573Y1270D02*
X580Y1270D01*
X597Y1270D02*
X630Y1270D01*
X1960Y1270D02*
X1967Y1270D01*
X0Y1269D02*
X7Y1269D01*
X546Y1269D02*
X552Y1269D01*
X573Y1269D02*
X580Y1269D01*
X597Y1269D02*
X630Y1269D01*
X1960Y1269D02*
X1967Y1269D01*
X0Y1268D02*
X7Y1268D01*
X546Y1268D02*
X552Y1268D01*
X574Y1268D02*
X580Y1268D01*
X597Y1268D02*
X630Y1268D01*
X1866Y1268D02*
X1888Y1268D01*
X1960Y1268D02*
X1967Y1268D01*
X0Y1267D02*
X7Y1267D01*
X547Y1267D02*
X552Y1267D01*
X574Y1267D02*
X579Y1267D01*
X597Y1267D02*
X629Y1267D01*
X1866Y1267D02*
X1889Y1267D01*
X1960Y1267D02*
X1967Y1267D01*
X0Y1266D02*
X7Y1266D01*
X548Y1266D02*
X551Y1266D01*
X575Y1266D02*
X578Y1266D01*
X598Y1266D02*
X628Y1266D01*
X1866Y1266D02*
X1890Y1266D01*
X1960Y1266D02*
X1967Y1266D01*
X0Y1265D02*
X7Y1265D01*
X1866Y1265D02*
X1891Y1265D01*
X1960Y1265D02*
X1967Y1265D01*
X0Y1264D02*
X7Y1264D01*
X1866Y1264D02*
X1892Y1264D01*
X1960Y1264D02*
X1967Y1264D01*
X0Y1263D02*
X7Y1263D01*
X1866Y1263D02*
X1893Y1263D01*
X1960Y1263D02*
X1967Y1263D01*
X0Y1262D02*
X7Y1262D01*
X1866Y1262D02*
X1894Y1262D01*
X1960Y1262D02*
X1967Y1262D01*
X0Y1261D02*
X7Y1261D01*
X1588Y1261D02*
X1610Y1261D01*
X1635Y1261D02*
X1653Y1261D01*
X1866Y1261D02*
X1872Y1261D01*
X1886Y1261D02*
X1894Y1261D01*
X1960Y1261D02*
X1967Y1261D01*
X0Y1260D02*
X7Y1260D01*
X1586Y1260D02*
X1612Y1260D01*
X1634Y1260D02*
X1653Y1260D01*
X1866Y1260D02*
X1872Y1260D01*
X1887Y1260D02*
X1895Y1260D01*
X1960Y1260D02*
X1967Y1260D01*
X0Y1259D02*
X7Y1259D01*
X1585Y1259D02*
X1614Y1259D01*
X1633Y1259D02*
X1653Y1259D01*
X1866Y1259D02*
X1872Y1259D01*
X1888Y1259D02*
X1896Y1259D01*
X1960Y1259D02*
X1967Y1259D01*
X0Y1258D02*
X7Y1258D01*
X1584Y1258D02*
X1614Y1258D01*
X1633Y1258D02*
X1653Y1258D01*
X1866Y1258D02*
X1872Y1258D01*
X1889Y1258D02*
X1897Y1258D01*
X1960Y1258D02*
X1967Y1258D01*
X0Y1257D02*
X7Y1257D01*
X1584Y1257D02*
X1615Y1257D01*
X1633Y1257D02*
X1653Y1257D01*
X1866Y1257D02*
X1872Y1257D01*
X1890Y1257D02*
X1898Y1257D01*
X1960Y1257D02*
X1967Y1257D01*
X0Y1256D02*
X7Y1256D01*
X1583Y1256D02*
X1616Y1256D01*
X1634Y1256D02*
X1653Y1256D01*
X1866Y1256D02*
X1872Y1256D01*
X1890Y1256D02*
X1899Y1256D01*
X1960Y1256D02*
X1967Y1256D01*
X0Y1255D02*
X7Y1255D01*
X1583Y1255D02*
X1616Y1255D01*
X1635Y1255D02*
X1653Y1255D01*
X1866Y1255D02*
X1872Y1255D01*
X1891Y1255D02*
X1900Y1255D01*
X1960Y1255D02*
X1967Y1255D01*
X0Y1254D02*
X7Y1254D01*
X1583Y1254D02*
X1589Y1254D01*
X1610Y1254D02*
X1616Y1254D01*
X1647Y1254D02*
X1653Y1254D01*
X1866Y1254D02*
X1872Y1254D01*
X1892Y1254D02*
X1918Y1254D01*
X1960Y1254D02*
X1967Y1254D01*
X0Y1253D02*
X7Y1253D01*
X1583Y1253D02*
X1589Y1253D01*
X1610Y1253D02*
X1617Y1253D01*
X1647Y1253D02*
X1653Y1253D01*
X1866Y1253D02*
X1872Y1253D01*
X1893Y1253D02*
X1919Y1253D01*
X1960Y1253D02*
X1967Y1253D01*
X0Y1252D02*
X7Y1252D01*
X1583Y1252D02*
X1590Y1252D01*
X1611Y1252D02*
X1617Y1252D01*
X1647Y1252D02*
X1653Y1252D01*
X1866Y1252D02*
X1872Y1252D01*
X1894Y1252D02*
X1919Y1252D01*
X1960Y1252D02*
X1967Y1252D01*
X0Y1251D02*
X7Y1251D01*
X1584Y1251D02*
X1591Y1251D01*
X1611Y1251D02*
X1616Y1251D01*
X1647Y1251D02*
X1653Y1251D01*
X1866Y1251D02*
X1872Y1251D01*
X1895Y1251D02*
X1919Y1251D01*
X1960Y1251D02*
X1967Y1251D01*
X0Y1250D02*
X7Y1250D01*
X1584Y1250D02*
X1592Y1250D01*
X1611Y1250D02*
X1616Y1250D01*
X1647Y1250D02*
X1653Y1250D01*
X1866Y1250D02*
X1872Y1250D01*
X1896Y1250D02*
X1919Y1250D01*
X1960Y1250D02*
X1967Y1250D01*
X0Y1249D02*
X7Y1249D01*
X1585Y1249D02*
X1592Y1249D01*
X1613Y1249D02*
X1614Y1249D01*
X1647Y1249D02*
X1653Y1249D01*
X1866Y1249D02*
X1872Y1249D01*
X1897Y1249D02*
X1918Y1249D01*
X1960Y1249D02*
X1967Y1249D01*
X0Y1248D02*
X7Y1248D01*
X1585Y1248D02*
X1593Y1248D01*
X1647Y1248D02*
X1653Y1248D01*
X1866Y1248D02*
X1872Y1248D01*
X1899Y1248D02*
X1916Y1248D01*
X1960Y1248D02*
X1967Y1248D01*
X0Y1247D02*
X7Y1247D01*
X1586Y1247D02*
X1594Y1247D01*
X1647Y1247D02*
X1653Y1247D01*
X1866Y1247D02*
X1872Y1247D01*
X1960Y1247D02*
X1967Y1247D01*
X0Y1246D02*
X7Y1246D01*
X1587Y1246D02*
X1595Y1246D01*
X1647Y1246D02*
X1653Y1246D01*
X1866Y1246D02*
X1872Y1246D01*
X1960Y1246D02*
X1967Y1246D01*
X0Y1245D02*
X7Y1245D01*
X1588Y1245D02*
X1596Y1245D01*
X1647Y1245D02*
X1653Y1245D01*
X1866Y1245D02*
X1872Y1245D01*
X1960Y1245D02*
X1967Y1245D01*
X0Y1244D02*
X7Y1244D01*
X1588Y1244D02*
X1596Y1244D01*
X1647Y1244D02*
X1653Y1244D01*
X1866Y1244D02*
X1872Y1244D01*
X1960Y1244D02*
X1967Y1244D01*
X0Y1243D02*
X7Y1243D01*
X1589Y1243D02*
X1597Y1243D01*
X1647Y1243D02*
X1653Y1243D01*
X1866Y1243D02*
X1872Y1243D01*
X1960Y1243D02*
X1967Y1243D01*
X0Y1242D02*
X7Y1242D01*
X1590Y1242D02*
X1598Y1242D01*
X1647Y1242D02*
X1653Y1242D01*
X1866Y1242D02*
X1872Y1242D01*
X1960Y1242D02*
X1967Y1242D01*
X0Y1241D02*
X7Y1241D01*
X1591Y1241D02*
X1599Y1241D01*
X1647Y1241D02*
X1653Y1241D01*
X1866Y1241D02*
X1872Y1241D01*
X1960Y1241D02*
X1967Y1241D01*
X0Y1240D02*
X7Y1240D01*
X1591Y1240D02*
X1599Y1240D01*
X1647Y1240D02*
X1653Y1240D01*
X1866Y1240D02*
X1874Y1240D01*
X1960Y1240D02*
X1967Y1240D01*
X0Y1239D02*
X7Y1239D01*
X1592Y1239D02*
X1600Y1239D01*
X1647Y1239D02*
X1653Y1239D01*
X1866Y1239D02*
X1875Y1239D01*
X1960Y1239D02*
X1967Y1239D01*
X0Y1238D02*
X7Y1238D01*
X1593Y1238D02*
X1601Y1238D01*
X1647Y1238D02*
X1653Y1238D01*
X1866Y1238D02*
X1875Y1238D01*
X1960Y1238D02*
X1967Y1238D01*
X0Y1237D02*
X7Y1237D01*
X1594Y1237D02*
X1602Y1237D01*
X1647Y1237D02*
X1653Y1237D01*
X1866Y1237D02*
X1875Y1237D01*
X1960Y1237D02*
X1967Y1237D01*
X0Y1236D02*
X7Y1236D01*
X1595Y1236D02*
X1603Y1236D01*
X1647Y1236D02*
X1653Y1236D01*
X1866Y1236D02*
X1874Y1236D01*
X1960Y1236D02*
X1967Y1236D01*
X0Y1235D02*
X7Y1235D01*
X1595Y1235D02*
X1603Y1235D01*
X1647Y1235D02*
X1653Y1235D01*
X1867Y1235D02*
X1874Y1235D01*
X1960Y1235D02*
X1967Y1235D01*
X0Y1234D02*
X7Y1234D01*
X1596Y1234D02*
X1604Y1234D01*
X1647Y1234D02*
X1653Y1234D01*
X1960Y1234D02*
X1967Y1234D01*
X0Y1233D02*
X7Y1233D01*
X1597Y1233D02*
X1605Y1233D01*
X1647Y1233D02*
X1653Y1233D01*
X1960Y1233D02*
X1967Y1233D01*
X0Y1232D02*
X7Y1232D01*
X1598Y1232D02*
X1606Y1232D01*
X1647Y1232D02*
X1653Y1232D01*
X1663Y1232D02*
X1664Y1232D01*
X1960Y1232D02*
X1967Y1232D01*
X0Y1231D02*
X7Y1231D01*
X1598Y1231D02*
X1606Y1231D01*
X1647Y1231D02*
X1653Y1231D01*
X1662Y1231D02*
X1666Y1231D01*
X1960Y1231D02*
X1967Y1231D01*
X0Y1230D02*
X7Y1230D01*
X1599Y1230D02*
X1607Y1230D01*
X1647Y1230D02*
X1653Y1230D01*
X1661Y1230D02*
X1666Y1230D01*
X1960Y1230D02*
X1967Y1230D01*
X0Y1229D02*
X7Y1229D01*
X1600Y1229D02*
X1608Y1229D01*
X1647Y1229D02*
X1653Y1229D01*
X1661Y1229D02*
X1667Y1229D01*
X1960Y1229D02*
X1967Y1229D01*
X0Y1228D02*
X7Y1228D01*
X1601Y1228D02*
X1609Y1228D01*
X1647Y1228D02*
X1653Y1228D01*
X1661Y1228D02*
X1667Y1228D01*
X1960Y1228D02*
X1967Y1228D01*
X0Y1227D02*
X7Y1227D01*
X1602Y1227D02*
X1610Y1227D01*
X1647Y1227D02*
X1653Y1227D01*
X1661Y1227D02*
X1667Y1227D01*
X1960Y1227D02*
X1967Y1227D01*
X0Y1226D02*
X7Y1226D01*
X1602Y1226D02*
X1610Y1226D01*
X1647Y1226D02*
X1653Y1226D01*
X1661Y1226D02*
X1667Y1226D01*
X1960Y1226D02*
X1967Y1226D01*
X0Y1225D02*
X7Y1225D01*
X1603Y1225D02*
X1611Y1225D01*
X1647Y1225D02*
X1653Y1225D01*
X1661Y1225D02*
X1667Y1225D01*
X1960Y1225D02*
X1967Y1225D01*
X0Y1224D02*
X7Y1224D01*
X1604Y1224D02*
X1612Y1224D01*
X1647Y1224D02*
X1653Y1224D01*
X1661Y1224D02*
X1667Y1224D01*
X1960Y1224D02*
X1967Y1224D01*
X0Y1223D02*
X7Y1223D01*
X1605Y1223D02*
X1613Y1223D01*
X1647Y1223D02*
X1653Y1223D01*
X1661Y1223D02*
X1667Y1223D01*
X1960Y1223D02*
X1967Y1223D01*
X0Y1222D02*
X7Y1222D01*
X1605Y1222D02*
X1613Y1222D01*
X1647Y1222D02*
X1653Y1222D01*
X1661Y1222D02*
X1667Y1222D01*
X1960Y1222D02*
X1967Y1222D01*
X0Y1221D02*
X7Y1221D01*
X1606Y1221D02*
X1614Y1221D01*
X1647Y1221D02*
X1653Y1221D01*
X1661Y1221D02*
X1667Y1221D01*
X1960Y1221D02*
X1967Y1221D01*
X0Y1220D02*
X7Y1220D01*
X1585Y1220D02*
X1587Y1220D01*
X1607Y1220D02*
X1615Y1220D01*
X1647Y1220D02*
X1653Y1220D01*
X1661Y1220D02*
X1667Y1220D01*
X1960Y1220D02*
X1967Y1220D01*
X0Y1219D02*
X7Y1219D01*
X1584Y1219D02*
X1588Y1219D01*
X1608Y1219D02*
X1616Y1219D01*
X1647Y1219D02*
X1653Y1219D01*
X1661Y1219D02*
X1667Y1219D01*
X1960Y1219D02*
X1967Y1219D01*
X0Y1218D02*
X7Y1218D01*
X1583Y1218D02*
X1589Y1218D01*
X1609Y1218D02*
X1616Y1218D01*
X1647Y1218D02*
X1653Y1218D01*
X1661Y1218D02*
X1667Y1218D01*
X1897Y1218D02*
X1917Y1218D01*
X1960Y1218D02*
X1967Y1218D01*
X0Y1217D02*
X7Y1217D01*
X1583Y1217D02*
X1589Y1217D01*
X1609Y1217D02*
X1616Y1217D01*
X1647Y1217D02*
X1653Y1217D01*
X1661Y1217D02*
X1667Y1217D01*
X1896Y1217D02*
X1918Y1217D01*
X1960Y1217D02*
X1967Y1217D01*
X0Y1216D02*
X7Y1216D01*
X1583Y1216D02*
X1589Y1216D01*
X1610Y1216D02*
X1617Y1216D01*
X1647Y1216D02*
X1653Y1216D01*
X1661Y1216D02*
X1667Y1216D01*
X1896Y1216D02*
X1919Y1216D01*
X1960Y1216D02*
X1967Y1216D01*
X0Y1215D02*
X7Y1215D01*
X1583Y1215D02*
X1590Y1215D01*
X1610Y1215D02*
X1617Y1215D01*
X1647Y1215D02*
X1653Y1215D01*
X1661Y1215D02*
X1667Y1215D01*
X1895Y1215D02*
X1919Y1215D01*
X1960Y1215D02*
X1967Y1215D01*
X0Y1214D02*
X7Y1214D01*
X1583Y1214D02*
X1616Y1214D01*
X1635Y1214D02*
X1667Y1214D01*
X1896Y1214D02*
X1919Y1214D01*
X1960Y1214D02*
X1967Y1214D01*
X0Y1213D02*
X7Y1213D01*
X1584Y1213D02*
X1616Y1213D01*
X1634Y1213D02*
X1667Y1213D01*
X1896Y1213D02*
X1919Y1213D01*
X1960Y1213D02*
X1967Y1213D01*
X0Y1212D02*
X7Y1212D01*
X1584Y1212D02*
X1616Y1212D01*
X1633Y1212D02*
X1667Y1212D01*
X1897Y1212D02*
X1919Y1212D01*
X1960Y1212D02*
X1967Y1212D01*
X0Y1211D02*
X7Y1211D01*
X1585Y1211D02*
X1615Y1211D01*
X1633Y1211D02*
X1667Y1211D01*
X1913Y1211D02*
X1919Y1211D01*
X1960Y1211D02*
X1967Y1211D01*
X0Y1210D02*
X7Y1210D01*
X1586Y1210D02*
X1614Y1210D01*
X1633Y1210D02*
X1667Y1210D01*
X1913Y1210D02*
X1919Y1210D01*
X1960Y1210D02*
X1967Y1210D01*
X0Y1209D02*
X7Y1209D01*
X1587Y1209D02*
X1613Y1209D01*
X1634Y1209D02*
X1666Y1209D01*
X1913Y1209D02*
X1919Y1209D01*
X1960Y1209D02*
X1967Y1209D01*
X0Y1208D02*
X7Y1208D01*
X1589Y1208D02*
X1611Y1208D01*
X1635Y1208D02*
X1665Y1208D01*
X1913Y1208D02*
X1919Y1208D01*
X1960Y1208D02*
X1967Y1208D01*
X0Y1207D02*
X7Y1207D01*
X1913Y1207D02*
X1919Y1207D01*
X1960Y1207D02*
X1967Y1207D01*
X0Y1206D02*
X7Y1206D01*
X1913Y1206D02*
X1919Y1206D01*
X1960Y1206D02*
X1967Y1206D01*
X0Y1205D02*
X7Y1205D01*
X1913Y1205D02*
X1919Y1205D01*
X1960Y1205D02*
X1967Y1205D01*
X0Y1204D02*
X7Y1204D01*
X1866Y1204D02*
X1919Y1204D01*
X1960Y1204D02*
X1967Y1204D01*
X0Y1203D02*
X7Y1203D01*
X1866Y1203D02*
X1919Y1203D01*
X1960Y1203D02*
X1967Y1203D01*
X0Y1202D02*
X7Y1202D01*
X1866Y1202D02*
X1919Y1202D01*
X1960Y1202D02*
X1967Y1202D01*
X0Y1201D02*
X7Y1201D01*
X1866Y1201D02*
X1919Y1201D01*
X1960Y1201D02*
X1967Y1201D01*
X0Y1200D02*
X7Y1200D01*
X1866Y1200D02*
X1919Y1200D01*
X1960Y1200D02*
X1967Y1200D01*
X0Y1199D02*
X7Y1199D01*
X1866Y1199D02*
X1919Y1199D01*
X1960Y1199D02*
X1967Y1199D01*
X0Y1198D02*
X7Y1198D01*
X1866Y1198D02*
X1919Y1198D01*
X1960Y1198D02*
X1967Y1198D01*
X0Y1197D02*
X7Y1197D01*
X1866Y1197D02*
X1872Y1197D01*
X1913Y1197D02*
X1919Y1197D01*
X1960Y1197D02*
X1967Y1197D01*
X0Y1196D02*
X7Y1196D01*
X1866Y1196D02*
X1872Y1196D01*
X1913Y1196D02*
X1919Y1196D01*
X1960Y1196D02*
X1967Y1196D01*
X0Y1195D02*
X7Y1195D01*
X1866Y1195D02*
X1872Y1195D01*
X1913Y1195D02*
X1919Y1195D01*
X1960Y1195D02*
X1967Y1195D01*
X0Y1194D02*
X7Y1194D01*
X1866Y1194D02*
X1872Y1194D01*
X1913Y1194D02*
X1919Y1194D01*
X1960Y1194D02*
X1967Y1194D01*
X0Y1193D02*
X7Y1193D01*
X1866Y1193D02*
X1872Y1193D01*
X1913Y1193D02*
X1919Y1193D01*
X1960Y1193D02*
X1967Y1193D01*
X0Y1192D02*
X7Y1192D01*
X1866Y1192D02*
X1872Y1192D01*
X1913Y1192D02*
X1919Y1192D01*
X1960Y1192D02*
X1967Y1192D01*
X0Y1191D02*
X7Y1191D01*
X1866Y1191D02*
X1872Y1191D01*
X1913Y1191D02*
X1919Y1191D01*
X1960Y1191D02*
X1967Y1191D01*
X0Y1190D02*
X7Y1190D01*
X1866Y1190D02*
X1872Y1190D01*
X1913Y1190D02*
X1919Y1190D01*
X1960Y1190D02*
X1967Y1190D01*
X0Y1189D02*
X7Y1189D01*
X1866Y1189D02*
X1872Y1189D01*
X1913Y1189D02*
X1919Y1189D01*
X1960Y1189D02*
X1967Y1189D01*
X0Y1188D02*
X7Y1188D01*
X1866Y1188D02*
X1872Y1188D01*
X1913Y1188D02*
X1919Y1188D01*
X1960Y1188D02*
X1967Y1188D01*
X0Y1187D02*
X7Y1187D01*
X1866Y1187D02*
X1872Y1187D01*
X1913Y1187D02*
X1919Y1187D01*
X1960Y1187D02*
X1967Y1187D01*
X0Y1186D02*
X7Y1186D01*
X1866Y1186D02*
X1872Y1186D01*
X1914Y1186D02*
X1919Y1186D01*
X1960Y1186D02*
X1967Y1186D01*
X0Y1185D02*
X7Y1185D01*
X1867Y1185D02*
X1871Y1185D01*
X1914Y1185D02*
X1918Y1185D01*
X1960Y1185D02*
X1967Y1185D01*
X0Y1184D02*
X7Y1184D01*
X1960Y1184D02*
X1967Y1184D01*
X0Y1183D02*
X7Y1183D01*
X1960Y1183D02*
X1967Y1183D01*
X0Y1182D02*
X7Y1182D01*
X1960Y1182D02*
X1967Y1182D01*
X0Y1181D02*
X7Y1181D01*
X1960Y1181D02*
X1967Y1181D01*
X0Y1180D02*
X7Y1180D01*
X1960Y1180D02*
X1967Y1180D01*
X0Y1179D02*
X7Y1179D01*
X1960Y1179D02*
X1967Y1179D01*
X0Y1178D02*
X7Y1178D01*
X1960Y1178D02*
X1967Y1178D01*
X0Y1177D02*
X7Y1177D01*
X1960Y1177D02*
X1967Y1177D01*
X0Y1176D02*
X7Y1176D01*
X1960Y1176D02*
X1967Y1176D01*
X0Y1175D02*
X7Y1175D01*
X1960Y1175D02*
X1967Y1175D01*
X0Y1174D02*
X7Y1174D01*
X1960Y1174D02*
X1967Y1174D01*
X0Y1173D02*
X7Y1173D01*
X1960Y1173D02*
X1967Y1173D01*
X0Y1172D02*
X7Y1172D01*
X1960Y1172D02*
X1967Y1172D01*
X0Y1171D02*
X7Y1171D01*
X1960Y1171D02*
X1967Y1171D01*
X0Y1170D02*
X7Y1170D01*
X1960Y1170D02*
X1967Y1170D01*
X0Y1169D02*
X7Y1169D01*
X1960Y1169D02*
X1967Y1169D01*
X0Y1168D02*
X7Y1168D01*
X1871Y1168D02*
X1914Y1168D01*
X1960Y1168D02*
X1967Y1168D01*
X0Y1167D02*
X7Y1167D01*
X1869Y1167D02*
X1916Y1167D01*
X1960Y1167D02*
X1967Y1167D01*
X0Y1166D02*
X7Y1166D01*
X1868Y1166D02*
X1917Y1166D01*
X1960Y1166D02*
X1967Y1166D01*
X0Y1165D02*
X7Y1165D01*
X1867Y1165D02*
X1918Y1165D01*
X1960Y1165D02*
X1967Y1165D01*
X0Y1164D02*
X7Y1164D01*
X1867Y1164D02*
X1919Y1164D01*
X1960Y1164D02*
X1967Y1164D01*
X0Y1163D02*
X7Y1163D01*
X1866Y1163D02*
X1919Y1163D01*
X1960Y1163D02*
X1967Y1163D01*
X0Y1162D02*
X7Y1162D01*
X1866Y1162D02*
X1919Y1162D01*
X1960Y1162D02*
X1967Y1162D01*
X0Y1161D02*
X7Y1161D01*
X1866Y1161D02*
X1872Y1161D01*
X1913Y1161D02*
X1919Y1161D01*
X1960Y1161D02*
X1967Y1161D01*
X0Y1160D02*
X7Y1160D01*
X1866Y1160D02*
X1872Y1160D01*
X1913Y1160D02*
X1919Y1160D01*
X1960Y1160D02*
X1967Y1160D01*
X0Y1159D02*
X7Y1159D01*
X1866Y1159D02*
X1872Y1159D01*
X1913Y1159D02*
X1919Y1159D01*
X1960Y1159D02*
X1967Y1159D01*
X0Y1158D02*
X7Y1158D01*
X1866Y1158D02*
X1872Y1158D01*
X1913Y1158D02*
X1919Y1158D01*
X1960Y1158D02*
X1967Y1158D01*
X0Y1157D02*
X7Y1157D01*
X1866Y1157D02*
X1872Y1157D01*
X1913Y1157D02*
X1919Y1157D01*
X1960Y1157D02*
X1967Y1157D01*
X0Y1156D02*
X7Y1156D01*
X1866Y1156D02*
X1872Y1156D01*
X1913Y1156D02*
X1919Y1156D01*
X1960Y1156D02*
X1967Y1156D01*
X0Y1155D02*
X7Y1155D01*
X1866Y1155D02*
X1872Y1155D01*
X1913Y1155D02*
X1919Y1155D01*
X1960Y1155D02*
X1967Y1155D01*
X0Y1154D02*
X7Y1154D01*
X1866Y1154D02*
X1872Y1154D01*
X1913Y1154D02*
X1919Y1154D01*
X1960Y1154D02*
X1967Y1154D01*
X0Y1153D02*
X7Y1153D01*
X1866Y1153D02*
X1872Y1153D01*
X1913Y1153D02*
X1919Y1153D01*
X1960Y1153D02*
X1967Y1153D01*
X0Y1152D02*
X7Y1152D01*
X1866Y1152D02*
X1872Y1152D01*
X1913Y1152D02*
X1919Y1152D01*
X1960Y1152D02*
X1967Y1152D01*
X0Y1151D02*
X7Y1151D01*
X1866Y1151D02*
X1872Y1151D01*
X1913Y1151D02*
X1919Y1151D01*
X1960Y1151D02*
X1967Y1151D01*
X0Y1150D02*
X7Y1150D01*
X1866Y1150D02*
X1872Y1150D01*
X1913Y1150D02*
X1919Y1150D01*
X1960Y1150D02*
X1967Y1150D01*
X0Y1149D02*
X7Y1149D01*
X1866Y1149D02*
X1872Y1149D01*
X1913Y1149D02*
X1919Y1149D01*
X1960Y1149D02*
X1967Y1149D01*
X0Y1148D02*
X7Y1148D01*
X1866Y1148D02*
X1872Y1148D01*
X1913Y1148D02*
X1919Y1148D01*
X1960Y1148D02*
X1967Y1148D01*
X0Y1147D02*
X7Y1147D01*
X1866Y1147D02*
X1872Y1147D01*
X1913Y1147D02*
X1919Y1147D01*
X1960Y1147D02*
X1967Y1147D01*
X0Y1146D02*
X7Y1146D01*
X1866Y1146D02*
X1872Y1146D01*
X1913Y1146D02*
X1919Y1146D01*
X1960Y1146D02*
X1967Y1146D01*
X0Y1145D02*
X7Y1145D01*
X1866Y1145D02*
X1872Y1145D01*
X1913Y1145D02*
X1919Y1145D01*
X1960Y1145D02*
X1967Y1145D01*
X0Y1144D02*
X7Y1144D01*
X1866Y1144D02*
X1872Y1144D01*
X1913Y1144D02*
X1919Y1144D01*
X1960Y1144D02*
X1967Y1144D01*
X0Y1143D02*
X7Y1143D01*
X1866Y1143D02*
X1872Y1143D01*
X1913Y1143D02*
X1919Y1143D01*
X1960Y1143D02*
X1967Y1143D01*
X0Y1142D02*
X7Y1142D01*
X1866Y1142D02*
X1872Y1142D01*
X1913Y1142D02*
X1919Y1142D01*
X1960Y1142D02*
X1967Y1142D01*
X0Y1141D02*
X7Y1141D01*
X1866Y1141D02*
X1872Y1141D01*
X1913Y1141D02*
X1919Y1141D01*
X1960Y1141D02*
X1967Y1141D01*
X0Y1140D02*
X7Y1140D01*
X170Y1140D02*
X1081Y1140D01*
X1866Y1140D02*
X1919Y1140D01*
X1960Y1140D02*
X1967Y1140D01*
X0Y1139D02*
X7Y1139D01*
X163Y1139D02*
X1083Y1139D01*
X1866Y1139D02*
X1919Y1139D01*
X1960Y1139D02*
X1967Y1139D01*
X0Y1138D02*
X7Y1138D01*
X160Y1138D02*
X1084Y1138D01*
X1867Y1138D02*
X1918Y1138D01*
X1960Y1138D02*
X1967Y1138D01*
X0Y1137D02*
X7Y1137D01*
X157Y1137D02*
X1085Y1137D01*
X1867Y1137D02*
X1918Y1137D01*
X1960Y1137D02*
X1967Y1137D01*
X0Y1136D02*
X7Y1136D01*
X154Y1136D02*
X1086Y1136D01*
X1868Y1136D02*
X1917Y1136D01*
X1960Y1136D02*
X1967Y1136D01*
X0Y1135D02*
X7Y1135D01*
X152Y1135D02*
X1087Y1135D01*
X1869Y1135D02*
X1916Y1135D01*
X1960Y1135D02*
X1967Y1135D01*
X0Y1134D02*
X7Y1134D01*
X150Y1134D02*
X1088Y1134D01*
X1872Y1134D02*
X1913Y1134D01*
X1960Y1134D02*
X1967Y1134D01*
X0Y1133D02*
X7Y1133D01*
X148Y1133D02*
X471Y1133D01*
X477Y1133D02*
X571Y1133D01*
X577Y1133D02*
X671Y1133D01*
X677Y1133D02*
X771Y1133D01*
X777Y1133D02*
X871Y1133D01*
X877Y1133D02*
X1089Y1133D01*
X1960Y1133D02*
X1967Y1133D01*
X0Y1132D02*
X7Y1132D01*
X147Y1132D02*
X168Y1132D01*
X1079Y1132D02*
X1090Y1132D01*
X1960Y1132D02*
X1967Y1132D01*
X0Y1131D02*
X7Y1131D01*
X145Y1131D02*
X162Y1131D01*
X1080Y1131D02*
X1091Y1131D01*
X1960Y1131D02*
X1967Y1131D01*
X0Y1130D02*
X7Y1130D01*
X144Y1130D02*
X159Y1130D01*
X1081Y1130D02*
X1092Y1130D01*
X1960Y1130D02*
X1967Y1130D01*
X0Y1129D02*
X7Y1129D01*
X142Y1129D02*
X157Y1129D01*
X1082Y1129D02*
X1093Y1129D01*
X1960Y1129D02*
X1967Y1129D01*
X0Y1128D02*
X7Y1128D01*
X141Y1128D02*
X154Y1128D01*
X1083Y1128D02*
X1094Y1128D01*
X1960Y1128D02*
X1967Y1128D01*
X0Y1127D02*
X7Y1127D01*
X140Y1127D02*
X153Y1127D01*
X1084Y1127D02*
X1095Y1127D01*
X1960Y1127D02*
X1967Y1127D01*
X0Y1126D02*
X7Y1126D01*
X139Y1126D02*
X151Y1126D01*
X1085Y1126D02*
X1096Y1126D01*
X1960Y1126D02*
X1967Y1126D01*
X0Y1125D02*
X7Y1125D01*
X138Y1125D02*
X149Y1125D01*
X1086Y1125D02*
X1097Y1125D01*
X1960Y1125D02*
X1967Y1125D01*
X0Y1124D02*
X7Y1124D01*
X137Y1124D02*
X148Y1124D01*
X1087Y1124D02*
X1098Y1124D01*
X1960Y1124D02*
X1967Y1124D01*
X0Y1123D02*
X7Y1123D01*
X136Y1123D02*
X147Y1123D01*
X373Y1123D02*
X384Y1123D01*
X1088Y1123D02*
X1099Y1123D01*
X1960Y1123D02*
X1967Y1123D01*
X0Y1122D02*
X7Y1122D01*
X135Y1122D02*
X146Y1122D01*
X369Y1122D02*
X389Y1122D01*
X1089Y1122D02*
X1100Y1122D01*
X1960Y1122D02*
X1967Y1122D01*
X0Y1121D02*
X7Y1121D01*
X135Y1121D02*
X144Y1121D01*
X365Y1121D02*
X392Y1121D01*
X1090Y1121D02*
X1101Y1121D01*
X1960Y1121D02*
X1967Y1121D01*
X0Y1120D02*
X7Y1120D01*
X134Y1120D02*
X143Y1120D01*
X363Y1120D02*
X395Y1120D01*
X1091Y1120D02*
X1102Y1120D01*
X1960Y1120D02*
X1967Y1120D01*
X0Y1119D02*
X7Y1119D01*
X133Y1119D02*
X142Y1119D01*
X360Y1119D02*
X397Y1119D01*
X1092Y1119D02*
X1103Y1119D01*
X1960Y1119D02*
X1967Y1119D01*
X0Y1118D02*
X7Y1118D01*
X133Y1118D02*
X142Y1118D01*
X358Y1118D02*
X399Y1118D01*
X1093Y1118D02*
X1104Y1118D01*
X1871Y1118D02*
X1890Y1118D01*
X1915Y1118D02*
X1917Y1118D01*
X1960Y1118D02*
X1967Y1118D01*
X0Y1117D02*
X7Y1117D01*
X132Y1117D02*
X141Y1117D01*
X357Y1117D02*
X401Y1117D01*
X1094Y1117D02*
X1105Y1117D01*
X1869Y1117D02*
X1892Y1117D01*
X1914Y1117D02*
X1918Y1117D01*
X1960Y1117D02*
X1967Y1117D01*
X0Y1116D02*
X7Y1116D01*
X131Y1116D02*
X140Y1116D01*
X355Y1116D02*
X403Y1116D01*
X1095Y1116D02*
X1106Y1116D01*
X1868Y1116D02*
X1894Y1116D01*
X1913Y1116D02*
X1919Y1116D01*
X1960Y1116D02*
X1967Y1116D01*
X0Y1115D02*
X7Y1115D01*
X131Y1115D02*
X139Y1115D01*
X354Y1115D02*
X373Y1115D01*
X385Y1115D02*
X404Y1115D01*
X1096Y1115D02*
X1107Y1115D01*
X1867Y1115D02*
X1894Y1115D01*
X1913Y1115D02*
X1919Y1115D01*
X1960Y1115D02*
X1967Y1115D01*
X0Y1114D02*
X7Y1114D01*
X130Y1114D02*
X138Y1114D01*
X352Y1114D02*
X368Y1114D01*
X390Y1114D02*
X405Y1114D01*
X1097Y1114D02*
X1108Y1114D01*
X1867Y1114D02*
X1895Y1114D01*
X1913Y1114D02*
X1919Y1114D01*
X1960Y1114D02*
X1967Y1114D01*
X0Y1113D02*
X7Y1113D01*
X130Y1113D02*
X138Y1113D01*
X351Y1113D02*
X365Y1113D01*
X392Y1113D02*
X406Y1113D01*
X1098Y1113D02*
X1109Y1113D01*
X1866Y1113D02*
X1895Y1113D01*
X1913Y1113D02*
X1919Y1113D01*
X1960Y1113D02*
X1967Y1113D01*
X0Y1112D02*
X7Y1112D01*
X129Y1112D02*
X137Y1112D01*
X350Y1112D02*
X363Y1112D01*
X395Y1112D02*
X408Y1112D01*
X1099Y1112D02*
X1110Y1112D01*
X1866Y1112D02*
X1895Y1112D01*
X1913Y1112D02*
X1919Y1112D01*
X1960Y1112D02*
X1967Y1112D01*
X0Y1111D02*
X7Y1111D01*
X129Y1111D02*
X137Y1111D01*
X349Y1111D02*
X361Y1111D01*
X397Y1111D02*
X409Y1111D01*
X1100Y1111D02*
X1111Y1111D01*
X1866Y1111D02*
X1872Y1111D01*
X1889Y1111D02*
X1896Y1111D01*
X1913Y1111D02*
X1919Y1111D01*
X1960Y1111D02*
X1967Y1111D01*
X0Y1110D02*
X7Y1110D01*
X128Y1110D02*
X136Y1110D01*
X348Y1110D02*
X359Y1110D01*
X398Y1110D02*
X410Y1110D01*
X1101Y1110D02*
X1112Y1110D01*
X1866Y1110D02*
X1872Y1110D01*
X1890Y1110D02*
X1896Y1110D01*
X1913Y1110D02*
X1919Y1110D01*
X1960Y1110D02*
X1967Y1110D01*
X0Y1109D02*
X7Y1109D01*
X128Y1109D02*
X135Y1109D01*
X347Y1109D02*
X358Y1109D01*
X400Y1109D02*
X411Y1109D01*
X1102Y1109D02*
X1113Y1109D01*
X1866Y1109D02*
X1872Y1109D01*
X1890Y1109D02*
X1896Y1109D01*
X1913Y1109D02*
X1919Y1109D01*
X1960Y1109D02*
X1967Y1109D01*
X0Y1108D02*
X7Y1108D01*
X127Y1108D02*
X135Y1108D01*
X346Y1108D02*
X357Y1108D01*
X401Y1108D02*
X411Y1108D01*
X1103Y1108D02*
X1114Y1108D01*
X1866Y1108D02*
X1872Y1108D01*
X1890Y1108D02*
X1896Y1108D01*
X1913Y1108D02*
X1919Y1108D01*
X1960Y1108D02*
X1967Y1108D01*
X0Y1107D02*
X7Y1107D01*
X127Y1107D02*
X134Y1107D01*
X345Y1107D02*
X355Y1107D01*
X402Y1107D02*
X412Y1107D01*
X1104Y1107D02*
X1114Y1107D01*
X1866Y1107D02*
X1872Y1107D01*
X1890Y1107D02*
X1896Y1107D01*
X1913Y1107D02*
X1919Y1107D01*
X1960Y1107D02*
X1967Y1107D01*
X0Y1106D02*
X7Y1106D01*
X127Y1106D02*
X134Y1106D01*
X345Y1106D02*
X354Y1106D01*
X403Y1106D02*
X413Y1106D01*
X1105Y1106D02*
X1114Y1106D01*
X1866Y1106D02*
X1872Y1106D01*
X1890Y1106D02*
X1896Y1106D01*
X1913Y1106D02*
X1919Y1106D01*
X1960Y1106D02*
X1967Y1106D01*
X0Y1105D02*
X7Y1105D01*
X126Y1105D02*
X134Y1105D01*
X344Y1105D02*
X353Y1105D01*
X404Y1105D02*
X414Y1105D01*
X1106Y1105D02*
X1114Y1105D01*
X1866Y1105D02*
X1872Y1105D01*
X1890Y1105D02*
X1896Y1105D01*
X1913Y1105D02*
X1919Y1105D01*
X1960Y1105D02*
X1967Y1105D01*
X0Y1104D02*
X7Y1104D01*
X126Y1104D02*
X133Y1104D01*
X343Y1104D02*
X352Y1104D01*
X405Y1104D02*
X414Y1104D01*
X1107Y1104D02*
X1114Y1104D01*
X1866Y1104D02*
X1872Y1104D01*
X1890Y1104D02*
X1896Y1104D01*
X1913Y1104D02*
X1919Y1104D01*
X1960Y1104D02*
X1967Y1104D01*
X0Y1103D02*
X7Y1103D01*
X126Y1103D02*
X133Y1103D01*
X343Y1103D02*
X351Y1103D01*
X406Y1103D02*
X415Y1103D01*
X1107Y1103D02*
X1114Y1103D01*
X1866Y1103D02*
X1872Y1103D01*
X1890Y1103D02*
X1896Y1103D01*
X1913Y1103D02*
X1919Y1103D01*
X1960Y1103D02*
X1967Y1103D01*
X0Y1102D02*
X7Y1102D01*
X126Y1102D02*
X133Y1102D01*
X342Y1102D02*
X351Y1102D01*
X407Y1102D02*
X416Y1102D01*
X1107Y1102D02*
X1114Y1102D01*
X1866Y1102D02*
X1872Y1102D01*
X1890Y1102D02*
X1896Y1102D01*
X1913Y1102D02*
X1919Y1102D01*
X1960Y1102D02*
X1967Y1102D01*
X0Y1101D02*
X7Y1101D01*
X125Y1101D02*
X132Y1101D01*
X267Y1101D02*
X288Y1101D01*
X341Y1101D02*
X350Y1101D01*
X408Y1101D02*
X416Y1101D01*
X1107Y1101D02*
X1114Y1101D01*
X1866Y1101D02*
X1872Y1101D01*
X1890Y1101D02*
X1896Y1101D01*
X1913Y1101D02*
X1919Y1101D01*
X1960Y1101D02*
X1967Y1101D01*
X0Y1100D02*
X7Y1100D01*
X125Y1100D02*
X132Y1100D01*
X266Y1100D02*
X289Y1100D01*
X341Y1100D02*
X349Y1100D01*
X409Y1100D02*
X417Y1100D01*
X1107Y1100D02*
X1114Y1100D01*
X1866Y1100D02*
X1872Y1100D01*
X1890Y1100D02*
X1896Y1100D01*
X1913Y1100D02*
X1919Y1100D01*
X1960Y1100D02*
X1967Y1100D01*
X0Y1099D02*
X7Y1099D01*
X125Y1099D02*
X132Y1099D01*
X266Y1099D02*
X289Y1099D01*
X340Y1099D02*
X348Y1099D01*
X409Y1099D02*
X417Y1099D01*
X1107Y1099D02*
X1114Y1099D01*
X1866Y1099D02*
X1872Y1099D01*
X1890Y1099D02*
X1896Y1099D01*
X1913Y1099D02*
X1919Y1099D01*
X1960Y1099D02*
X1967Y1099D01*
X0Y1098D02*
X7Y1098D01*
X125Y1098D02*
X132Y1098D01*
X266Y1098D02*
X289Y1098D01*
X340Y1098D02*
X348Y1098D01*
X410Y1098D02*
X418Y1098D01*
X1107Y1098D02*
X1114Y1098D01*
X1866Y1098D02*
X1872Y1098D01*
X1890Y1098D02*
X1896Y1098D01*
X1913Y1098D02*
X1919Y1098D01*
X1960Y1098D02*
X1967Y1098D01*
X0Y1097D02*
X7Y1097D01*
X125Y1097D02*
X132Y1097D01*
X266Y1097D02*
X289Y1097D01*
X339Y1097D02*
X347Y1097D01*
X410Y1097D02*
X418Y1097D01*
X1107Y1097D02*
X1114Y1097D01*
X1866Y1097D02*
X1872Y1097D01*
X1890Y1097D02*
X1896Y1097D01*
X1913Y1097D02*
X1919Y1097D01*
X1960Y1097D02*
X1967Y1097D01*
X0Y1096D02*
X7Y1096D01*
X124Y1096D02*
X131Y1096D01*
X266Y1096D02*
X289Y1096D01*
X339Y1096D02*
X347Y1096D01*
X411Y1096D02*
X419Y1096D01*
X1107Y1096D02*
X1114Y1096D01*
X1866Y1096D02*
X1872Y1096D01*
X1890Y1096D02*
X1896Y1096D01*
X1913Y1096D02*
X1919Y1096D01*
X1960Y1096D02*
X1967Y1096D01*
X0Y1095D02*
X7Y1095D01*
X124Y1095D02*
X131Y1095D01*
X268Y1095D02*
X289Y1095D01*
X339Y1095D02*
X346Y1095D01*
X411Y1095D02*
X419Y1095D01*
X1107Y1095D02*
X1114Y1095D01*
X1866Y1095D02*
X1872Y1095D01*
X1890Y1095D02*
X1896Y1095D01*
X1913Y1095D02*
X1919Y1095D01*
X1960Y1095D02*
X1967Y1095D01*
X0Y1094D02*
X7Y1094D01*
X124Y1094D02*
X131Y1094D01*
X283Y1094D02*
X289Y1094D01*
X338Y1094D02*
X346Y1094D01*
X412Y1094D02*
X419Y1094D01*
X1107Y1094D02*
X1114Y1094D01*
X1866Y1094D02*
X1872Y1094D01*
X1890Y1094D02*
X1896Y1094D01*
X1913Y1094D02*
X1919Y1094D01*
X1960Y1094D02*
X1967Y1094D01*
X0Y1093D02*
X7Y1093D01*
X124Y1093D02*
X131Y1093D01*
X283Y1093D02*
X289Y1093D01*
X338Y1093D02*
X345Y1093D01*
X412Y1093D02*
X420Y1093D01*
X1107Y1093D02*
X1114Y1093D01*
X1866Y1093D02*
X1872Y1093D01*
X1890Y1093D02*
X1896Y1093D01*
X1913Y1093D02*
X1919Y1093D01*
X1960Y1093D02*
X1967Y1093D01*
X0Y1092D02*
X7Y1092D01*
X124Y1092D02*
X131Y1092D01*
X283Y1092D02*
X289Y1092D01*
X338Y1092D02*
X345Y1092D01*
X413Y1092D02*
X420Y1092D01*
X1107Y1092D02*
X1114Y1092D01*
X1866Y1092D02*
X1872Y1092D01*
X1890Y1092D02*
X1896Y1092D01*
X1913Y1092D02*
X1919Y1092D01*
X1960Y1092D02*
X1967Y1092D01*
X0Y1091D02*
X7Y1091D01*
X124Y1091D02*
X131Y1091D01*
X283Y1091D02*
X289Y1091D01*
X337Y1091D02*
X345Y1091D01*
X413Y1091D02*
X420Y1091D01*
X1107Y1091D02*
X1114Y1091D01*
X1866Y1091D02*
X1872Y1091D01*
X1890Y1091D02*
X1896Y1091D01*
X1913Y1091D02*
X1919Y1091D01*
X1960Y1091D02*
X1967Y1091D01*
X0Y1090D02*
X7Y1090D01*
X124Y1090D02*
X131Y1090D01*
X283Y1090D02*
X289Y1090D01*
X337Y1090D02*
X344Y1090D01*
X413Y1090D02*
X420Y1090D01*
X1107Y1090D02*
X1114Y1090D01*
X1866Y1090D02*
X1872Y1090D01*
X1890Y1090D02*
X1919Y1090D01*
X1960Y1090D02*
X1967Y1090D01*
X0Y1089D02*
X7Y1089D01*
X124Y1089D02*
X131Y1089D01*
X283Y1089D02*
X289Y1089D01*
X337Y1089D02*
X344Y1089D01*
X414Y1089D02*
X421Y1089D01*
X1107Y1089D02*
X1114Y1089D01*
X1866Y1089D02*
X1872Y1089D01*
X1890Y1089D02*
X1919Y1089D01*
X1960Y1089D02*
X1967Y1089D01*
X0Y1088D02*
X7Y1088D01*
X124Y1088D02*
X131Y1088D01*
X283Y1088D02*
X289Y1088D01*
X337Y1088D02*
X344Y1088D01*
X414Y1088D02*
X421Y1088D01*
X1107Y1088D02*
X1114Y1088D01*
X1866Y1088D02*
X1872Y1088D01*
X1890Y1088D02*
X1919Y1088D01*
X1960Y1088D02*
X1967Y1088D01*
X0Y1087D02*
X7Y1087D01*
X124Y1087D02*
X131Y1087D01*
X236Y1087D02*
X289Y1087D01*
X337Y1087D02*
X344Y1087D01*
X414Y1087D02*
X421Y1087D01*
X1107Y1087D02*
X1114Y1087D01*
X1866Y1087D02*
X1872Y1087D01*
X1891Y1087D02*
X1919Y1087D01*
X1960Y1087D02*
X1967Y1087D01*
X0Y1086D02*
X7Y1086D01*
X124Y1086D02*
X131Y1086D01*
X236Y1086D02*
X289Y1086D01*
X336Y1086D02*
X344Y1086D01*
X414Y1086D02*
X421Y1086D01*
X1107Y1086D02*
X1114Y1086D01*
X1866Y1086D02*
X1872Y1086D01*
X1891Y1086D02*
X1919Y1086D01*
X1960Y1086D02*
X1967Y1086D01*
X0Y1085D02*
X7Y1085D01*
X124Y1085D02*
X131Y1085D01*
X236Y1085D02*
X289Y1085D01*
X336Y1085D02*
X343Y1085D01*
X414Y1085D02*
X421Y1085D01*
X1107Y1085D02*
X1114Y1085D01*
X1867Y1085D02*
X1871Y1085D01*
X1893Y1085D02*
X1919Y1085D01*
X1960Y1085D02*
X1967Y1085D01*
X0Y1084D02*
X7Y1084D01*
X124Y1084D02*
X131Y1084D01*
X236Y1084D02*
X289Y1084D01*
X336Y1084D02*
X343Y1084D01*
X414Y1084D02*
X421Y1084D01*
X1107Y1084D02*
X1114Y1084D01*
X1868Y1084D02*
X1870Y1084D01*
X1895Y1084D02*
X1919Y1084D01*
X1960Y1084D02*
X1967Y1084D01*
X0Y1083D02*
X7Y1083D01*
X124Y1083D02*
X131Y1083D01*
X236Y1083D02*
X289Y1083D01*
X336Y1083D02*
X343Y1083D01*
X414Y1083D02*
X421Y1083D01*
X1107Y1083D02*
X1114Y1083D01*
X1960Y1083D02*
X1967Y1083D01*
X0Y1082D02*
X7Y1082D01*
X124Y1082D02*
X131Y1082D01*
X236Y1082D02*
X289Y1082D01*
X336Y1082D02*
X343Y1082D01*
X415Y1082D02*
X422Y1082D01*
X1107Y1082D02*
X1114Y1082D01*
X1960Y1082D02*
X1967Y1082D01*
X0Y1081D02*
X7Y1081D01*
X124Y1081D02*
X131Y1081D01*
X236Y1081D02*
X289Y1081D01*
X336Y1081D02*
X343Y1081D01*
X415Y1081D02*
X422Y1081D01*
X1107Y1081D02*
X1114Y1081D01*
X1960Y1081D02*
X1967Y1081D01*
X0Y1080D02*
X7Y1080D01*
X124Y1080D02*
X131Y1080D01*
X236Y1080D02*
X242Y1080D01*
X283Y1080D02*
X289Y1080D01*
X336Y1080D02*
X343Y1080D01*
X415Y1080D02*
X422Y1080D01*
X1107Y1080D02*
X1114Y1080D01*
X1960Y1080D02*
X1967Y1080D01*
X0Y1079D02*
X7Y1079D01*
X124Y1079D02*
X131Y1079D01*
X236Y1079D02*
X242Y1079D01*
X283Y1079D02*
X289Y1079D01*
X336Y1079D02*
X343Y1079D01*
X415Y1079D02*
X422Y1079D01*
X1107Y1079D02*
X1114Y1079D01*
X1960Y1079D02*
X1967Y1079D01*
X0Y1078D02*
X7Y1078D01*
X124Y1078D02*
X131Y1078D01*
X236Y1078D02*
X242Y1078D01*
X283Y1078D02*
X289Y1078D01*
X336Y1078D02*
X343Y1078D01*
X415Y1078D02*
X421Y1078D01*
X1107Y1078D02*
X1114Y1078D01*
X1960Y1078D02*
X1967Y1078D01*
X0Y1077D02*
X7Y1077D01*
X124Y1077D02*
X131Y1077D01*
X236Y1077D02*
X242Y1077D01*
X283Y1077D02*
X289Y1077D01*
X336Y1077D02*
X343Y1077D01*
X414Y1077D02*
X421Y1077D01*
X1107Y1077D02*
X1114Y1077D01*
X1960Y1077D02*
X1967Y1077D01*
X0Y1076D02*
X7Y1076D01*
X124Y1076D02*
X131Y1076D01*
X236Y1076D02*
X242Y1076D01*
X283Y1076D02*
X289Y1076D01*
X336Y1076D02*
X343Y1076D01*
X414Y1076D02*
X421Y1076D01*
X1107Y1076D02*
X1114Y1076D01*
X1960Y1076D02*
X1967Y1076D01*
X0Y1075D02*
X7Y1075D01*
X124Y1075D02*
X131Y1075D01*
X236Y1075D02*
X242Y1075D01*
X283Y1075D02*
X289Y1075D01*
X336Y1075D02*
X343Y1075D01*
X414Y1075D02*
X421Y1075D01*
X1107Y1075D02*
X1114Y1075D01*
X1960Y1075D02*
X1967Y1075D01*
X0Y1074D02*
X7Y1074D01*
X124Y1074D02*
X131Y1074D01*
X236Y1074D02*
X242Y1074D01*
X283Y1074D02*
X289Y1074D01*
X337Y1074D02*
X344Y1074D01*
X414Y1074D02*
X421Y1074D01*
X1107Y1074D02*
X1114Y1074D01*
X1960Y1074D02*
X1967Y1074D01*
X0Y1073D02*
X7Y1073D01*
X124Y1073D02*
X131Y1073D01*
X236Y1073D02*
X242Y1073D01*
X283Y1073D02*
X289Y1073D01*
X337Y1073D02*
X344Y1073D01*
X414Y1073D02*
X421Y1073D01*
X1107Y1073D02*
X1114Y1073D01*
X1960Y1073D02*
X1967Y1073D01*
X0Y1072D02*
X7Y1072D01*
X124Y1072D02*
X131Y1072D01*
X236Y1072D02*
X242Y1072D01*
X283Y1072D02*
X289Y1072D01*
X337Y1072D02*
X344Y1072D01*
X414Y1072D02*
X421Y1072D01*
X1107Y1072D02*
X1114Y1072D01*
X1960Y1072D02*
X1967Y1072D01*
X0Y1071D02*
X7Y1071D01*
X124Y1071D02*
X131Y1071D01*
X236Y1071D02*
X242Y1071D01*
X283Y1071D02*
X289Y1071D01*
X337Y1071D02*
X344Y1071D01*
X413Y1071D02*
X421Y1071D01*
X1107Y1071D02*
X1114Y1071D01*
X1960Y1071D02*
X1967Y1071D01*
X0Y1070D02*
X7Y1070D01*
X124Y1070D02*
X131Y1070D01*
X236Y1070D02*
X242Y1070D01*
X283Y1070D02*
X289Y1070D01*
X337Y1070D02*
X344Y1070D01*
X413Y1070D02*
X420Y1070D01*
X1107Y1070D02*
X1114Y1070D01*
X1960Y1070D02*
X1967Y1070D01*
X0Y1069D02*
X7Y1069D01*
X124Y1069D02*
X131Y1069D01*
X236Y1069D02*
X242Y1069D01*
X284Y1069D02*
X289Y1069D01*
X338Y1069D02*
X345Y1069D01*
X413Y1069D02*
X420Y1069D01*
X1107Y1069D02*
X1114Y1069D01*
X1960Y1069D02*
X1967Y1069D01*
X0Y1068D02*
X7Y1068D01*
X124Y1068D02*
X131Y1068D01*
X237Y1068D02*
X241Y1068D01*
X284Y1068D02*
X288Y1068D01*
X338Y1068D02*
X345Y1068D01*
X412Y1068D02*
X420Y1068D01*
X1107Y1068D02*
X1114Y1068D01*
X1960Y1068D02*
X1967Y1068D01*
X0Y1067D02*
X7Y1067D01*
X124Y1067D02*
X131Y1067D01*
X338Y1067D02*
X346Y1067D01*
X412Y1067D02*
X419Y1067D01*
X1107Y1067D02*
X1114Y1067D01*
X1960Y1067D02*
X1967Y1067D01*
X0Y1066D02*
X7Y1066D01*
X124Y1066D02*
X131Y1066D01*
X339Y1066D02*
X346Y1066D01*
X412Y1066D02*
X419Y1066D01*
X1107Y1066D02*
X1114Y1066D01*
X1960Y1066D02*
X1967Y1066D01*
X0Y1065D02*
X7Y1065D01*
X124Y1065D02*
X131Y1065D01*
X339Y1065D02*
X346Y1065D01*
X411Y1065D02*
X419Y1065D01*
X1107Y1065D02*
X1114Y1065D01*
X1960Y1065D02*
X1967Y1065D01*
X0Y1064D02*
X7Y1064D01*
X124Y1064D02*
X131Y1064D01*
X339Y1064D02*
X347Y1064D01*
X411Y1064D02*
X418Y1064D01*
X1107Y1064D02*
X1114Y1064D01*
X1960Y1064D02*
X1967Y1064D01*
X0Y1063D02*
X7Y1063D01*
X124Y1063D02*
X131Y1063D01*
X340Y1063D02*
X347Y1063D01*
X410Y1063D02*
X418Y1063D01*
X1107Y1063D02*
X1114Y1063D01*
X1960Y1063D02*
X1967Y1063D01*
X0Y1062D02*
X7Y1062D01*
X124Y1062D02*
X131Y1062D01*
X340Y1062D02*
X348Y1062D01*
X410Y1062D02*
X417Y1062D01*
X1107Y1062D02*
X1114Y1062D01*
X1960Y1062D02*
X1967Y1062D01*
X0Y1061D02*
X7Y1061D01*
X124Y1061D02*
X131Y1061D01*
X341Y1061D02*
X349Y1061D01*
X409Y1061D02*
X417Y1061D01*
X1107Y1061D02*
X1114Y1061D01*
X1960Y1061D02*
X1967Y1061D01*
X0Y1060D02*
X7Y1060D01*
X124Y1060D02*
X131Y1060D01*
X341Y1060D02*
X349Y1060D01*
X408Y1060D02*
X417Y1060D01*
X1107Y1060D02*
X1114Y1060D01*
X1960Y1060D02*
X1967Y1060D01*
X0Y1059D02*
X7Y1059D01*
X124Y1059D02*
X131Y1059D01*
X342Y1059D02*
X350Y1059D01*
X408Y1059D02*
X416Y1059D01*
X1107Y1059D02*
X1114Y1059D01*
X1960Y1059D02*
X1967Y1059D01*
X0Y1058D02*
X7Y1058D01*
X124Y1058D02*
X131Y1058D01*
X342Y1058D02*
X351Y1058D01*
X407Y1058D02*
X415Y1058D01*
X1107Y1058D02*
X1114Y1058D01*
X1960Y1058D02*
X1967Y1058D01*
X0Y1057D02*
X7Y1057D01*
X124Y1057D02*
X131Y1057D01*
X343Y1057D02*
X352Y1057D01*
X406Y1057D02*
X415Y1057D01*
X1107Y1057D02*
X1114Y1057D01*
X1960Y1057D02*
X1967Y1057D01*
X0Y1056D02*
X7Y1056D01*
X124Y1056D02*
X131Y1056D01*
X343Y1056D02*
X353Y1056D01*
X405Y1056D02*
X414Y1056D01*
X1107Y1056D02*
X1114Y1056D01*
X1960Y1056D02*
X1967Y1056D01*
X0Y1055D02*
X7Y1055D01*
X124Y1055D02*
X131Y1055D01*
X344Y1055D02*
X354Y1055D01*
X404Y1055D02*
X413Y1055D01*
X1107Y1055D02*
X1114Y1055D01*
X1960Y1055D02*
X1967Y1055D01*
X0Y1054D02*
X7Y1054D01*
X124Y1054D02*
X131Y1054D01*
X345Y1054D02*
X355Y1054D01*
X403Y1054D02*
X413Y1054D01*
X1107Y1054D02*
X1114Y1054D01*
X1960Y1054D02*
X1967Y1054D01*
X0Y1053D02*
X7Y1053D01*
X124Y1053D02*
X131Y1053D01*
X346Y1053D02*
X356Y1053D01*
X402Y1053D02*
X412Y1053D01*
X1107Y1053D02*
X1114Y1053D01*
X1960Y1053D02*
X1967Y1053D01*
X0Y1052D02*
X7Y1052D01*
X124Y1052D02*
X131Y1052D01*
X346Y1052D02*
X357Y1052D01*
X401Y1052D02*
X411Y1052D01*
X1107Y1052D02*
X1114Y1052D01*
X1960Y1052D02*
X1967Y1052D01*
X0Y1051D02*
X7Y1051D01*
X124Y1051D02*
X131Y1051D01*
X347Y1051D02*
X358Y1051D01*
X399Y1051D02*
X410Y1051D01*
X1107Y1051D02*
X1114Y1051D01*
X1960Y1051D02*
X1967Y1051D01*
X0Y1050D02*
X7Y1050D01*
X124Y1050D02*
X131Y1050D01*
X348Y1050D02*
X360Y1050D01*
X398Y1050D02*
X409Y1050D01*
X1107Y1050D02*
X1114Y1050D01*
X1960Y1050D02*
X1967Y1050D01*
X0Y1049D02*
X7Y1049D01*
X124Y1049D02*
X131Y1049D01*
X349Y1049D02*
X362Y1049D01*
X396Y1049D02*
X408Y1049D01*
X1107Y1049D02*
X1114Y1049D01*
X1960Y1049D02*
X1967Y1049D01*
X0Y1048D02*
X7Y1048D01*
X124Y1048D02*
X131Y1048D01*
X239Y1048D02*
X279Y1048D01*
X350Y1048D02*
X364Y1048D01*
X394Y1048D02*
X407Y1048D01*
X1107Y1048D02*
X1114Y1048D01*
X1960Y1048D02*
X1967Y1048D01*
X0Y1047D02*
X7Y1047D01*
X124Y1047D02*
X131Y1047D01*
X237Y1047D02*
X283Y1047D01*
X352Y1047D02*
X366Y1047D01*
X391Y1047D02*
X406Y1047D01*
X1107Y1047D02*
X1114Y1047D01*
X1960Y1047D02*
X1967Y1047D01*
X0Y1046D02*
X7Y1046D01*
X124Y1046D02*
X131Y1046D01*
X236Y1046D02*
X285Y1046D01*
X353Y1046D02*
X370Y1046D01*
X388Y1046D02*
X405Y1046D01*
X1107Y1046D02*
X1114Y1046D01*
X1960Y1046D02*
X1967Y1046D01*
X0Y1045D02*
X7Y1045D01*
X124Y1045D02*
X131Y1045D01*
X236Y1045D02*
X286Y1045D01*
X354Y1045D02*
X376Y1045D01*
X381Y1045D02*
X403Y1045D01*
X1107Y1045D02*
X1114Y1045D01*
X1960Y1045D02*
X1967Y1045D01*
X0Y1044D02*
X7Y1044D01*
X124Y1044D02*
X131Y1044D01*
X236Y1044D02*
X287Y1044D01*
X356Y1044D02*
X402Y1044D01*
X1107Y1044D02*
X1114Y1044D01*
X1960Y1044D02*
X1967Y1044D01*
X0Y1043D02*
X7Y1043D01*
X124Y1043D02*
X131Y1043D01*
X236Y1043D02*
X288Y1043D01*
X357Y1043D02*
X400Y1043D01*
X1107Y1043D02*
X1114Y1043D01*
X1960Y1043D02*
X1967Y1043D01*
X0Y1042D02*
X7Y1042D01*
X124Y1042D02*
X131Y1042D01*
X237Y1042D02*
X288Y1042D01*
X359Y1042D02*
X399Y1042D01*
X1107Y1042D02*
X1114Y1042D01*
X1960Y1042D02*
X1967Y1042D01*
X0Y1041D02*
X7Y1041D01*
X124Y1041D02*
X131Y1041D01*
X280Y1041D02*
X289Y1041D01*
X361Y1041D02*
X396Y1041D01*
X1107Y1041D02*
X1114Y1041D01*
X1960Y1041D02*
X1967Y1041D01*
X0Y1040D02*
X7Y1040D01*
X124Y1040D02*
X131Y1040D01*
X282Y1040D02*
X289Y1040D01*
X364Y1040D02*
X394Y1040D01*
X1107Y1040D02*
X1114Y1040D01*
X1960Y1040D02*
X1967Y1040D01*
X0Y1039D02*
X7Y1039D01*
X124Y1039D02*
X131Y1039D01*
X283Y1039D02*
X289Y1039D01*
X366Y1039D02*
X391Y1039D01*
X1107Y1039D02*
X1114Y1039D01*
X1960Y1039D02*
X1967Y1039D01*
X0Y1038D02*
X7Y1038D01*
X124Y1038D02*
X131Y1038D01*
X283Y1038D02*
X289Y1038D01*
X370Y1038D02*
X388Y1038D01*
X1107Y1038D02*
X1114Y1038D01*
X1960Y1038D02*
X1967Y1038D01*
X0Y1037D02*
X7Y1037D01*
X124Y1037D02*
X131Y1037D01*
X283Y1037D02*
X289Y1037D01*
X378Y1037D02*
X380Y1037D01*
X1107Y1037D02*
X1114Y1037D01*
X1960Y1037D02*
X1967Y1037D01*
X0Y1036D02*
X7Y1036D01*
X124Y1036D02*
X131Y1036D01*
X283Y1036D02*
X289Y1036D01*
X1107Y1036D02*
X1114Y1036D01*
X1960Y1036D02*
X1967Y1036D01*
X0Y1035D02*
X7Y1035D01*
X124Y1035D02*
X131Y1035D01*
X283Y1035D02*
X289Y1035D01*
X1107Y1035D02*
X1114Y1035D01*
X1960Y1035D02*
X1967Y1035D01*
X0Y1034D02*
X7Y1034D01*
X124Y1034D02*
X131Y1034D01*
X283Y1034D02*
X289Y1034D01*
X1107Y1034D02*
X1114Y1034D01*
X1960Y1034D02*
X1967Y1034D01*
X0Y1033D02*
X7Y1033D01*
X124Y1033D02*
X131Y1033D01*
X283Y1033D02*
X289Y1033D01*
X1107Y1033D02*
X1114Y1033D01*
X1960Y1033D02*
X1967Y1033D01*
X0Y1032D02*
X7Y1032D01*
X124Y1032D02*
X131Y1032D01*
X283Y1032D02*
X289Y1032D01*
X1107Y1032D02*
X1114Y1032D01*
X1960Y1032D02*
X1967Y1032D01*
X0Y1031D02*
X7Y1031D01*
X124Y1031D02*
X131Y1031D01*
X283Y1031D02*
X289Y1031D01*
X1107Y1031D02*
X1114Y1031D01*
X1960Y1031D02*
X1967Y1031D01*
X0Y1030D02*
X7Y1030D01*
X124Y1030D02*
X131Y1030D01*
X283Y1030D02*
X289Y1030D01*
X1107Y1030D02*
X1114Y1030D01*
X1960Y1030D02*
X1967Y1030D01*
X0Y1029D02*
X7Y1029D01*
X124Y1029D02*
X131Y1029D01*
X283Y1029D02*
X289Y1029D01*
X1107Y1029D02*
X1114Y1029D01*
X1960Y1029D02*
X1967Y1029D01*
X0Y1028D02*
X7Y1028D01*
X124Y1028D02*
X131Y1028D01*
X282Y1028D02*
X289Y1028D01*
X1107Y1028D02*
X1114Y1028D01*
X1960Y1028D02*
X1967Y1028D01*
X0Y1027D02*
X7Y1027D01*
X124Y1027D02*
X131Y1027D01*
X268Y1027D02*
X288Y1027D01*
X1107Y1027D02*
X1114Y1027D01*
X1960Y1027D02*
X1967Y1027D01*
X0Y1026D02*
X7Y1026D01*
X124Y1026D02*
X131Y1026D01*
X266Y1026D02*
X288Y1026D01*
X1107Y1026D02*
X1114Y1026D01*
X1960Y1026D02*
X1967Y1026D01*
X0Y1025D02*
X7Y1025D01*
X124Y1025D02*
X131Y1025D01*
X266Y1025D02*
X287Y1025D01*
X1107Y1025D02*
X1114Y1025D01*
X1960Y1025D02*
X1967Y1025D01*
X0Y1024D02*
X7Y1024D01*
X124Y1024D02*
X131Y1024D01*
X266Y1024D02*
X287Y1024D01*
X1107Y1024D02*
X1114Y1024D01*
X1960Y1024D02*
X1967Y1024D01*
X0Y1023D02*
X7Y1023D01*
X124Y1023D02*
X131Y1023D01*
X266Y1023D02*
X286Y1023D01*
X1107Y1023D02*
X1114Y1023D01*
X1960Y1023D02*
X1967Y1023D01*
X0Y1022D02*
X7Y1022D01*
X124Y1022D02*
X131Y1022D01*
X266Y1022D02*
X284Y1022D01*
X1107Y1022D02*
X1114Y1022D01*
X1960Y1022D02*
X1967Y1022D01*
X0Y1021D02*
X7Y1021D01*
X124Y1021D02*
X131Y1021D01*
X267Y1021D02*
X282Y1021D01*
X1107Y1021D02*
X1114Y1021D01*
X1960Y1021D02*
X1967Y1021D01*
X0Y1020D02*
X7Y1020D01*
X124Y1020D02*
X131Y1020D01*
X1107Y1020D02*
X1114Y1020D01*
X1960Y1020D02*
X1967Y1020D01*
X0Y1019D02*
X7Y1019D01*
X124Y1019D02*
X131Y1019D01*
X1107Y1019D02*
X1114Y1019D01*
X1960Y1019D02*
X1967Y1019D01*
X0Y1018D02*
X7Y1018D01*
X124Y1018D02*
X131Y1018D01*
X1107Y1018D02*
X1114Y1018D01*
X1960Y1018D02*
X1967Y1018D01*
X0Y1017D02*
X7Y1017D01*
X124Y1017D02*
X131Y1017D01*
X1107Y1017D02*
X1114Y1017D01*
X1897Y1017D02*
X1918Y1017D01*
X1960Y1017D02*
X1967Y1017D01*
X0Y1016D02*
X7Y1016D01*
X124Y1016D02*
X131Y1016D01*
X1107Y1016D02*
X1114Y1016D01*
X1896Y1016D02*
X1919Y1016D01*
X1960Y1016D02*
X1967Y1016D01*
X0Y1015D02*
X7Y1015D01*
X124Y1015D02*
X131Y1015D01*
X1107Y1015D02*
X1114Y1015D01*
X1896Y1015D02*
X1919Y1015D01*
X1960Y1015D02*
X1967Y1015D01*
X0Y1014D02*
X7Y1014D01*
X124Y1014D02*
X131Y1014D01*
X1107Y1014D02*
X1114Y1014D01*
X1895Y1014D02*
X1919Y1014D01*
X1960Y1014D02*
X1967Y1014D01*
X0Y1013D02*
X7Y1013D01*
X124Y1013D02*
X131Y1013D01*
X1107Y1013D02*
X1114Y1013D01*
X1896Y1013D02*
X1919Y1013D01*
X1960Y1013D02*
X1967Y1013D01*
X0Y1012D02*
X7Y1012D01*
X124Y1012D02*
X131Y1012D01*
X1107Y1012D02*
X1114Y1012D01*
X1896Y1012D02*
X1919Y1012D01*
X1960Y1012D02*
X1967Y1012D01*
X0Y1011D02*
X7Y1011D01*
X124Y1011D02*
X131Y1011D01*
X1107Y1011D02*
X1114Y1011D01*
X1898Y1011D02*
X1919Y1011D01*
X1960Y1011D02*
X1967Y1011D01*
X0Y1010D02*
X7Y1010D01*
X124Y1010D02*
X131Y1010D01*
X1107Y1010D02*
X1114Y1010D01*
X1913Y1010D02*
X1919Y1010D01*
X1960Y1010D02*
X1967Y1010D01*
X0Y1009D02*
X7Y1009D01*
X124Y1009D02*
X131Y1009D01*
X1107Y1009D02*
X1114Y1009D01*
X1913Y1009D02*
X1919Y1009D01*
X1960Y1009D02*
X1967Y1009D01*
X0Y1008D02*
X7Y1008D01*
X124Y1008D02*
X131Y1008D01*
X1107Y1008D02*
X1114Y1008D01*
X1913Y1008D02*
X1919Y1008D01*
X1960Y1008D02*
X1967Y1008D01*
X0Y1007D02*
X7Y1007D01*
X124Y1007D02*
X131Y1007D01*
X1107Y1007D02*
X1114Y1007D01*
X1913Y1007D02*
X1919Y1007D01*
X1960Y1007D02*
X1967Y1007D01*
X0Y1006D02*
X7Y1006D01*
X124Y1006D02*
X131Y1006D01*
X1107Y1006D02*
X1114Y1006D01*
X1913Y1006D02*
X1919Y1006D01*
X1960Y1006D02*
X1967Y1006D01*
X0Y1005D02*
X7Y1005D01*
X124Y1005D02*
X131Y1005D01*
X1107Y1005D02*
X1114Y1005D01*
X1913Y1005D02*
X1919Y1005D01*
X1960Y1005D02*
X1967Y1005D01*
X0Y1004D02*
X7Y1004D01*
X124Y1004D02*
X131Y1004D01*
X1107Y1004D02*
X1114Y1004D01*
X1866Y1004D02*
X1919Y1004D01*
X1960Y1004D02*
X1967Y1004D01*
X0Y1003D02*
X7Y1003D01*
X124Y1003D02*
X131Y1003D01*
X1107Y1003D02*
X1114Y1003D01*
X1866Y1003D02*
X1919Y1003D01*
X1960Y1003D02*
X1967Y1003D01*
X0Y1002D02*
X7Y1002D01*
X124Y1002D02*
X131Y1002D01*
X1107Y1002D02*
X1114Y1002D01*
X1866Y1002D02*
X1919Y1002D01*
X1960Y1002D02*
X1967Y1002D01*
X0Y1001D02*
X7Y1001D01*
X124Y1001D02*
X131Y1001D01*
X1107Y1001D02*
X1114Y1001D01*
X1866Y1001D02*
X1919Y1001D01*
X1960Y1001D02*
X1967Y1001D01*
X0Y1000D02*
X7Y1000D01*
X124Y1000D02*
X131Y1000D01*
X1107Y1000D02*
X1114Y1000D01*
X1866Y1000D02*
X1919Y1000D01*
X1960Y1000D02*
X1967Y1000D01*
X0Y999D02*
X7Y999D01*
X124Y999D02*
X131Y999D01*
X1107Y999D02*
X1114Y999D01*
X1866Y999D02*
X1919Y999D01*
X1960Y999D02*
X1967Y999D01*
X0Y998D02*
X7Y998D01*
X124Y998D02*
X131Y998D01*
X1107Y998D02*
X1114Y998D01*
X1866Y998D02*
X1919Y998D01*
X1960Y998D02*
X1967Y998D01*
X0Y997D02*
X7Y997D01*
X124Y997D02*
X131Y997D01*
X1107Y997D02*
X1114Y997D01*
X1866Y997D02*
X1872Y997D01*
X1913Y997D02*
X1919Y997D01*
X1960Y997D02*
X1967Y997D01*
X0Y996D02*
X7Y996D01*
X124Y996D02*
X131Y996D01*
X1107Y996D02*
X1114Y996D01*
X1866Y996D02*
X1872Y996D01*
X1913Y996D02*
X1919Y996D01*
X1960Y996D02*
X1967Y996D01*
X0Y995D02*
X7Y995D01*
X124Y995D02*
X131Y995D01*
X1107Y995D02*
X1114Y995D01*
X1866Y995D02*
X1872Y995D01*
X1913Y995D02*
X1919Y995D01*
X1960Y995D02*
X1967Y995D01*
X0Y994D02*
X7Y994D01*
X124Y994D02*
X131Y994D01*
X1107Y994D02*
X1114Y994D01*
X1866Y994D02*
X1872Y994D01*
X1913Y994D02*
X1919Y994D01*
X1960Y994D02*
X1967Y994D01*
X0Y993D02*
X7Y993D01*
X124Y993D02*
X131Y993D01*
X1107Y993D02*
X1114Y993D01*
X1866Y993D02*
X1872Y993D01*
X1913Y993D02*
X1919Y993D01*
X1960Y993D02*
X1967Y993D01*
X0Y992D02*
X7Y992D01*
X124Y992D02*
X131Y992D01*
X1107Y992D02*
X1114Y992D01*
X1866Y992D02*
X1872Y992D01*
X1913Y992D02*
X1919Y992D01*
X1960Y992D02*
X1967Y992D01*
X0Y991D02*
X7Y991D01*
X124Y991D02*
X131Y991D01*
X1107Y991D02*
X1114Y991D01*
X1866Y991D02*
X1872Y991D01*
X1913Y991D02*
X1919Y991D01*
X1960Y991D02*
X1967Y991D01*
X0Y990D02*
X7Y990D01*
X124Y990D02*
X131Y990D01*
X1107Y990D02*
X1114Y990D01*
X1866Y990D02*
X1872Y990D01*
X1913Y990D02*
X1919Y990D01*
X1960Y990D02*
X1967Y990D01*
X0Y989D02*
X7Y989D01*
X124Y989D02*
X131Y989D01*
X1107Y989D02*
X1114Y989D01*
X1866Y989D02*
X1872Y989D01*
X1913Y989D02*
X1919Y989D01*
X1960Y989D02*
X1967Y989D01*
X0Y988D02*
X7Y988D01*
X124Y988D02*
X131Y988D01*
X1107Y988D02*
X1114Y988D01*
X1866Y988D02*
X1872Y988D01*
X1913Y988D02*
X1919Y988D01*
X1960Y988D02*
X1967Y988D01*
X0Y987D02*
X7Y987D01*
X124Y987D02*
X131Y987D01*
X1107Y987D02*
X1114Y987D01*
X1866Y987D02*
X1872Y987D01*
X1913Y987D02*
X1919Y987D01*
X1960Y987D02*
X1967Y987D01*
X0Y986D02*
X7Y986D01*
X124Y986D02*
X131Y986D01*
X1107Y986D02*
X1114Y986D01*
X1866Y986D02*
X1872Y986D01*
X1913Y986D02*
X1919Y986D01*
X1960Y986D02*
X1967Y986D01*
X0Y985D02*
X7Y985D01*
X124Y985D02*
X131Y985D01*
X1107Y985D02*
X1114Y985D01*
X1867Y985D02*
X1871Y985D01*
X1914Y985D02*
X1919Y985D01*
X1960Y985D02*
X1967Y985D01*
X0Y984D02*
X7Y984D01*
X124Y984D02*
X131Y984D01*
X1107Y984D02*
X1114Y984D01*
X1868Y984D02*
X1870Y984D01*
X1915Y984D02*
X1918Y984D01*
X1960Y984D02*
X1967Y984D01*
X0Y983D02*
X7Y983D01*
X124Y983D02*
X131Y983D01*
X1107Y983D02*
X1114Y983D01*
X1960Y983D02*
X1967Y983D01*
X0Y982D02*
X7Y982D01*
X124Y982D02*
X131Y982D01*
X1107Y982D02*
X1114Y982D01*
X1960Y982D02*
X1967Y982D01*
X0Y981D02*
X7Y981D01*
X124Y981D02*
X131Y981D01*
X1107Y981D02*
X1114Y981D01*
X1960Y981D02*
X1967Y981D01*
X0Y980D02*
X7Y980D01*
X124Y980D02*
X131Y980D01*
X1107Y980D02*
X1114Y980D01*
X1960Y980D02*
X1967Y980D01*
X0Y979D02*
X7Y979D01*
X124Y979D02*
X131Y979D01*
X1107Y979D02*
X1115Y979D01*
X1960Y979D02*
X1967Y979D01*
X0Y978D02*
X7Y978D01*
X124Y978D02*
X131Y978D01*
X1107Y978D02*
X1116Y978D01*
X1960Y978D02*
X1967Y978D01*
X0Y977D02*
X7Y977D01*
X124Y977D02*
X131Y977D01*
X1107Y977D02*
X1117Y977D01*
X1960Y977D02*
X1967Y977D01*
X0Y976D02*
X7Y976D01*
X124Y976D02*
X131Y976D01*
X1107Y976D02*
X1118Y976D01*
X1960Y976D02*
X1967Y976D01*
X0Y975D02*
X7Y975D01*
X124Y975D02*
X131Y975D01*
X1108Y975D02*
X1119Y975D01*
X1960Y975D02*
X1967Y975D01*
X0Y974D02*
X7Y974D01*
X124Y974D02*
X131Y974D01*
X1109Y974D02*
X1120Y974D01*
X1960Y974D02*
X1967Y974D01*
X0Y973D02*
X7Y973D01*
X124Y973D02*
X131Y973D01*
X1110Y973D02*
X1121Y973D01*
X1960Y973D02*
X1967Y973D01*
X0Y972D02*
X7Y972D01*
X124Y972D02*
X131Y972D01*
X1111Y972D02*
X1122Y972D01*
X1960Y972D02*
X1967Y972D01*
X0Y971D02*
X7Y971D01*
X124Y971D02*
X131Y971D01*
X1112Y971D02*
X1123Y971D01*
X1960Y971D02*
X1967Y971D01*
X0Y970D02*
X7Y970D01*
X124Y970D02*
X131Y970D01*
X1113Y970D02*
X1124Y970D01*
X1960Y970D02*
X1967Y970D01*
X0Y969D02*
X7Y969D01*
X124Y969D02*
X131Y969D01*
X1114Y969D02*
X1125Y969D01*
X1960Y969D02*
X1967Y969D01*
X0Y968D02*
X7Y968D01*
X124Y968D02*
X131Y968D01*
X1115Y968D02*
X1126Y968D01*
X1960Y968D02*
X1967Y968D01*
X0Y967D02*
X7Y967D01*
X124Y967D02*
X131Y967D01*
X1116Y967D02*
X1127Y967D01*
X1870Y967D02*
X1915Y967D01*
X1960Y967D02*
X1967Y967D01*
X0Y966D02*
X7Y966D01*
X124Y966D02*
X131Y966D01*
X1117Y966D02*
X1128Y966D01*
X1869Y966D02*
X1917Y966D01*
X1960Y966D02*
X1967Y966D01*
X0Y965D02*
X7Y965D01*
X124Y965D02*
X131Y965D01*
X1118Y965D02*
X1129Y965D01*
X1868Y965D02*
X1918Y965D01*
X1960Y965D02*
X1967Y965D01*
X0Y964D02*
X7Y964D01*
X124Y964D02*
X131Y964D01*
X1119Y964D02*
X1130Y964D01*
X1867Y964D02*
X1918Y964D01*
X1960Y964D02*
X1967Y964D01*
X0Y963D02*
X7Y963D01*
X124Y963D02*
X131Y963D01*
X1120Y963D02*
X1131Y963D01*
X1866Y963D02*
X1919Y963D01*
X1960Y963D02*
X1967Y963D01*
X0Y962D02*
X7Y962D01*
X124Y962D02*
X131Y962D01*
X1121Y962D02*
X1132Y962D01*
X1866Y962D02*
X1919Y962D01*
X1960Y962D02*
X1967Y962D01*
X0Y961D02*
X7Y961D01*
X124Y961D02*
X131Y961D01*
X1122Y961D02*
X1133Y961D01*
X1866Y961D02*
X1919Y961D01*
X1960Y961D02*
X1967Y961D01*
X0Y960D02*
X7Y960D01*
X124Y960D02*
X131Y960D01*
X1123Y960D02*
X1134Y960D01*
X1866Y960D02*
X1872Y960D01*
X1913Y960D02*
X1919Y960D01*
X1960Y960D02*
X1967Y960D01*
X0Y959D02*
X7Y959D01*
X124Y959D02*
X131Y959D01*
X1124Y959D02*
X1135Y959D01*
X1866Y959D02*
X1872Y959D01*
X1913Y959D02*
X1919Y959D01*
X1960Y959D02*
X1967Y959D01*
X0Y958D02*
X7Y958D01*
X124Y958D02*
X131Y958D01*
X1125Y958D02*
X1136Y958D01*
X1866Y958D02*
X1872Y958D01*
X1913Y958D02*
X1919Y958D01*
X1960Y958D02*
X1967Y958D01*
X0Y957D02*
X7Y957D01*
X124Y957D02*
X131Y957D01*
X1126Y957D02*
X1137Y957D01*
X1866Y957D02*
X1872Y957D01*
X1913Y957D02*
X1919Y957D01*
X1960Y957D02*
X1967Y957D01*
X0Y956D02*
X7Y956D01*
X124Y956D02*
X131Y956D01*
X1127Y956D02*
X1138Y956D01*
X1866Y956D02*
X1872Y956D01*
X1913Y956D02*
X1919Y956D01*
X1960Y956D02*
X1967Y956D01*
X0Y955D02*
X7Y955D01*
X124Y955D02*
X131Y955D01*
X1128Y955D02*
X1139Y955D01*
X1866Y955D02*
X1872Y955D01*
X1913Y955D02*
X1919Y955D01*
X1960Y955D02*
X1967Y955D01*
X0Y954D02*
X7Y954D01*
X124Y954D02*
X131Y954D01*
X1129Y954D02*
X1140Y954D01*
X1866Y954D02*
X1872Y954D01*
X1913Y954D02*
X1919Y954D01*
X1960Y954D02*
X1967Y954D01*
X0Y953D02*
X7Y953D01*
X124Y953D02*
X131Y953D01*
X1130Y953D02*
X1141Y953D01*
X1866Y953D02*
X1872Y953D01*
X1913Y953D02*
X1919Y953D01*
X1960Y953D02*
X1967Y953D01*
X0Y952D02*
X7Y952D01*
X124Y952D02*
X131Y952D01*
X1131Y952D02*
X1142Y952D01*
X1866Y952D02*
X1872Y952D01*
X1913Y952D02*
X1919Y952D01*
X1960Y952D02*
X1967Y952D01*
X0Y951D02*
X7Y951D01*
X124Y951D02*
X131Y951D01*
X1132Y951D02*
X1143Y951D01*
X1866Y951D02*
X1872Y951D01*
X1913Y951D02*
X1919Y951D01*
X1960Y951D02*
X1967Y951D01*
X0Y950D02*
X7Y950D01*
X124Y950D02*
X131Y950D01*
X1133Y950D02*
X1144Y950D01*
X1866Y950D02*
X1872Y950D01*
X1913Y950D02*
X1919Y950D01*
X1960Y950D02*
X1967Y950D01*
X0Y949D02*
X7Y949D01*
X124Y949D02*
X131Y949D01*
X1134Y949D02*
X1145Y949D01*
X1866Y949D02*
X1872Y949D01*
X1913Y949D02*
X1919Y949D01*
X1960Y949D02*
X1967Y949D01*
X0Y948D02*
X7Y948D01*
X124Y948D02*
X132Y948D01*
X1135Y948D02*
X1146Y948D01*
X1866Y948D02*
X1872Y948D01*
X1913Y948D02*
X1919Y948D01*
X1960Y948D02*
X1967Y948D01*
X0Y947D02*
X7Y947D01*
X124Y947D02*
X133Y947D01*
X1136Y947D02*
X1147Y947D01*
X1866Y947D02*
X1872Y947D01*
X1913Y947D02*
X1919Y947D01*
X1960Y947D02*
X1967Y947D01*
X0Y946D02*
X7Y946D01*
X124Y946D02*
X134Y946D01*
X1137Y946D02*
X1148Y946D01*
X1866Y946D02*
X1872Y946D01*
X1913Y946D02*
X1919Y946D01*
X1960Y946D02*
X1967Y946D01*
X0Y945D02*
X7Y945D01*
X124Y945D02*
X136Y945D01*
X1138Y945D02*
X1149Y945D01*
X1866Y945D02*
X1872Y945D01*
X1913Y945D02*
X1919Y945D01*
X1960Y945D02*
X1967Y945D01*
X0Y944D02*
X7Y944D01*
X124Y944D02*
X138Y944D01*
X1139Y944D02*
X1150Y944D01*
X1866Y944D02*
X1872Y944D01*
X1913Y944D02*
X1919Y944D01*
X1960Y944D02*
X1967Y944D01*
X0Y943D02*
X7Y943D01*
X125Y943D02*
X139Y943D01*
X1140Y943D02*
X1151Y943D01*
X1866Y943D02*
X1872Y943D01*
X1913Y943D02*
X1919Y943D01*
X1960Y943D02*
X1967Y943D01*
X0Y942D02*
X7Y942D01*
X127Y942D02*
X141Y942D01*
X1142Y942D02*
X1152Y942D01*
X1866Y942D02*
X1872Y942D01*
X1913Y942D02*
X1919Y942D01*
X1960Y942D02*
X1967Y942D01*
X0Y941D02*
X7Y941D01*
X128Y941D02*
X142Y941D01*
X1143Y941D02*
X1153Y941D01*
X1866Y941D02*
X1872Y941D01*
X1913Y941D02*
X1919Y941D01*
X1960Y941D02*
X1967Y941D01*
X0Y940D02*
X7Y940D01*
X130Y940D02*
X142Y940D01*
X1144Y940D02*
X1154Y940D01*
X1866Y940D02*
X1919Y940D01*
X1960Y940D02*
X1967Y940D01*
X0Y939D02*
X7Y939D01*
X132Y939D02*
X142Y939D01*
X1145Y939D02*
X1155Y939D01*
X1866Y939D02*
X1919Y939D01*
X1960Y939D02*
X1967Y939D01*
X0Y938D02*
X7Y938D01*
X133Y938D02*
X142Y938D01*
X1146Y938D02*
X1156Y938D01*
X1866Y938D02*
X1919Y938D01*
X1960Y938D02*
X1967Y938D01*
X0Y937D02*
X7Y937D01*
X135Y937D02*
X142Y937D01*
X1147Y937D02*
X1157Y937D01*
X1867Y937D02*
X1918Y937D01*
X1960Y937D02*
X1967Y937D01*
X0Y936D02*
X7Y936D01*
X135Y936D02*
X142Y936D01*
X1148Y936D02*
X1158Y936D01*
X1867Y936D02*
X1918Y936D01*
X1960Y936D02*
X1967Y936D01*
X0Y935D02*
X7Y935D01*
X135Y935D02*
X142Y935D01*
X1149Y935D02*
X1159Y935D01*
X1868Y935D02*
X1917Y935D01*
X1960Y935D02*
X1967Y935D01*
X0Y934D02*
X7Y934D01*
X135Y934D02*
X142Y934D01*
X1150Y934D02*
X1160Y934D01*
X1870Y934D02*
X1915Y934D01*
X1960Y934D02*
X1967Y934D01*
X0Y933D02*
X7Y933D01*
X135Y933D02*
X142Y933D01*
X1151Y933D02*
X1161Y933D01*
X1960Y933D02*
X1967Y933D01*
X0Y932D02*
X7Y932D01*
X135Y932D02*
X142Y932D01*
X1152Y932D02*
X1162Y932D01*
X1960Y932D02*
X1967Y932D01*
X0Y931D02*
X7Y931D01*
X135Y931D02*
X142Y931D01*
X1153Y931D02*
X1163Y931D01*
X1960Y931D02*
X1967Y931D01*
X0Y930D02*
X7Y930D01*
X135Y930D02*
X142Y930D01*
X290Y930D02*
X298Y930D01*
X1154Y930D02*
X1164Y930D01*
X1960Y930D02*
X1967Y930D01*
X0Y929D02*
X7Y929D01*
X135Y929D02*
X142Y929D01*
X288Y929D02*
X300Y929D01*
X1155Y929D02*
X1165Y929D01*
X1960Y929D02*
X1967Y929D01*
X0Y928D02*
X7Y928D01*
X135Y928D02*
X142Y928D01*
X286Y928D02*
X302Y928D01*
X1156Y928D02*
X1166Y928D01*
X1960Y928D02*
X1967Y928D01*
X0Y927D02*
X7Y927D01*
X135Y927D02*
X142Y927D01*
X285Y927D02*
X303Y927D01*
X1157Y927D02*
X1167Y927D01*
X1960Y927D02*
X1967Y927D01*
X0Y926D02*
X7Y926D01*
X135Y926D02*
X142Y926D01*
X284Y926D02*
X304Y926D01*
X1158Y926D02*
X1168Y926D01*
X1960Y926D02*
X1967Y926D01*
X0Y925D02*
X7Y925D01*
X135Y925D02*
X142Y925D01*
X283Y925D02*
X305Y925D01*
X1159Y925D02*
X1169Y925D01*
X1960Y925D02*
X1967Y925D01*
X0Y924D02*
X7Y924D01*
X135Y924D02*
X142Y924D01*
X283Y924D02*
X305Y924D01*
X1160Y924D02*
X1170Y924D01*
X1960Y924D02*
X1967Y924D01*
X0Y923D02*
X7Y923D01*
X135Y923D02*
X142Y923D01*
X282Y923D02*
X306Y923D01*
X1161Y923D02*
X1171Y923D01*
X1960Y923D02*
X1967Y923D01*
X0Y922D02*
X7Y922D01*
X135Y922D02*
X142Y922D01*
X282Y922D02*
X290Y922D01*
X297Y922D02*
X306Y922D01*
X1162Y922D02*
X1172Y922D01*
X1960Y922D02*
X1967Y922D01*
X0Y921D02*
X7Y921D01*
X135Y921D02*
X142Y921D01*
X281Y921D02*
X289Y921D01*
X298Y921D02*
X306Y921D01*
X1163Y921D02*
X1173Y921D01*
X1960Y921D02*
X1967Y921D01*
X0Y920D02*
X7Y920D01*
X135Y920D02*
X142Y920D01*
X281Y920D02*
X288Y920D01*
X299Y920D02*
X307Y920D01*
X1164Y920D02*
X1173Y920D01*
X1960Y920D02*
X1967Y920D01*
X0Y919D02*
X7Y919D01*
X135Y919D02*
X142Y919D01*
X281Y919D02*
X288Y919D01*
X300Y919D02*
X307Y919D01*
X1165Y919D02*
X1173Y919D01*
X1960Y919D02*
X1967Y919D01*
X0Y918D02*
X7Y918D01*
X135Y918D02*
X142Y918D01*
X281Y918D02*
X288Y918D01*
X300Y918D02*
X307Y918D01*
X1166Y918D02*
X1173Y918D01*
X1960Y918D02*
X1967Y918D01*
X0Y917D02*
X7Y917D01*
X135Y917D02*
X142Y917D01*
X281Y917D02*
X288Y917D01*
X300Y917D02*
X307Y917D01*
X1166Y917D02*
X1173Y917D01*
X1876Y917D02*
X1885Y917D01*
X1900Y917D02*
X1909Y917D01*
X1960Y917D02*
X1967Y917D01*
X0Y916D02*
X7Y916D01*
X135Y916D02*
X142Y916D01*
X281Y916D02*
X288Y916D01*
X300Y916D02*
X307Y916D01*
X1166Y916D02*
X1173Y916D01*
X1874Y916D02*
X1888Y916D01*
X1897Y916D02*
X1911Y916D01*
X1960Y916D02*
X1967Y916D01*
X0Y915D02*
X7Y915D01*
X135Y915D02*
X142Y915D01*
X281Y915D02*
X288Y915D01*
X300Y915D02*
X307Y915D01*
X1166Y915D02*
X1173Y915D01*
X1872Y915D02*
X1889Y915D01*
X1896Y915D02*
X1913Y915D01*
X1960Y915D02*
X1967Y915D01*
X0Y914D02*
X7Y914D01*
X135Y914D02*
X142Y914D01*
X281Y914D02*
X289Y914D01*
X299Y914D02*
X307Y914D01*
X1166Y914D02*
X1173Y914D01*
X1871Y914D02*
X1891Y914D01*
X1894Y914D02*
X1914Y914D01*
X1960Y914D02*
X1967Y914D01*
X0Y913D02*
X7Y913D01*
X135Y913D02*
X142Y913D01*
X281Y913D02*
X289Y913D01*
X298Y913D02*
X306Y913D01*
X1166Y913D02*
X1173Y913D01*
X1870Y913D02*
X1915Y913D01*
X1960Y913D02*
X1967Y913D01*
X0Y912D02*
X7Y912D01*
X135Y912D02*
X142Y912D01*
X282Y912D02*
X291Y912D01*
X297Y912D02*
X306Y912D01*
X1166Y912D02*
X1173Y912D01*
X1869Y912D02*
X1916Y912D01*
X1960Y912D02*
X1967Y912D01*
X0Y911D02*
X7Y911D01*
X135Y911D02*
X142Y911D01*
X282Y911D02*
X306Y911D01*
X1166Y911D02*
X1173Y911D01*
X1868Y911D02*
X1917Y911D01*
X1960Y911D02*
X1967Y911D01*
X0Y910D02*
X7Y910D01*
X135Y910D02*
X142Y910D01*
X283Y910D02*
X305Y910D01*
X1166Y910D02*
X1173Y910D01*
X1868Y910D02*
X1876Y910D01*
X1885Y910D02*
X1900Y910D01*
X1909Y910D02*
X1917Y910D01*
X1960Y910D02*
X1967Y910D01*
X0Y909D02*
X7Y909D01*
X135Y909D02*
X142Y909D01*
X283Y909D02*
X304Y909D01*
X1166Y909D02*
X1173Y909D01*
X1867Y909D02*
X1875Y909D01*
X1887Y909D02*
X1898Y909D01*
X1910Y909D02*
X1918Y909D01*
X1960Y909D02*
X1967Y909D01*
X0Y908D02*
X7Y908D01*
X135Y908D02*
X142Y908D01*
X284Y908D02*
X304Y908D01*
X1166Y908D02*
X1173Y908D01*
X1867Y908D02*
X1874Y908D01*
X1888Y908D02*
X1897Y908D01*
X1911Y908D02*
X1918Y908D01*
X1960Y908D02*
X1967Y908D01*
X0Y907D02*
X7Y907D01*
X135Y907D02*
X142Y907D01*
X285Y907D02*
X303Y907D01*
X1166Y907D02*
X1173Y907D01*
X1866Y907D02*
X1873Y907D01*
X1889Y907D02*
X1897Y907D01*
X1912Y907D02*
X1919Y907D01*
X1960Y907D02*
X1967Y907D01*
X0Y906D02*
X7Y906D01*
X135Y906D02*
X142Y906D01*
X286Y906D02*
X301Y906D01*
X1166Y906D02*
X1173Y906D01*
X1866Y906D02*
X1872Y906D01*
X1889Y906D02*
X1896Y906D01*
X1913Y906D02*
X1919Y906D01*
X1960Y906D02*
X1967Y906D01*
X0Y905D02*
X7Y905D01*
X135Y905D02*
X142Y905D01*
X288Y905D02*
X300Y905D01*
X1166Y905D02*
X1173Y905D01*
X1866Y905D02*
X1872Y905D01*
X1889Y905D02*
X1896Y905D01*
X1913Y905D02*
X1919Y905D01*
X1960Y905D02*
X1967Y905D01*
X0Y904D02*
X7Y904D01*
X135Y904D02*
X142Y904D01*
X290Y904D02*
X297Y904D01*
X1166Y904D02*
X1173Y904D01*
X1866Y904D02*
X1872Y904D01*
X1889Y904D02*
X1896Y904D01*
X1913Y904D02*
X1919Y904D01*
X1960Y904D02*
X1967Y904D01*
X0Y903D02*
X7Y903D01*
X135Y903D02*
X142Y903D01*
X1166Y903D02*
X1173Y903D01*
X1866Y903D02*
X1872Y903D01*
X1890Y903D02*
X1896Y903D01*
X1913Y903D02*
X1919Y903D01*
X1960Y903D02*
X1967Y903D01*
X0Y902D02*
X7Y902D01*
X135Y902D02*
X142Y902D01*
X1166Y902D02*
X1173Y902D01*
X1866Y902D02*
X1872Y902D01*
X1890Y902D02*
X1896Y902D01*
X1913Y902D02*
X1919Y902D01*
X1960Y902D02*
X1967Y902D01*
X0Y901D02*
X7Y901D01*
X135Y901D02*
X142Y901D01*
X1166Y901D02*
X1173Y901D01*
X1866Y901D02*
X1872Y901D01*
X1890Y901D02*
X1896Y901D01*
X1913Y901D02*
X1919Y901D01*
X1960Y901D02*
X1967Y901D01*
X0Y900D02*
X7Y900D01*
X135Y900D02*
X142Y900D01*
X1166Y900D02*
X1173Y900D01*
X1866Y900D02*
X1872Y900D01*
X1890Y900D02*
X1896Y900D01*
X1913Y900D02*
X1919Y900D01*
X1960Y900D02*
X1967Y900D01*
X0Y899D02*
X7Y899D01*
X135Y899D02*
X142Y899D01*
X1166Y899D02*
X1173Y899D01*
X1866Y899D02*
X1872Y899D01*
X1890Y899D02*
X1896Y899D01*
X1913Y899D02*
X1919Y899D01*
X1960Y899D02*
X1967Y899D01*
X0Y898D02*
X7Y898D01*
X135Y898D02*
X142Y898D01*
X1166Y898D02*
X1173Y898D01*
X1866Y898D02*
X1872Y898D01*
X1890Y898D02*
X1896Y898D01*
X1913Y898D02*
X1919Y898D01*
X1960Y898D02*
X1967Y898D01*
X0Y897D02*
X7Y897D01*
X135Y897D02*
X142Y897D01*
X1166Y897D02*
X1173Y897D01*
X1866Y897D02*
X1872Y897D01*
X1890Y897D02*
X1896Y897D01*
X1913Y897D02*
X1919Y897D01*
X1960Y897D02*
X1967Y897D01*
X0Y896D02*
X7Y896D01*
X135Y896D02*
X142Y896D01*
X1166Y896D02*
X1173Y896D01*
X1866Y896D02*
X1872Y896D01*
X1890Y896D02*
X1896Y896D01*
X1913Y896D02*
X1919Y896D01*
X1960Y896D02*
X1967Y896D01*
X0Y895D02*
X7Y895D01*
X135Y895D02*
X142Y895D01*
X1166Y895D02*
X1173Y895D01*
X1866Y895D02*
X1872Y895D01*
X1890Y895D02*
X1896Y895D01*
X1913Y895D02*
X1919Y895D01*
X1960Y895D02*
X1967Y895D01*
X0Y894D02*
X7Y894D01*
X135Y894D02*
X142Y894D01*
X1166Y894D02*
X1173Y894D01*
X1866Y894D02*
X1872Y894D01*
X1890Y894D02*
X1896Y894D01*
X1913Y894D02*
X1919Y894D01*
X1960Y894D02*
X1967Y894D01*
X0Y893D02*
X7Y893D01*
X135Y893D02*
X142Y893D01*
X1166Y893D02*
X1173Y893D01*
X1866Y893D02*
X1872Y893D01*
X1890Y893D02*
X1896Y893D01*
X1913Y893D02*
X1919Y893D01*
X1960Y893D02*
X1967Y893D01*
X0Y892D02*
X7Y892D01*
X135Y892D02*
X142Y892D01*
X1166Y892D02*
X1173Y892D01*
X1866Y892D02*
X1872Y892D01*
X1890Y892D02*
X1896Y892D01*
X1913Y892D02*
X1919Y892D01*
X1960Y892D02*
X1967Y892D01*
X0Y891D02*
X7Y891D01*
X135Y891D02*
X142Y891D01*
X1166Y891D02*
X1173Y891D01*
X1866Y891D02*
X1872Y891D01*
X1890Y891D02*
X1896Y891D01*
X1913Y891D02*
X1919Y891D01*
X1960Y891D02*
X1967Y891D01*
X0Y890D02*
X7Y890D01*
X135Y890D02*
X142Y890D01*
X1166Y890D02*
X1173Y890D01*
X1866Y890D02*
X1919Y890D01*
X1960Y890D02*
X1967Y890D01*
X0Y889D02*
X7Y889D01*
X135Y889D02*
X142Y889D01*
X1166Y889D02*
X1173Y889D01*
X1866Y889D02*
X1919Y889D01*
X1960Y889D02*
X1967Y889D01*
X0Y888D02*
X7Y888D01*
X135Y888D02*
X142Y888D01*
X1166Y888D02*
X1173Y888D01*
X1866Y888D02*
X1919Y888D01*
X1960Y888D02*
X1967Y888D01*
X0Y887D02*
X7Y887D01*
X135Y887D02*
X142Y887D01*
X1166Y887D02*
X1173Y887D01*
X1866Y887D02*
X1919Y887D01*
X1960Y887D02*
X1967Y887D01*
X0Y886D02*
X7Y886D01*
X135Y886D02*
X142Y886D01*
X1166Y886D02*
X1173Y886D01*
X1866Y886D02*
X1919Y886D01*
X1960Y886D02*
X1967Y886D01*
X0Y885D02*
X7Y885D01*
X135Y885D02*
X142Y885D01*
X1166Y885D02*
X1173Y885D01*
X1866Y885D02*
X1919Y885D01*
X1960Y885D02*
X1967Y885D01*
X0Y884D02*
X7Y884D01*
X135Y884D02*
X142Y884D01*
X1166Y884D02*
X1173Y884D01*
X1866Y884D02*
X1919Y884D01*
X1960Y884D02*
X1967Y884D01*
X0Y883D02*
X7Y883D01*
X135Y883D02*
X142Y883D01*
X1166Y883D02*
X1173Y883D01*
X1866Y883D02*
X1919Y883D01*
X1960Y883D02*
X1967Y883D01*
X0Y882D02*
X7Y882D01*
X135Y882D02*
X142Y882D01*
X1166Y882D02*
X1173Y882D01*
X1960Y882D02*
X1967Y882D01*
X0Y881D02*
X7Y881D01*
X135Y881D02*
X142Y881D01*
X1166Y881D02*
X1173Y881D01*
X1960Y881D02*
X1967Y881D01*
X0Y880D02*
X7Y880D01*
X135Y880D02*
X142Y880D01*
X1166Y880D02*
X1173Y880D01*
X1960Y880D02*
X1967Y880D01*
X0Y879D02*
X7Y879D01*
X135Y879D02*
X142Y879D01*
X1166Y879D02*
X1173Y879D01*
X1960Y879D02*
X1967Y879D01*
X0Y878D02*
X7Y878D01*
X135Y878D02*
X142Y878D01*
X1166Y878D02*
X1173Y878D01*
X1960Y878D02*
X1967Y878D01*
X0Y877D02*
X7Y877D01*
X135Y877D02*
X142Y877D01*
X1166Y877D02*
X1173Y877D01*
X1960Y877D02*
X1967Y877D01*
X0Y876D02*
X7Y876D01*
X135Y876D02*
X142Y876D01*
X1166Y876D02*
X1173Y876D01*
X1960Y876D02*
X1967Y876D01*
X0Y875D02*
X7Y875D01*
X135Y875D02*
X142Y875D01*
X1166Y875D02*
X1173Y875D01*
X1960Y875D02*
X1967Y875D01*
X0Y874D02*
X7Y874D01*
X135Y874D02*
X142Y874D01*
X1166Y874D02*
X1173Y874D01*
X1960Y874D02*
X1967Y874D01*
X0Y873D02*
X7Y873D01*
X135Y873D02*
X142Y873D01*
X1166Y873D02*
X1173Y873D01*
X1960Y873D02*
X1967Y873D01*
X0Y872D02*
X7Y872D01*
X135Y872D02*
X142Y872D01*
X1166Y872D02*
X1173Y872D01*
X1960Y872D02*
X1967Y872D01*
X0Y871D02*
X7Y871D01*
X135Y871D02*
X142Y871D01*
X1166Y871D02*
X1173Y871D01*
X1960Y871D02*
X1967Y871D01*
X0Y870D02*
X7Y870D01*
X135Y870D02*
X142Y870D01*
X1166Y870D02*
X1173Y870D01*
X1960Y870D02*
X1967Y870D01*
X0Y869D02*
X7Y869D01*
X135Y869D02*
X142Y869D01*
X1166Y869D02*
X1173Y869D01*
X1960Y869D02*
X1967Y869D01*
X0Y868D02*
X7Y868D01*
X135Y868D02*
X142Y868D01*
X1166Y868D02*
X1173Y868D01*
X1960Y868D02*
X1967Y868D01*
X0Y867D02*
X7Y867D01*
X135Y867D02*
X142Y867D01*
X1166Y867D02*
X1173Y867D01*
X1877Y867D02*
X1885Y867D01*
X1900Y867D02*
X1908Y867D01*
X1960Y867D02*
X1967Y867D01*
X0Y866D02*
X7Y866D01*
X135Y866D02*
X142Y866D01*
X1166Y866D02*
X1173Y866D01*
X1874Y866D02*
X1888Y866D01*
X1898Y866D02*
X1911Y866D01*
X1960Y866D02*
X1967Y866D01*
X0Y865D02*
X7Y865D01*
X135Y865D02*
X142Y865D01*
X1166Y865D02*
X1173Y865D01*
X1872Y865D02*
X1889Y865D01*
X1896Y865D02*
X1913Y865D01*
X1960Y865D02*
X1967Y865D01*
X0Y864D02*
X7Y864D01*
X135Y864D02*
X142Y864D01*
X1166Y864D02*
X1173Y864D01*
X1871Y864D02*
X1890Y864D01*
X1895Y864D02*
X1914Y864D01*
X1960Y864D02*
X1967Y864D01*
X0Y863D02*
X7Y863D01*
X135Y863D02*
X142Y863D01*
X1166Y863D02*
X1173Y863D01*
X1870Y863D02*
X1892Y863D01*
X1894Y863D02*
X1915Y863D01*
X1960Y863D02*
X1967Y863D01*
X0Y862D02*
X7Y862D01*
X135Y862D02*
X142Y862D01*
X1166Y862D02*
X1173Y862D01*
X1869Y862D02*
X1916Y862D01*
X1960Y862D02*
X1967Y862D01*
X0Y861D02*
X7Y861D01*
X135Y861D02*
X142Y861D01*
X1166Y861D02*
X1173Y861D01*
X1868Y861D02*
X1917Y861D01*
X1960Y861D02*
X1967Y861D01*
X0Y860D02*
X7Y860D01*
X135Y860D02*
X142Y860D01*
X1166Y860D02*
X1173Y860D01*
X1868Y860D02*
X1877Y860D01*
X1885Y860D02*
X1900Y860D01*
X1908Y860D02*
X1917Y860D01*
X1960Y860D02*
X1967Y860D01*
X0Y859D02*
X7Y859D01*
X135Y859D02*
X142Y859D01*
X1166Y859D02*
X1173Y859D01*
X1867Y859D02*
X1875Y859D01*
X1887Y859D02*
X1898Y859D01*
X1910Y859D02*
X1918Y859D01*
X1960Y859D02*
X1967Y859D01*
X0Y858D02*
X7Y858D01*
X135Y858D02*
X142Y858D01*
X1166Y858D02*
X1173Y858D01*
X1867Y858D02*
X1874Y858D01*
X1888Y858D02*
X1897Y858D01*
X1911Y858D02*
X1918Y858D01*
X1960Y858D02*
X1967Y858D01*
X0Y857D02*
X7Y857D01*
X135Y857D02*
X142Y857D01*
X1166Y857D02*
X1173Y857D01*
X1867Y857D02*
X1873Y857D01*
X1888Y857D02*
X1897Y857D01*
X1912Y857D02*
X1919Y857D01*
X1960Y857D02*
X1967Y857D01*
X0Y856D02*
X7Y856D01*
X135Y856D02*
X142Y856D01*
X1166Y856D02*
X1173Y856D01*
X1866Y856D02*
X1873Y856D01*
X1889Y856D02*
X1896Y856D01*
X1913Y856D02*
X1919Y856D01*
X1960Y856D02*
X1967Y856D01*
X0Y855D02*
X7Y855D01*
X135Y855D02*
X142Y855D01*
X1166Y855D02*
X1173Y855D01*
X1866Y855D02*
X1872Y855D01*
X1889Y855D02*
X1896Y855D01*
X1913Y855D02*
X1919Y855D01*
X1960Y855D02*
X1967Y855D01*
X0Y854D02*
X7Y854D01*
X135Y854D02*
X142Y854D01*
X1166Y854D02*
X1173Y854D01*
X1866Y854D02*
X1872Y854D01*
X1889Y854D02*
X1896Y854D01*
X1913Y854D02*
X1919Y854D01*
X1960Y854D02*
X1967Y854D01*
X0Y853D02*
X7Y853D01*
X135Y853D02*
X142Y853D01*
X1166Y853D02*
X1173Y853D01*
X1866Y853D02*
X1872Y853D01*
X1890Y853D02*
X1896Y853D01*
X1913Y853D02*
X1919Y853D01*
X1960Y853D02*
X1967Y853D01*
X0Y852D02*
X7Y852D01*
X135Y852D02*
X142Y852D01*
X1166Y852D02*
X1173Y852D01*
X1866Y852D02*
X1872Y852D01*
X1890Y852D02*
X1896Y852D01*
X1913Y852D02*
X1919Y852D01*
X1960Y852D02*
X1967Y852D01*
X0Y851D02*
X7Y851D01*
X135Y851D02*
X142Y851D01*
X1166Y851D02*
X1173Y851D01*
X1866Y851D02*
X1872Y851D01*
X1890Y851D02*
X1896Y851D01*
X1913Y851D02*
X1919Y851D01*
X1960Y851D02*
X1967Y851D01*
X0Y850D02*
X7Y850D01*
X135Y850D02*
X142Y850D01*
X1166Y850D02*
X1173Y850D01*
X1866Y850D02*
X1872Y850D01*
X1890Y850D02*
X1896Y850D01*
X1913Y850D02*
X1919Y850D01*
X1960Y850D02*
X1967Y850D01*
X0Y849D02*
X7Y849D01*
X135Y849D02*
X142Y849D01*
X1166Y849D02*
X1173Y849D01*
X1866Y849D02*
X1872Y849D01*
X1890Y849D02*
X1896Y849D01*
X1913Y849D02*
X1919Y849D01*
X1960Y849D02*
X1967Y849D01*
X0Y848D02*
X7Y848D01*
X135Y848D02*
X142Y848D01*
X1166Y848D02*
X1173Y848D01*
X1866Y848D02*
X1872Y848D01*
X1890Y848D02*
X1896Y848D01*
X1913Y848D02*
X1919Y848D01*
X1960Y848D02*
X1967Y848D01*
X0Y847D02*
X7Y847D01*
X135Y847D02*
X142Y847D01*
X1166Y847D02*
X1173Y847D01*
X1866Y847D02*
X1872Y847D01*
X1890Y847D02*
X1896Y847D01*
X1913Y847D02*
X1919Y847D01*
X1960Y847D02*
X1967Y847D01*
X0Y846D02*
X7Y846D01*
X135Y846D02*
X142Y846D01*
X1166Y846D02*
X1173Y846D01*
X1866Y846D02*
X1872Y846D01*
X1890Y846D02*
X1896Y846D01*
X1913Y846D02*
X1919Y846D01*
X1960Y846D02*
X1967Y846D01*
X0Y845D02*
X7Y845D01*
X135Y845D02*
X142Y845D01*
X1166Y845D02*
X1173Y845D01*
X1866Y845D02*
X1872Y845D01*
X1890Y845D02*
X1896Y845D01*
X1913Y845D02*
X1919Y845D01*
X1960Y845D02*
X1967Y845D01*
X0Y844D02*
X7Y844D01*
X135Y844D02*
X142Y844D01*
X832Y844D02*
X853Y844D01*
X1166Y844D02*
X1173Y844D01*
X1866Y844D02*
X1872Y844D01*
X1890Y844D02*
X1896Y844D01*
X1913Y844D02*
X1919Y844D01*
X1960Y844D02*
X1967Y844D01*
X0Y843D02*
X7Y843D01*
X135Y843D02*
X142Y843D01*
X831Y843D02*
X854Y843D01*
X1166Y843D02*
X1173Y843D01*
X1866Y843D02*
X1872Y843D01*
X1890Y843D02*
X1896Y843D01*
X1913Y843D02*
X1919Y843D01*
X1960Y843D02*
X1967Y843D01*
X0Y842D02*
X7Y842D01*
X135Y842D02*
X142Y842D01*
X831Y842D02*
X854Y842D01*
X1166Y842D02*
X1173Y842D01*
X1866Y842D02*
X1872Y842D01*
X1890Y842D02*
X1896Y842D01*
X1913Y842D02*
X1919Y842D01*
X1960Y842D02*
X1967Y842D01*
X0Y841D02*
X7Y841D01*
X135Y841D02*
X142Y841D01*
X831Y841D02*
X854Y841D01*
X1166Y841D02*
X1173Y841D01*
X1866Y841D02*
X1872Y841D01*
X1890Y841D02*
X1896Y841D01*
X1913Y841D02*
X1919Y841D01*
X1960Y841D02*
X1967Y841D01*
X0Y840D02*
X7Y840D01*
X135Y840D02*
X142Y840D01*
X831Y840D02*
X854Y840D01*
X1166Y840D02*
X1173Y840D01*
X1866Y840D02*
X1872Y840D01*
X1889Y840D02*
X1896Y840D01*
X1913Y840D02*
X1919Y840D01*
X1960Y840D02*
X1967Y840D01*
X0Y839D02*
X7Y839D01*
X135Y839D02*
X142Y839D01*
X832Y839D02*
X854Y839D01*
X1166Y839D02*
X1173Y839D01*
X1866Y839D02*
X1919Y839D01*
X1960Y839D02*
X1967Y839D01*
X0Y838D02*
X7Y838D01*
X135Y838D02*
X142Y838D01*
X834Y838D02*
X854Y838D01*
X1166Y838D02*
X1173Y838D01*
X1866Y838D02*
X1919Y838D01*
X1960Y838D02*
X1967Y838D01*
X0Y837D02*
X7Y837D01*
X135Y837D02*
X142Y837D01*
X848Y837D02*
X854Y837D01*
X1166Y837D02*
X1173Y837D01*
X1866Y837D02*
X1919Y837D01*
X1960Y837D02*
X1967Y837D01*
X0Y836D02*
X7Y836D01*
X135Y836D02*
X142Y836D01*
X848Y836D02*
X854Y836D01*
X1166Y836D02*
X1173Y836D01*
X1866Y836D02*
X1919Y836D01*
X1960Y836D02*
X1967Y836D01*
X0Y835D02*
X7Y835D01*
X135Y835D02*
X142Y835D01*
X848Y835D02*
X854Y835D01*
X1166Y835D02*
X1173Y835D01*
X1866Y835D02*
X1919Y835D01*
X1960Y835D02*
X1967Y835D01*
X0Y834D02*
X7Y834D01*
X135Y834D02*
X142Y834D01*
X848Y834D02*
X854Y834D01*
X1166Y834D02*
X1173Y834D01*
X1866Y834D02*
X1919Y834D01*
X1960Y834D02*
X1967Y834D01*
X0Y833D02*
X7Y833D01*
X135Y833D02*
X142Y833D01*
X848Y833D02*
X854Y833D01*
X1166Y833D02*
X1173Y833D01*
X1866Y833D02*
X1919Y833D01*
X1960Y833D02*
X1967Y833D01*
X0Y832D02*
X7Y832D01*
X135Y832D02*
X142Y832D01*
X848Y832D02*
X854Y832D01*
X1166Y832D02*
X1173Y832D01*
X1960Y832D02*
X1967Y832D01*
X0Y831D02*
X7Y831D01*
X135Y831D02*
X142Y831D01*
X802Y831D02*
X854Y831D01*
X1166Y831D02*
X1173Y831D01*
X1960Y831D02*
X1967Y831D01*
X0Y830D02*
X7Y830D01*
X135Y830D02*
X142Y830D01*
X801Y830D02*
X854Y830D01*
X1166Y830D02*
X1173Y830D01*
X1960Y830D02*
X1967Y830D01*
X0Y829D02*
X7Y829D01*
X135Y829D02*
X142Y829D01*
X801Y829D02*
X854Y829D01*
X1166Y829D02*
X1173Y829D01*
X1960Y829D02*
X1967Y829D01*
X0Y828D02*
X7Y828D01*
X135Y828D02*
X142Y828D01*
X801Y828D02*
X854Y828D01*
X1166Y828D02*
X1173Y828D01*
X1960Y828D02*
X1967Y828D01*
X0Y827D02*
X7Y827D01*
X135Y827D02*
X142Y827D01*
X801Y827D02*
X854Y827D01*
X1166Y827D02*
X1173Y827D01*
X1960Y827D02*
X1967Y827D01*
X0Y826D02*
X7Y826D01*
X135Y826D02*
X142Y826D01*
X801Y826D02*
X854Y826D01*
X1166Y826D02*
X1173Y826D01*
X1960Y826D02*
X1967Y826D01*
X0Y825D02*
X7Y825D01*
X135Y825D02*
X142Y825D01*
X801Y825D02*
X854Y825D01*
X1166Y825D02*
X1173Y825D01*
X1960Y825D02*
X1967Y825D01*
X0Y824D02*
X7Y824D01*
X135Y824D02*
X142Y824D01*
X801Y824D02*
X808Y824D01*
X848Y824D02*
X854Y824D01*
X1166Y824D02*
X1173Y824D01*
X1960Y824D02*
X1967Y824D01*
X0Y823D02*
X7Y823D01*
X135Y823D02*
X142Y823D01*
X801Y823D02*
X807Y823D01*
X848Y823D02*
X854Y823D01*
X1166Y823D02*
X1173Y823D01*
X1960Y823D02*
X1967Y823D01*
X0Y822D02*
X7Y822D01*
X135Y822D02*
X142Y822D01*
X801Y822D02*
X807Y822D01*
X848Y822D02*
X854Y822D01*
X1166Y822D02*
X1173Y822D01*
X1960Y822D02*
X1967Y822D01*
X0Y821D02*
X7Y821D01*
X135Y821D02*
X142Y821D01*
X801Y821D02*
X807Y821D01*
X848Y821D02*
X854Y821D01*
X1166Y821D02*
X1173Y821D01*
X1960Y821D02*
X1967Y821D01*
X0Y820D02*
X7Y820D01*
X135Y820D02*
X142Y820D01*
X801Y820D02*
X807Y820D01*
X848Y820D02*
X854Y820D01*
X1166Y820D02*
X1173Y820D01*
X1960Y820D02*
X1967Y820D01*
X0Y819D02*
X7Y819D01*
X135Y819D02*
X142Y819D01*
X801Y819D02*
X807Y819D01*
X848Y819D02*
X854Y819D01*
X1166Y819D02*
X1173Y819D01*
X1960Y819D02*
X1967Y819D01*
X0Y818D02*
X7Y818D01*
X135Y818D02*
X142Y818D01*
X801Y818D02*
X807Y818D01*
X848Y818D02*
X854Y818D01*
X1166Y818D02*
X1173Y818D01*
X1960Y818D02*
X1967Y818D01*
X0Y817D02*
X7Y817D01*
X135Y817D02*
X142Y817D01*
X801Y817D02*
X807Y817D01*
X848Y817D02*
X854Y817D01*
X1166Y817D02*
X1173Y817D01*
X1960Y817D02*
X1967Y817D01*
X0Y816D02*
X7Y816D01*
X135Y816D02*
X142Y816D01*
X801Y816D02*
X807Y816D01*
X848Y816D02*
X854Y816D01*
X1166Y816D02*
X1173Y816D01*
X1960Y816D02*
X1967Y816D01*
X0Y815D02*
X7Y815D01*
X135Y815D02*
X142Y815D01*
X801Y815D02*
X807Y815D01*
X848Y815D02*
X854Y815D01*
X1166Y815D02*
X1173Y815D01*
X1960Y815D02*
X1967Y815D01*
X0Y814D02*
X7Y814D01*
X135Y814D02*
X142Y814D01*
X801Y814D02*
X807Y814D01*
X848Y814D02*
X854Y814D01*
X1166Y814D02*
X1173Y814D01*
X1960Y814D02*
X1967Y814D01*
X0Y813D02*
X7Y813D01*
X135Y813D02*
X142Y813D01*
X802Y813D02*
X807Y813D01*
X849Y813D02*
X854Y813D01*
X1166Y813D02*
X1173Y813D01*
X1915Y813D02*
X1918Y813D01*
X1960Y813D02*
X1967Y813D01*
X0Y812D02*
X7Y812D01*
X135Y812D02*
X142Y812D01*
X802Y812D02*
X807Y812D01*
X849Y812D02*
X854Y812D01*
X1166Y812D02*
X1173Y812D01*
X1914Y812D02*
X1919Y812D01*
X1960Y812D02*
X1967Y812D01*
X0Y811D02*
X7Y811D01*
X135Y811D02*
X142Y811D01*
X803Y811D02*
X806Y811D01*
X850Y811D02*
X853Y811D01*
X1166Y811D02*
X1173Y811D01*
X1913Y811D02*
X1919Y811D01*
X1960Y811D02*
X1967Y811D01*
X0Y810D02*
X7Y810D01*
X135Y810D02*
X142Y810D01*
X1166Y810D02*
X1173Y810D01*
X1913Y810D02*
X1919Y810D01*
X1960Y810D02*
X1967Y810D01*
X0Y809D02*
X7Y809D01*
X135Y809D02*
X142Y809D01*
X1166Y809D02*
X1173Y809D01*
X1913Y809D02*
X1919Y809D01*
X1960Y809D02*
X1967Y809D01*
X0Y808D02*
X7Y808D01*
X135Y808D02*
X142Y808D01*
X1166Y808D02*
X1173Y808D01*
X1913Y808D02*
X1919Y808D01*
X1960Y808D02*
X1967Y808D01*
X0Y807D02*
X7Y807D01*
X135Y807D02*
X142Y807D01*
X1166Y807D02*
X1173Y807D01*
X1913Y807D02*
X1919Y807D01*
X1960Y807D02*
X1967Y807D01*
X0Y806D02*
X7Y806D01*
X135Y806D02*
X142Y806D01*
X1166Y806D02*
X1173Y806D01*
X1913Y806D02*
X1919Y806D01*
X1960Y806D02*
X1967Y806D01*
X0Y805D02*
X7Y805D01*
X135Y805D02*
X142Y805D01*
X1166Y805D02*
X1173Y805D01*
X1913Y805D02*
X1919Y805D01*
X1960Y805D02*
X1967Y805D01*
X0Y804D02*
X7Y804D01*
X135Y804D02*
X142Y804D01*
X1166Y804D02*
X1173Y804D01*
X1913Y804D02*
X1919Y804D01*
X1960Y804D02*
X1967Y804D01*
X0Y803D02*
X7Y803D01*
X135Y803D02*
X142Y803D01*
X1166Y803D02*
X1173Y803D01*
X1865Y803D02*
X1870Y803D01*
X1883Y803D02*
X1919Y803D01*
X1960Y803D02*
X1967Y803D01*
X0Y802D02*
X7Y802D01*
X135Y802D02*
X142Y802D01*
X1166Y802D02*
X1173Y802D01*
X1864Y802D02*
X1871Y802D01*
X1882Y802D02*
X1919Y802D01*
X1960Y802D02*
X1967Y802D01*
X0Y801D02*
X7Y801D01*
X135Y801D02*
X142Y801D01*
X1166Y801D02*
X1173Y801D01*
X1863Y801D02*
X1872Y801D01*
X1881Y801D02*
X1919Y801D01*
X1960Y801D02*
X1967Y801D01*
X0Y800D02*
X7Y800D01*
X135Y800D02*
X142Y800D01*
X1166Y800D02*
X1173Y800D01*
X1863Y800D02*
X1872Y800D01*
X1881Y800D02*
X1919Y800D01*
X1960Y800D02*
X1967Y800D01*
X0Y799D02*
X7Y799D01*
X135Y799D02*
X142Y799D01*
X1166Y799D02*
X1173Y799D01*
X1863Y799D02*
X1872Y799D01*
X1881Y799D02*
X1919Y799D01*
X1960Y799D02*
X1967Y799D01*
X0Y798D02*
X7Y798D01*
X135Y798D02*
X142Y798D01*
X1166Y798D02*
X1173Y798D01*
X1863Y798D02*
X1872Y798D01*
X1881Y798D02*
X1919Y798D01*
X1960Y798D02*
X1967Y798D01*
X0Y797D02*
X7Y797D01*
X135Y797D02*
X142Y797D01*
X1166Y797D02*
X1173Y797D01*
X1863Y797D02*
X1872Y797D01*
X1881Y797D02*
X1919Y797D01*
X1960Y797D02*
X1967Y797D01*
X0Y796D02*
X7Y796D01*
X135Y796D02*
X142Y796D01*
X1166Y796D02*
X1173Y796D01*
X1863Y796D02*
X1872Y796D01*
X1881Y796D02*
X1887Y796D01*
X1913Y796D02*
X1919Y796D01*
X1960Y796D02*
X1967Y796D01*
X0Y795D02*
X7Y795D01*
X135Y795D02*
X142Y795D01*
X1166Y795D02*
X1173Y795D01*
X1863Y795D02*
X1872Y795D01*
X1881Y795D02*
X1887Y795D01*
X1913Y795D02*
X1919Y795D01*
X1960Y795D02*
X1967Y795D01*
X0Y794D02*
X7Y794D01*
X135Y794D02*
X142Y794D01*
X803Y794D02*
X848Y794D01*
X1166Y794D02*
X1173Y794D01*
X1864Y794D02*
X1871Y794D01*
X1881Y794D02*
X1887Y794D01*
X1913Y794D02*
X1919Y794D01*
X1960Y794D02*
X1967Y794D01*
X0Y793D02*
X7Y793D01*
X135Y793D02*
X142Y793D01*
X802Y793D02*
X850Y793D01*
X1166Y793D02*
X1173Y793D01*
X1866Y793D02*
X1869Y793D01*
X1881Y793D02*
X1887Y793D01*
X1913Y793D02*
X1919Y793D01*
X1960Y793D02*
X1967Y793D01*
X0Y792D02*
X7Y792D01*
X135Y792D02*
X142Y792D01*
X801Y792D02*
X851Y792D01*
X1166Y792D02*
X1173Y792D01*
X1881Y792D02*
X1887Y792D01*
X1913Y792D02*
X1919Y792D01*
X1960Y792D02*
X1967Y792D01*
X0Y791D02*
X7Y791D01*
X135Y791D02*
X142Y791D01*
X801Y791D02*
X852Y791D01*
X1166Y791D02*
X1173Y791D01*
X1881Y791D02*
X1887Y791D01*
X1913Y791D02*
X1919Y791D01*
X1960Y791D02*
X1967Y791D01*
X0Y790D02*
X7Y790D01*
X135Y790D02*
X142Y790D01*
X802Y790D02*
X853Y790D01*
X1166Y790D02*
X1173Y790D01*
X1881Y790D02*
X1887Y790D01*
X1913Y790D02*
X1919Y790D01*
X1960Y790D02*
X1967Y790D01*
X0Y789D02*
X7Y789D01*
X135Y789D02*
X142Y789D01*
X802Y789D02*
X853Y789D01*
X1166Y789D02*
X1173Y789D01*
X1881Y789D02*
X1887Y789D01*
X1913Y789D02*
X1919Y789D01*
X1960Y789D02*
X1967Y789D01*
X0Y788D02*
X7Y788D01*
X135Y788D02*
X142Y788D01*
X804Y788D02*
X854Y788D01*
X1166Y788D02*
X1173Y788D01*
X1881Y788D02*
X1886Y788D01*
X1914Y788D02*
X1919Y788D01*
X1960Y788D02*
X1967Y788D01*
X0Y787D02*
X7Y787D01*
X135Y787D02*
X142Y787D01*
X847Y787D02*
X854Y787D01*
X1166Y787D02*
X1173Y787D01*
X1882Y787D02*
X1886Y787D01*
X1914Y787D02*
X1918Y787D01*
X1960Y787D02*
X1967Y787D01*
X0Y786D02*
X7Y786D01*
X135Y786D02*
X142Y786D01*
X848Y786D02*
X854Y786D01*
X1166Y786D02*
X1173Y786D01*
X1960Y786D02*
X1967Y786D01*
X0Y785D02*
X7Y785D01*
X135Y785D02*
X142Y785D01*
X848Y785D02*
X854Y785D01*
X1166Y785D02*
X1173Y785D01*
X1960Y785D02*
X1967Y785D01*
X0Y784D02*
X7Y784D01*
X135Y784D02*
X142Y784D01*
X848Y784D02*
X854Y784D01*
X1166Y784D02*
X1173Y784D01*
X1960Y784D02*
X1967Y784D01*
X0Y783D02*
X7Y783D01*
X135Y783D02*
X142Y783D01*
X848Y783D02*
X854Y783D01*
X1166Y783D02*
X1173Y783D01*
X1960Y783D02*
X1967Y783D01*
X0Y782D02*
X7Y782D01*
X135Y782D02*
X142Y782D01*
X848Y782D02*
X854Y782D01*
X1166Y782D02*
X1173Y782D01*
X1960Y782D02*
X1967Y782D01*
X0Y781D02*
X7Y781D01*
X135Y781D02*
X142Y781D01*
X848Y781D02*
X854Y781D01*
X1166Y781D02*
X1173Y781D01*
X1960Y781D02*
X1967Y781D01*
X0Y780D02*
X7Y780D01*
X135Y780D02*
X142Y780D01*
X848Y780D02*
X854Y780D01*
X1166Y780D02*
X1173Y780D01*
X1960Y780D02*
X1967Y780D01*
X0Y779D02*
X7Y779D01*
X135Y779D02*
X142Y779D01*
X848Y779D02*
X854Y779D01*
X1166Y779D02*
X1173Y779D01*
X1960Y779D02*
X1967Y779D01*
X0Y778D02*
X7Y778D01*
X135Y778D02*
X142Y778D01*
X848Y778D02*
X854Y778D01*
X1166Y778D02*
X1173Y778D01*
X1960Y778D02*
X1967Y778D01*
X0Y777D02*
X7Y777D01*
X135Y777D02*
X142Y777D01*
X291Y777D02*
X296Y777D01*
X848Y777D02*
X854Y777D01*
X1166Y777D02*
X1173Y777D01*
X1960Y777D02*
X1967Y777D01*
X0Y776D02*
X7Y776D01*
X135Y776D02*
X142Y776D01*
X289Y776D02*
X299Y776D01*
X848Y776D02*
X854Y776D01*
X1166Y776D02*
X1173Y776D01*
X1960Y776D02*
X1967Y776D01*
X0Y775D02*
X7Y775D01*
X135Y775D02*
X142Y775D01*
X287Y775D02*
X301Y775D01*
X848Y775D02*
X854Y775D01*
X1166Y775D02*
X1173Y775D01*
X1960Y775D02*
X1967Y775D01*
X0Y774D02*
X7Y774D01*
X135Y774D02*
X142Y774D01*
X285Y774D02*
X302Y774D01*
X848Y774D02*
X854Y774D01*
X1166Y774D02*
X1173Y774D01*
X1960Y774D02*
X1967Y774D01*
X0Y773D02*
X7Y773D01*
X135Y773D02*
X142Y773D01*
X284Y773D02*
X303Y773D01*
X848Y773D02*
X854Y773D01*
X1166Y773D02*
X1173Y773D01*
X1960Y773D02*
X1967Y773D01*
X0Y772D02*
X7Y772D01*
X135Y772D02*
X142Y772D01*
X283Y772D02*
X304Y772D01*
X848Y772D02*
X854Y772D01*
X1166Y772D02*
X1173Y772D01*
X1960Y772D02*
X1967Y772D01*
X0Y771D02*
X7Y771D01*
X135Y771D02*
X142Y771D01*
X283Y771D02*
X305Y771D01*
X848Y771D02*
X854Y771D01*
X1166Y771D02*
X1173Y771D01*
X1960Y771D02*
X1967Y771D01*
X0Y770D02*
X7Y770D01*
X135Y770D02*
X142Y770D01*
X282Y770D02*
X305Y770D01*
X848Y770D02*
X854Y770D01*
X1166Y770D02*
X1173Y770D01*
X1960Y770D02*
X1967Y770D01*
X0Y769D02*
X7Y769D01*
X135Y769D02*
X142Y769D01*
X282Y769D02*
X291Y769D01*
X297Y769D02*
X306Y769D01*
X848Y769D02*
X854Y769D01*
X1166Y769D02*
X1173Y769D01*
X1960Y769D02*
X1967Y769D01*
X0Y768D02*
X7Y768D01*
X135Y768D02*
X142Y768D01*
X281Y768D02*
X290Y768D01*
X298Y768D02*
X306Y768D01*
X847Y768D02*
X854Y768D01*
X1166Y768D02*
X1173Y768D01*
X1960Y768D02*
X1967Y768D01*
X0Y767D02*
X7Y767D01*
X135Y767D02*
X142Y767D01*
X281Y767D02*
X289Y767D01*
X299Y767D02*
X307Y767D01*
X804Y767D02*
X854Y767D01*
X1166Y767D02*
X1173Y767D01*
X1891Y767D02*
X1892Y767D01*
X1960Y767D02*
X1967Y767D01*
X0Y766D02*
X7Y766D01*
X135Y766D02*
X142Y766D01*
X281Y766D02*
X288Y766D01*
X300Y766D02*
X307Y766D01*
X802Y766D02*
X853Y766D01*
X1166Y766D02*
X1173Y766D01*
X1887Y766D02*
X1894Y766D01*
X1960Y766D02*
X1967Y766D01*
X0Y765D02*
X7Y765D01*
X135Y765D02*
X142Y765D01*
X281Y765D02*
X288Y765D01*
X300Y765D02*
X307Y765D01*
X802Y765D02*
X853Y765D01*
X1166Y765D02*
X1173Y765D01*
X1885Y765D02*
X1895Y765D01*
X1960Y765D02*
X1967Y765D01*
X0Y764D02*
X7Y764D01*
X135Y764D02*
X142Y764D01*
X281Y764D02*
X288Y764D01*
X300Y764D02*
X307Y764D01*
X801Y764D02*
X852Y764D01*
X1166Y764D02*
X1173Y764D01*
X1884Y764D02*
X1895Y764D01*
X1960Y764D02*
X1967Y764D01*
X0Y763D02*
X7Y763D01*
X135Y763D02*
X142Y763D01*
X281Y763D02*
X288Y763D01*
X300Y763D02*
X307Y763D01*
X801Y763D02*
X851Y763D01*
X1166Y763D02*
X1173Y763D01*
X1883Y763D02*
X1895Y763D01*
X1960Y763D02*
X1967Y763D01*
X0Y762D02*
X7Y762D01*
X135Y762D02*
X142Y762D01*
X281Y762D02*
X288Y762D01*
X300Y762D02*
X307Y762D01*
X802Y762D02*
X850Y762D01*
X1166Y762D02*
X1173Y762D01*
X1882Y762D02*
X1895Y762D01*
X1960Y762D02*
X1967Y762D01*
X0Y761D02*
X7Y761D01*
X135Y761D02*
X142Y761D01*
X281Y761D02*
X288Y761D01*
X299Y761D02*
X307Y761D01*
X803Y761D02*
X848Y761D01*
X1166Y761D02*
X1173Y761D01*
X1882Y761D02*
X1894Y761D01*
X1960Y761D02*
X1967Y761D01*
X0Y760D02*
X7Y760D01*
X135Y760D02*
X142Y760D01*
X281Y760D02*
X289Y760D01*
X299Y760D02*
X307Y760D01*
X1166Y760D02*
X1173Y760D01*
X1881Y760D02*
X1890Y760D01*
X1960Y760D02*
X1967Y760D01*
X0Y759D02*
X7Y759D01*
X135Y759D02*
X142Y759D01*
X281Y759D02*
X290Y759D01*
X298Y759D02*
X306Y759D01*
X1166Y759D02*
X1173Y759D01*
X1881Y759D02*
X1888Y759D01*
X1960Y759D02*
X1967Y759D01*
X0Y758D02*
X7Y758D01*
X135Y758D02*
X142Y758D01*
X282Y758D02*
X292Y758D01*
X296Y758D02*
X306Y758D01*
X1166Y758D02*
X1173Y758D01*
X1881Y758D02*
X1887Y758D01*
X1960Y758D02*
X1967Y758D01*
X0Y757D02*
X7Y757D01*
X135Y757D02*
X142Y757D01*
X282Y757D02*
X305Y757D01*
X1166Y757D02*
X1173Y757D01*
X1881Y757D02*
X1887Y757D01*
X1960Y757D02*
X1967Y757D01*
X0Y756D02*
X7Y756D01*
X135Y756D02*
X142Y756D01*
X283Y756D02*
X305Y756D01*
X1166Y756D02*
X1173Y756D01*
X1881Y756D02*
X1887Y756D01*
X1960Y756D02*
X1967Y756D01*
X0Y755D02*
X7Y755D01*
X135Y755D02*
X142Y755D01*
X284Y755D02*
X304Y755D01*
X1166Y755D02*
X1173Y755D01*
X1881Y755D02*
X1887Y755D01*
X1960Y755D02*
X1967Y755D01*
X0Y754D02*
X7Y754D01*
X135Y754D02*
X142Y754D01*
X285Y754D02*
X303Y754D01*
X1166Y754D02*
X1173Y754D01*
X1881Y754D02*
X1887Y754D01*
X1960Y754D02*
X1967Y754D01*
X0Y753D02*
X7Y753D01*
X135Y753D02*
X142Y753D01*
X286Y753D02*
X302Y753D01*
X1166Y753D02*
X1173Y753D01*
X1881Y753D02*
X1887Y753D01*
X1960Y753D02*
X1967Y753D01*
X0Y752D02*
X7Y752D01*
X135Y752D02*
X142Y752D01*
X287Y752D02*
X301Y752D01*
X1166Y752D02*
X1173Y752D01*
X1881Y752D02*
X1887Y752D01*
X1960Y752D02*
X1967Y752D01*
X0Y751D02*
X7Y751D01*
X135Y751D02*
X142Y751D01*
X289Y751D02*
X299Y751D01*
X1166Y751D02*
X1173Y751D01*
X1881Y751D02*
X1887Y751D01*
X1960Y751D02*
X1967Y751D01*
X0Y750D02*
X7Y750D01*
X135Y750D02*
X142Y750D01*
X293Y750D02*
X295Y750D01*
X1166Y750D02*
X1173Y750D01*
X1881Y750D02*
X1888Y750D01*
X1960Y750D02*
X1967Y750D01*
X0Y749D02*
X7Y749D01*
X135Y749D02*
X142Y749D01*
X1166Y749D02*
X1173Y749D01*
X1881Y749D02*
X1888Y749D01*
X1960Y749D02*
X1967Y749D01*
X0Y748D02*
X7Y748D01*
X135Y748D02*
X142Y748D01*
X1166Y748D02*
X1173Y748D01*
X1881Y748D02*
X1889Y748D01*
X1960Y748D02*
X1967Y748D01*
X0Y747D02*
X7Y747D01*
X135Y747D02*
X142Y747D01*
X1166Y747D02*
X1173Y747D01*
X1882Y747D02*
X1890Y747D01*
X1960Y747D02*
X1967Y747D01*
X0Y746D02*
X7Y746D01*
X135Y746D02*
X142Y746D01*
X1166Y746D02*
X1173Y746D01*
X1883Y746D02*
X1891Y746D01*
X1960Y746D02*
X1967Y746D01*
X0Y745D02*
X7Y745D01*
X135Y745D02*
X142Y745D01*
X1166Y745D02*
X1173Y745D01*
X1884Y745D02*
X1892Y745D01*
X1960Y745D02*
X1967Y745D01*
X0Y744D02*
X7Y744D01*
X134Y744D02*
X142Y744D01*
X1166Y744D02*
X1173Y744D01*
X1884Y744D02*
X1893Y744D01*
X1960Y744D02*
X1967Y744D01*
X0Y743D02*
X7Y743D01*
X133Y743D02*
X142Y743D01*
X1166Y743D02*
X1173Y743D01*
X1885Y743D02*
X1894Y743D01*
X1960Y743D02*
X1967Y743D01*
X0Y742D02*
X7Y742D01*
X131Y742D02*
X142Y742D01*
X1166Y742D02*
X1173Y742D01*
X1886Y742D02*
X1894Y742D01*
X1960Y742D02*
X1967Y742D01*
X0Y741D02*
X7Y741D01*
X130Y741D02*
X142Y741D01*
X1166Y741D02*
X1173Y741D01*
X1887Y741D02*
X1895Y741D01*
X1960Y741D02*
X1967Y741D01*
X0Y740D02*
X7Y740D01*
X128Y740D02*
X141Y740D01*
X1166Y740D02*
X1173Y740D01*
X1888Y740D02*
X1896Y740D01*
X1960Y740D02*
X1967Y740D01*
X0Y739D02*
X7Y739D01*
X127Y739D02*
X140Y739D01*
X1166Y739D02*
X1173Y739D01*
X1883Y739D02*
X1917Y739D01*
X1960Y739D02*
X1967Y739D01*
X0Y738D02*
X7Y738D01*
X126Y738D02*
X138Y738D01*
X1166Y738D02*
X1173Y738D01*
X1881Y738D02*
X1918Y738D01*
X1960Y738D02*
X1967Y738D01*
X0Y737D02*
X7Y737D01*
X124Y737D02*
X137Y737D01*
X1166Y737D02*
X1173Y737D01*
X1881Y737D02*
X1919Y737D01*
X1960Y737D02*
X1967Y737D01*
X0Y736D02*
X7Y736D01*
X124Y736D02*
X136Y736D01*
X1166Y736D02*
X1173Y736D01*
X1881Y736D02*
X1919Y736D01*
X1960Y736D02*
X1967Y736D01*
X0Y735D02*
X7Y735D01*
X124Y735D02*
X134Y735D01*
X1166Y735D02*
X1173Y735D01*
X1881Y735D02*
X1919Y735D01*
X1960Y735D02*
X1967Y735D01*
X0Y734D02*
X7Y734D01*
X124Y734D02*
X133Y734D01*
X1166Y734D02*
X1173Y734D01*
X1881Y734D02*
X1918Y734D01*
X1960Y734D02*
X1967Y734D01*
X0Y733D02*
X7Y733D01*
X124Y733D02*
X132Y733D01*
X1166Y733D02*
X1173Y733D01*
X1882Y733D02*
X1917Y733D01*
X1960Y733D02*
X1967Y733D01*
X0Y732D02*
X7Y732D01*
X124Y732D02*
X131Y732D01*
X1166Y732D02*
X1173Y732D01*
X1960Y732D02*
X1967Y732D01*
X0Y731D02*
X7Y731D01*
X124Y731D02*
X131Y731D01*
X1166Y731D02*
X1173Y731D01*
X1960Y731D02*
X1967Y731D01*
X0Y730D02*
X7Y730D01*
X124Y730D02*
X131Y730D01*
X1166Y730D02*
X1173Y730D01*
X1960Y730D02*
X1967Y730D01*
X0Y729D02*
X7Y729D01*
X124Y729D02*
X131Y729D01*
X1166Y729D02*
X1173Y729D01*
X1960Y729D02*
X1967Y729D01*
X0Y728D02*
X7Y728D01*
X124Y728D02*
X131Y728D01*
X1166Y728D02*
X1173Y728D01*
X1960Y728D02*
X1967Y728D01*
X0Y727D02*
X7Y727D01*
X124Y727D02*
X131Y727D01*
X1166Y727D02*
X1173Y727D01*
X1960Y727D02*
X1967Y727D01*
X0Y726D02*
X7Y726D01*
X124Y726D02*
X131Y726D01*
X1166Y726D02*
X1173Y726D01*
X1960Y726D02*
X1967Y726D01*
X0Y725D02*
X7Y725D01*
X124Y725D02*
X131Y725D01*
X1166Y725D02*
X1173Y725D01*
X1960Y725D02*
X1967Y725D01*
X0Y724D02*
X7Y724D01*
X124Y724D02*
X131Y724D01*
X1166Y724D02*
X1173Y724D01*
X1960Y724D02*
X1967Y724D01*
X0Y723D02*
X7Y723D01*
X124Y723D02*
X131Y723D01*
X1166Y723D02*
X1173Y723D01*
X1960Y723D02*
X1967Y723D01*
X0Y722D02*
X7Y722D01*
X124Y722D02*
X131Y722D01*
X1166Y722D02*
X1173Y722D01*
X1960Y722D02*
X1967Y722D01*
X0Y721D02*
X7Y721D01*
X124Y721D02*
X131Y721D01*
X1166Y721D02*
X1173Y721D01*
X1960Y721D02*
X1967Y721D01*
X0Y720D02*
X7Y720D01*
X124Y720D02*
X131Y720D01*
X1166Y720D02*
X1173Y720D01*
X1960Y720D02*
X1967Y720D01*
X0Y719D02*
X7Y719D01*
X124Y719D02*
X131Y719D01*
X1166Y719D02*
X1173Y719D01*
X1960Y719D02*
X1967Y719D01*
X0Y718D02*
X7Y718D01*
X124Y718D02*
X131Y718D01*
X1166Y718D02*
X1173Y718D01*
X1960Y718D02*
X1967Y718D01*
X0Y717D02*
X7Y717D01*
X124Y717D02*
X131Y717D01*
X1166Y717D02*
X1173Y717D01*
X1960Y717D02*
X1967Y717D01*
X0Y716D02*
X7Y716D01*
X124Y716D02*
X131Y716D01*
X1166Y716D02*
X1173Y716D01*
X1909Y716D02*
X1913Y716D01*
X1960Y716D02*
X1967Y716D01*
X0Y715D02*
X7Y715D01*
X124Y715D02*
X131Y715D01*
X1166Y715D02*
X1173Y715D01*
X1908Y715D02*
X1915Y715D01*
X1960Y715D02*
X1967Y715D01*
X0Y714D02*
X7Y714D01*
X124Y714D02*
X131Y714D01*
X1166Y714D02*
X1173Y714D01*
X1907Y714D02*
X1916Y714D01*
X1960Y714D02*
X1967Y714D01*
X0Y713D02*
X7Y713D01*
X124Y713D02*
X131Y713D01*
X1166Y713D02*
X1173Y713D01*
X1883Y713D02*
X1885Y713D01*
X1907Y713D02*
X1917Y713D01*
X1960Y713D02*
X1967Y713D01*
X0Y712D02*
X7Y712D01*
X124Y712D02*
X131Y712D01*
X1166Y712D02*
X1173Y712D01*
X1882Y712D02*
X1886Y712D01*
X1908Y712D02*
X1917Y712D01*
X1960Y712D02*
X1967Y712D01*
X0Y711D02*
X7Y711D01*
X124Y711D02*
X131Y711D01*
X1166Y711D02*
X1173Y711D01*
X1881Y711D02*
X1886Y711D01*
X1908Y711D02*
X1918Y711D01*
X1960Y711D02*
X1967Y711D01*
X0Y710D02*
X7Y710D01*
X124Y710D02*
X131Y710D01*
X1166Y710D02*
X1173Y710D01*
X1881Y710D02*
X1887Y710D01*
X1910Y710D02*
X1918Y710D01*
X1960Y710D02*
X1967Y710D01*
X0Y709D02*
X7Y709D01*
X124Y709D02*
X131Y709D01*
X1166Y709D02*
X1173Y709D01*
X1881Y709D02*
X1887Y709D01*
X1912Y709D02*
X1919Y709D01*
X1960Y709D02*
X1967Y709D01*
X0Y708D02*
X7Y708D01*
X124Y708D02*
X131Y708D01*
X1166Y708D02*
X1173Y708D01*
X1881Y708D02*
X1887Y708D01*
X1913Y708D02*
X1919Y708D01*
X1960Y708D02*
X1967Y708D01*
X0Y707D02*
X7Y707D01*
X124Y707D02*
X131Y707D01*
X1166Y707D02*
X1173Y707D01*
X1881Y707D02*
X1887Y707D01*
X1913Y707D02*
X1919Y707D01*
X1960Y707D02*
X1967Y707D01*
X0Y706D02*
X7Y706D01*
X124Y706D02*
X131Y706D01*
X1166Y706D02*
X1173Y706D01*
X1881Y706D02*
X1887Y706D01*
X1913Y706D02*
X1919Y706D01*
X1960Y706D02*
X1967Y706D01*
X0Y705D02*
X7Y705D01*
X124Y705D02*
X131Y705D01*
X1166Y705D02*
X1173Y705D01*
X1881Y705D02*
X1887Y705D01*
X1913Y705D02*
X1919Y705D01*
X1960Y705D02*
X1967Y705D01*
X0Y704D02*
X7Y704D01*
X124Y704D02*
X131Y704D01*
X1166Y704D02*
X1173Y704D01*
X1881Y704D02*
X1887Y704D01*
X1913Y704D02*
X1919Y704D01*
X1960Y704D02*
X1967Y704D01*
X0Y703D02*
X7Y703D01*
X124Y703D02*
X131Y703D01*
X1166Y703D02*
X1173Y703D01*
X1881Y703D02*
X1887Y703D01*
X1913Y703D02*
X1919Y703D01*
X1960Y703D02*
X1967Y703D01*
X0Y702D02*
X7Y702D01*
X124Y702D02*
X131Y702D01*
X1166Y702D02*
X1173Y702D01*
X1881Y702D02*
X1887Y702D01*
X1913Y702D02*
X1919Y702D01*
X1960Y702D02*
X1967Y702D01*
X0Y701D02*
X7Y701D01*
X124Y701D02*
X131Y701D01*
X1166Y701D02*
X1173Y701D01*
X1881Y701D02*
X1887Y701D01*
X1913Y701D02*
X1919Y701D01*
X1960Y701D02*
X1967Y701D01*
X0Y700D02*
X7Y700D01*
X124Y700D02*
X131Y700D01*
X1166Y700D02*
X1173Y700D01*
X1881Y700D02*
X1887Y700D01*
X1913Y700D02*
X1919Y700D01*
X1960Y700D02*
X1967Y700D01*
X0Y699D02*
X7Y699D01*
X124Y699D02*
X131Y699D01*
X1166Y699D02*
X1173Y699D01*
X1881Y699D02*
X1887Y699D01*
X1913Y699D02*
X1919Y699D01*
X1960Y699D02*
X1967Y699D01*
X0Y698D02*
X7Y698D01*
X124Y698D02*
X131Y698D01*
X1166Y698D02*
X1173Y698D01*
X1881Y698D02*
X1887Y698D01*
X1913Y698D02*
X1919Y698D01*
X1960Y698D02*
X1967Y698D01*
X0Y697D02*
X7Y697D01*
X124Y697D02*
X131Y697D01*
X1166Y697D02*
X1173Y697D01*
X1881Y697D02*
X1887Y697D01*
X1912Y697D02*
X1919Y697D01*
X1960Y697D02*
X1967Y697D01*
X0Y696D02*
X7Y696D01*
X124Y696D02*
X131Y696D01*
X1166Y696D02*
X1173Y696D01*
X1871Y696D02*
X1918Y696D01*
X1960Y696D02*
X1967Y696D01*
X0Y695D02*
X7Y695D01*
X124Y695D02*
X131Y695D01*
X1166Y695D02*
X1173Y695D01*
X1870Y695D02*
X1918Y695D01*
X1960Y695D02*
X1967Y695D01*
X0Y694D02*
X7Y694D01*
X124Y694D02*
X131Y694D01*
X1166Y694D02*
X1173Y694D01*
X1869Y694D02*
X1917Y694D01*
X1960Y694D02*
X1967Y694D01*
X0Y693D02*
X7Y693D01*
X124Y693D02*
X131Y693D01*
X1166Y693D02*
X1173Y693D01*
X1869Y693D02*
X1917Y693D01*
X1960Y693D02*
X1967Y693D01*
X0Y692D02*
X7Y692D01*
X124Y692D02*
X131Y692D01*
X1166Y692D02*
X1173Y692D01*
X1869Y692D02*
X1916Y692D01*
X1960Y692D02*
X1967Y692D01*
X0Y691D02*
X7Y691D01*
X124Y691D02*
X131Y691D01*
X1166Y691D02*
X1173Y691D01*
X1869Y691D02*
X1915Y691D01*
X1960Y691D02*
X1967Y691D01*
X0Y690D02*
X7Y690D01*
X124Y690D02*
X131Y690D01*
X1166Y690D02*
X1173Y690D01*
X1870Y690D02*
X1913Y690D01*
X1960Y690D02*
X1967Y690D01*
X0Y689D02*
X7Y689D01*
X124Y689D02*
X131Y689D01*
X1166Y689D02*
X1173Y689D01*
X1880Y689D02*
X1887Y689D01*
X1960Y689D02*
X1967Y689D01*
X0Y688D02*
X7Y688D01*
X124Y688D02*
X131Y688D01*
X1166Y688D02*
X1173Y688D01*
X1881Y688D02*
X1887Y688D01*
X1960Y688D02*
X1967Y688D01*
X0Y687D02*
X7Y687D01*
X124Y687D02*
X131Y687D01*
X1166Y687D02*
X1173Y687D01*
X1881Y687D02*
X1887Y687D01*
X1960Y687D02*
X1967Y687D01*
X0Y686D02*
X7Y686D01*
X124Y686D02*
X131Y686D01*
X1166Y686D02*
X1173Y686D01*
X1881Y686D02*
X1887Y686D01*
X1960Y686D02*
X1967Y686D01*
X0Y685D02*
X7Y685D01*
X124Y685D02*
X131Y685D01*
X1166Y685D02*
X1173Y685D01*
X1881Y685D02*
X1887Y685D01*
X1960Y685D02*
X1967Y685D01*
X0Y684D02*
X7Y684D01*
X124Y684D02*
X131Y684D01*
X1166Y684D02*
X1173Y684D01*
X1881Y684D02*
X1886Y684D01*
X1960Y684D02*
X1967Y684D01*
X0Y683D02*
X7Y683D01*
X124Y683D02*
X131Y683D01*
X1166Y683D02*
X1173Y683D01*
X1882Y683D02*
X1885Y683D01*
X1960Y683D02*
X1967Y683D01*
X0Y682D02*
X7Y682D01*
X124Y682D02*
X131Y682D01*
X1166Y682D02*
X1173Y682D01*
X1960Y682D02*
X1967Y682D01*
X0Y681D02*
X7Y681D01*
X124Y681D02*
X131Y681D01*
X1166Y681D02*
X1173Y681D01*
X1960Y681D02*
X1967Y681D01*
X0Y680D02*
X7Y680D01*
X124Y680D02*
X131Y680D01*
X1166Y680D02*
X1173Y680D01*
X1960Y680D02*
X1967Y680D01*
X0Y679D02*
X7Y679D01*
X124Y679D02*
X131Y679D01*
X1166Y679D02*
X1173Y679D01*
X1960Y679D02*
X1967Y679D01*
X0Y678D02*
X7Y678D01*
X124Y678D02*
X131Y678D01*
X1166Y678D02*
X1173Y678D01*
X1960Y678D02*
X1967Y678D01*
X0Y677D02*
X7Y677D01*
X124Y677D02*
X131Y677D01*
X1166Y677D02*
X1173Y677D01*
X1960Y677D02*
X1967Y677D01*
X0Y676D02*
X7Y676D01*
X124Y676D02*
X131Y676D01*
X1166Y676D02*
X1173Y676D01*
X1960Y676D02*
X1967Y676D01*
X0Y675D02*
X7Y675D01*
X124Y675D02*
X131Y675D01*
X1166Y675D02*
X1173Y675D01*
X1960Y675D02*
X1967Y675D01*
X0Y674D02*
X7Y674D01*
X124Y674D02*
X131Y674D01*
X1166Y674D02*
X1173Y674D01*
X1960Y674D02*
X1967Y674D01*
X0Y673D02*
X7Y673D01*
X124Y673D02*
X131Y673D01*
X1166Y673D02*
X1173Y673D01*
X1960Y673D02*
X1967Y673D01*
X0Y672D02*
X7Y672D01*
X124Y672D02*
X131Y672D01*
X1166Y672D02*
X1173Y672D01*
X1960Y672D02*
X1967Y672D01*
X0Y671D02*
X7Y671D01*
X124Y671D02*
X131Y671D01*
X1166Y671D02*
X1173Y671D01*
X1960Y671D02*
X1967Y671D01*
X0Y670D02*
X7Y670D01*
X124Y670D02*
X131Y670D01*
X1166Y670D02*
X1173Y670D01*
X1960Y670D02*
X1967Y670D01*
X0Y669D02*
X7Y669D01*
X124Y669D02*
X131Y669D01*
X1166Y669D02*
X1173Y669D01*
X1960Y669D02*
X1967Y669D01*
X0Y668D02*
X7Y668D01*
X124Y668D02*
X131Y668D01*
X1166Y668D02*
X1173Y668D01*
X1960Y668D02*
X1967Y668D01*
X0Y667D02*
X7Y667D01*
X124Y667D02*
X131Y667D01*
X1166Y667D02*
X1173Y667D01*
X1960Y667D02*
X1967Y667D01*
X0Y666D02*
X7Y666D01*
X124Y666D02*
X131Y666D01*
X1166Y666D02*
X1173Y666D01*
X1960Y666D02*
X1967Y666D01*
X0Y665D02*
X7Y665D01*
X124Y665D02*
X131Y665D01*
X1166Y665D02*
X1173Y665D01*
X1960Y665D02*
X1967Y665D01*
X0Y664D02*
X7Y664D01*
X124Y664D02*
X131Y664D01*
X1166Y664D02*
X1173Y664D01*
X1960Y664D02*
X1967Y664D01*
X0Y663D02*
X7Y663D01*
X124Y663D02*
X131Y663D01*
X1166Y663D02*
X1173Y663D01*
X1960Y663D02*
X1967Y663D01*
X0Y662D02*
X7Y662D01*
X124Y662D02*
X131Y662D01*
X1166Y662D02*
X1173Y662D01*
X1960Y662D02*
X1967Y662D01*
X0Y661D02*
X7Y661D01*
X124Y661D02*
X131Y661D01*
X1166Y661D02*
X1173Y661D01*
X1960Y661D02*
X1967Y661D01*
X0Y660D02*
X7Y660D01*
X124Y660D02*
X131Y660D01*
X1166Y660D02*
X1173Y660D01*
X1960Y660D02*
X1967Y660D01*
X0Y659D02*
X7Y659D01*
X124Y659D02*
X131Y659D01*
X1166Y659D02*
X1173Y659D01*
X1960Y659D02*
X1967Y659D01*
X0Y658D02*
X7Y658D01*
X124Y658D02*
X131Y658D01*
X1166Y658D02*
X1173Y658D01*
X1960Y658D02*
X1967Y658D01*
X0Y657D02*
X7Y657D01*
X124Y657D02*
X131Y657D01*
X1166Y657D02*
X1173Y657D01*
X1960Y657D02*
X1967Y657D01*
X0Y656D02*
X7Y656D01*
X124Y656D02*
X131Y656D01*
X1166Y656D02*
X1173Y656D01*
X1960Y656D02*
X1967Y656D01*
X0Y655D02*
X7Y655D01*
X124Y655D02*
X131Y655D01*
X1166Y655D02*
X1173Y655D01*
X1960Y655D02*
X1967Y655D01*
X0Y654D02*
X7Y654D01*
X124Y654D02*
X131Y654D01*
X1166Y654D02*
X1173Y654D01*
X1960Y654D02*
X1967Y654D01*
X0Y653D02*
X7Y653D01*
X124Y653D02*
X131Y653D01*
X1166Y653D02*
X1173Y653D01*
X1960Y653D02*
X1967Y653D01*
X0Y652D02*
X7Y652D01*
X124Y652D02*
X131Y652D01*
X1166Y652D02*
X1173Y652D01*
X1960Y652D02*
X1967Y652D01*
X0Y651D02*
X7Y651D01*
X124Y651D02*
X131Y651D01*
X1166Y651D02*
X1173Y651D01*
X1960Y651D02*
X1967Y651D01*
X0Y650D02*
X7Y650D01*
X124Y650D02*
X131Y650D01*
X1166Y650D02*
X1173Y650D01*
X1960Y650D02*
X1967Y650D01*
X0Y649D02*
X7Y649D01*
X124Y649D02*
X131Y649D01*
X1166Y649D02*
X1173Y649D01*
X1960Y649D02*
X1967Y649D01*
X0Y648D02*
X7Y648D01*
X124Y648D02*
X131Y648D01*
X1166Y648D02*
X1173Y648D01*
X1960Y648D02*
X1967Y648D01*
X0Y647D02*
X7Y647D01*
X124Y647D02*
X131Y647D01*
X1166Y647D02*
X1173Y647D01*
X1960Y647D02*
X1967Y647D01*
X0Y646D02*
X7Y646D01*
X124Y646D02*
X131Y646D01*
X1166Y646D02*
X1173Y646D01*
X1960Y646D02*
X1967Y646D01*
X0Y645D02*
X7Y645D01*
X124Y645D02*
X131Y645D01*
X1166Y645D02*
X1173Y645D01*
X1960Y645D02*
X1967Y645D01*
X0Y644D02*
X7Y644D01*
X124Y644D02*
X131Y644D01*
X1165Y644D02*
X1173Y644D01*
X1960Y644D02*
X1967Y644D01*
X0Y643D02*
X7Y643D01*
X124Y643D02*
X131Y643D01*
X371Y643D02*
X386Y643D01*
X1164Y643D02*
X1173Y643D01*
X1960Y643D02*
X1967Y643D01*
X0Y642D02*
X7Y642D01*
X124Y642D02*
X131Y642D01*
X367Y642D02*
X390Y642D01*
X1163Y642D02*
X1173Y642D01*
X1960Y642D02*
X1967Y642D01*
X0Y641D02*
X7Y641D01*
X124Y641D02*
X131Y641D01*
X364Y641D02*
X393Y641D01*
X1162Y641D02*
X1173Y641D01*
X1960Y641D02*
X1967Y641D01*
X0Y640D02*
X7Y640D01*
X124Y640D02*
X131Y640D01*
X362Y640D02*
X396Y640D01*
X1161Y640D02*
X1172Y640D01*
X1960Y640D02*
X1967Y640D01*
X0Y639D02*
X7Y639D01*
X124Y639D02*
X131Y639D01*
X360Y639D02*
X398Y639D01*
X1160Y639D02*
X1171Y639D01*
X1960Y639D02*
X1967Y639D01*
X0Y638D02*
X7Y638D01*
X124Y638D02*
X131Y638D01*
X358Y638D02*
X400Y638D01*
X1159Y638D02*
X1170Y638D01*
X1960Y638D02*
X1967Y638D01*
X0Y637D02*
X7Y637D01*
X124Y637D02*
X131Y637D01*
X356Y637D02*
X401Y637D01*
X1158Y637D02*
X1169Y637D01*
X1960Y637D02*
X1967Y637D01*
X0Y636D02*
X7Y636D01*
X124Y636D02*
X131Y636D01*
X355Y636D02*
X403Y636D01*
X1157Y636D02*
X1168Y636D01*
X1960Y636D02*
X1967Y636D01*
X0Y635D02*
X7Y635D01*
X124Y635D02*
X131Y635D01*
X353Y635D02*
X371Y635D01*
X387Y635D02*
X404Y635D01*
X1156Y635D02*
X1167Y635D01*
X1960Y635D02*
X1967Y635D01*
X0Y634D02*
X7Y634D01*
X124Y634D02*
X131Y634D01*
X352Y634D02*
X367Y634D01*
X391Y634D02*
X406Y634D01*
X1155Y634D02*
X1166Y634D01*
X1960Y634D02*
X1967Y634D01*
X0Y633D02*
X7Y633D01*
X124Y633D02*
X131Y633D01*
X351Y633D02*
X364Y633D01*
X393Y633D02*
X407Y633D01*
X1154Y633D02*
X1165Y633D01*
X1960Y633D02*
X1967Y633D01*
X0Y632D02*
X7Y632D01*
X124Y632D02*
X131Y632D01*
X350Y632D02*
X362Y632D01*
X395Y632D02*
X408Y632D01*
X1153Y632D02*
X1164Y632D01*
X1960Y632D02*
X1967Y632D01*
X0Y631D02*
X7Y631D01*
X124Y631D02*
X131Y631D01*
X349Y631D02*
X360Y631D01*
X397Y631D02*
X409Y631D01*
X1152Y631D02*
X1163Y631D01*
X1960Y631D02*
X1967Y631D01*
X0Y630D02*
X7Y630D01*
X124Y630D02*
X131Y630D01*
X348Y630D02*
X359Y630D01*
X399Y630D02*
X410Y630D01*
X1151Y630D02*
X1162Y630D01*
X1960Y630D02*
X1967Y630D01*
X0Y629D02*
X7Y629D01*
X124Y629D02*
X131Y629D01*
X347Y629D02*
X357Y629D01*
X400Y629D02*
X411Y629D01*
X1150Y629D02*
X1161Y629D01*
X1960Y629D02*
X1967Y629D01*
X0Y628D02*
X7Y628D01*
X124Y628D02*
X131Y628D01*
X346Y628D02*
X356Y628D01*
X401Y628D02*
X412Y628D01*
X1149Y628D02*
X1160Y628D01*
X1960Y628D02*
X1967Y628D01*
X0Y627D02*
X7Y627D01*
X124Y627D02*
X131Y627D01*
X345Y627D02*
X355Y627D01*
X403Y627D02*
X412Y627D01*
X1148Y627D02*
X1159Y627D01*
X1960Y627D02*
X1967Y627D01*
X0Y626D02*
X7Y626D01*
X124Y626D02*
X131Y626D01*
X344Y626D02*
X354Y626D01*
X404Y626D02*
X413Y626D01*
X1147Y626D02*
X1158Y626D01*
X1960Y626D02*
X1967Y626D01*
X0Y625D02*
X7Y625D01*
X124Y625D02*
X131Y625D01*
X344Y625D02*
X353Y625D01*
X405Y625D02*
X414Y625D01*
X1146Y625D02*
X1157Y625D01*
X1960Y625D02*
X1967Y625D01*
X0Y624D02*
X7Y624D01*
X124Y624D02*
X131Y624D01*
X343Y624D02*
X352Y624D01*
X406Y624D02*
X415Y624D01*
X1145Y624D02*
X1156Y624D01*
X1960Y624D02*
X1967Y624D01*
X0Y623D02*
X7Y623D01*
X124Y623D02*
X131Y623D01*
X342Y623D02*
X351Y623D01*
X407Y623D02*
X415Y623D01*
X1144Y623D02*
X1155Y623D01*
X1960Y623D02*
X1967Y623D01*
X0Y622D02*
X7Y622D01*
X124Y622D02*
X131Y622D01*
X342Y622D02*
X350Y622D01*
X407Y622D02*
X416Y622D01*
X1143Y622D02*
X1153Y622D01*
X1960Y622D02*
X1967Y622D01*
X0Y621D02*
X7Y621D01*
X124Y621D02*
X131Y621D01*
X341Y621D02*
X350Y621D01*
X408Y621D02*
X416Y621D01*
X1142Y621D02*
X1152Y621D01*
X1960Y621D02*
X1967Y621D01*
X0Y620D02*
X7Y620D01*
X124Y620D02*
X131Y620D01*
X341Y620D02*
X349Y620D01*
X409Y620D02*
X417Y620D01*
X1141Y620D02*
X1151Y620D01*
X1960Y620D02*
X1967Y620D01*
X0Y619D02*
X7Y619D01*
X124Y619D02*
X131Y619D01*
X340Y619D02*
X348Y619D01*
X409Y619D02*
X417Y619D01*
X1140Y619D02*
X1150Y619D01*
X1960Y619D02*
X1967Y619D01*
X0Y618D02*
X7Y618D01*
X124Y618D02*
X131Y618D01*
X340Y618D02*
X348Y618D01*
X410Y618D02*
X418Y618D01*
X1139Y618D02*
X1149Y618D01*
X1960Y618D02*
X1967Y618D01*
X0Y617D02*
X7Y617D01*
X124Y617D02*
X131Y617D01*
X339Y617D02*
X347Y617D01*
X411Y617D02*
X418Y617D01*
X1138Y617D02*
X1148Y617D01*
X1960Y617D02*
X1967Y617D01*
X0Y616D02*
X7Y616D01*
X124Y616D02*
X131Y616D01*
X339Y616D02*
X347Y616D01*
X411Y616D02*
X419Y616D01*
X1137Y616D02*
X1147Y616D01*
X1960Y616D02*
X1967Y616D01*
X0Y615D02*
X7Y615D01*
X124Y615D02*
X131Y615D01*
X339Y615D02*
X346Y615D01*
X412Y615D02*
X419Y615D01*
X1136Y615D02*
X1146Y615D01*
X1960Y615D02*
X1967Y615D01*
X0Y614D02*
X7Y614D01*
X124Y614D02*
X131Y614D01*
X338Y614D02*
X346Y614D01*
X412Y614D02*
X419Y614D01*
X1135Y614D02*
X1145Y614D01*
X1960Y614D02*
X1967Y614D01*
X0Y613D02*
X7Y613D01*
X124Y613D02*
X131Y613D01*
X338Y613D02*
X345Y613D01*
X412Y613D02*
X420Y613D01*
X1134Y613D02*
X1144Y613D01*
X1960Y613D02*
X1967Y613D01*
X0Y612D02*
X7Y612D01*
X124Y612D02*
X131Y612D01*
X338Y612D02*
X345Y612D01*
X413Y612D02*
X420Y612D01*
X1133Y612D02*
X1143Y612D01*
X1960Y612D02*
X1967Y612D01*
X0Y611D02*
X7Y611D01*
X124Y611D02*
X131Y611D01*
X337Y611D02*
X345Y611D01*
X413Y611D02*
X420Y611D01*
X1132Y611D02*
X1142Y611D01*
X1960Y611D02*
X1967Y611D01*
X0Y610D02*
X7Y610D01*
X124Y610D02*
X131Y610D01*
X337Y610D02*
X344Y610D01*
X413Y610D02*
X420Y610D01*
X1131Y610D02*
X1141Y610D01*
X1960Y610D02*
X1967Y610D01*
X0Y609D02*
X7Y609D01*
X124Y609D02*
X131Y609D01*
X337Y609D02*
X344Y609D01*
X414Y609D02*
X421Y609D01*
X1130Y609D02*
X1140Y609D01*
X1960Y609D02*
X1967Y609D01*
X0Y608D02*
X7Y608D01*
X124Y608D02*
X131Y608D01*
X337Y608D02*
X344Y608D01*
X414Y608D02*
X421Y608D01*
X1129Y608D02*
X1139Y608D01*
X1960Y608D02*
X1967Y608D01*
X0Y607D02*
X7Y607D01*
X124Y607D02*
X131Y607D01*
X337Y607D02*
X344Y607D01*
X414Y607D02*
X421Y607D01*
X1128Y607D02*
X1138Y607D01*
X1960Y607D02*
X1967Y607D01*
X0Y606D02*
X7Y606D01*
X124Y606D02*
X131Y606D01*
X336Y606D02*
X343Y606D01*
X414Y606D02*
X421Y606D01*
X1127Y606D02*
X1137Y606D01*
X1960Y606D02*
X1967Y606D01*
X0Y605D02*
X7Y605D01*
X124Y605D02*
X131Y605D01*
X336Y605D02*
X343Y605D01*
X414Y605D02*
X421Y605D01*
X1126Y605D02*
X1136Y605D01*
X1960Y605D02*
X1967Y605D01*
X0Y604D02*
X7Y604D01*
X124Y604D02*
X131Y604D01*
X336Y604D02*
X343Y604D01*
X414Y604D02*
X421Y604D01*
X1125Y604D02*
X1135Y604D01*
X1960Y604D02*
X1967Y604D01*
X0Y603D02*
X7Y603D01*
X124Y603D02*
X131Y603D01*
X336Y603D02*
X343Y603D01*
X414Y603D02*
X421Y603D01*
X1124Y603D02*
X1134Y603D01*
X1960Y603D02*
X1967Y603D01*
X0Y602D02*
X7Y602D01*
X124Y602D02*
X131Y602D01*
X336Y602D02*
X343Y602D01*
X415Y602D02*
X422Y602D01*
X1123Y602D02*
X1133Y602D01*
X1960Y602D02*
X1967Y602D01*
X0Y601D02*
X7Y601D01*
X124Y601D02*
X131Y601D01*
X336Y601D02*
X343Y601D01*
X415Y601D02*
X422Y601D01*
X1122Y601D02*
X1132Y601D01*
X1960Y601D02*
X1967Y601D01*
X0Y600D02*
X7Y600D01*
X124Y600D02*
X131Y600D01*
X336Y600D02*
X343Y600D01*
X415Y600D02*
X422Y600D01*
X1121Y600D02*
X1131Y600D01*
X1960Y600D02*
X1967Y600D01*
X0Y599D02*
X7Y599D01*
X124Y599D02*
X131Y599D01*
X336Y599D02*
X343Y599D01*
X415Y599D02*
X422Y599D01*
X1120Y599D02*
X1130Y599D01*
X1960Y599D02*
X1967Y599D01*
X0Y598D02*
X7Y598D01*
X124Y598D02*
X131Y598D01*
X336Y598D02*
X343Y598D01*
X414Y598D02*
X421Y598D01*
X1119Y598D02*
X1129Y598D01*
X1960Y598D02*
X1967Y598D01*
X0Y597D02*
X7Y597D01*
X124Y597D02*
X131Y597D01*
X336Y597D02*
X343Y597D01*
X414Y597D02*
X421Y597D01*
X1118Y597D02*
X1128Y597D01*
X1960Y597D02*
X1967Y597D01*
X0Y596D02*
X7Y596D01*
X124Y596D02*
X131Y596D01*
X336Y596D02*
X343Y596D01*
X414Y596D02*
X421Y596D01*
X1117Y596D02*
X1127Y596D01*
X1960Y596D02*
X1967Y596D01*
X0Y595D02*
X7Y595D01*
X124Y595D02*
X131Y595D01*
X336Y595D02*
X343Y595D01*
X414Y595D02*
X421Y595D01*
X1116Y595D02*
X1126Y595D01*
X1960Y595D02*
X1967Y595D01*
X0Y594D02*
X7Y594D01*
X124Y594D02*
X131Y594D01*
X337Y594D02*
X344Y594D01*
X414Y594D02*
X421Y594D01*
X1115Y594D02*
X1125Y594D01*
X1960Y594D02*
X1967Y594D01*
X0Y593D02*
X7Y593D01*
X124Y593D02*
X131Y593D01*
X337Y593D02*
X344Y593D01*
X414Y593D02*
X421Y593D01*
X1114Y593D02*
X1124Y593D01*
X1960Y593D02*
X1967Y593D01*
X0Y592D02*
X7Y592D01*
X124Y592D02*
X131Y592D01*
X337Y592D02*
X344Y592D01*
X414Y592D02*
X421Y592D01*
X1113Y592D02*
X1123Y592D01*
X1960Y592D02*
X1967Y592D01*
X0Y591D02*
X7Y591D01*
X124Y591D02*
X131Y591D01*
X337Y591D02*
X344Y591D01*
X413Y591D02*
X420Y591D01*
X1112Y591D02*
X1122Y591D01*
X1960Y591D02*
X1967Y591D01*
X0Y590D02*
X7Y590D01*
X124Y590D02*
X131Y590D01*
X337Y590D02*
X345Y590D01*
X413Y590D02*
X420Y590D01*
X1111Y590D02*
X1121Y590D01*
X1960Y590D02*
X1967Y590D01*
X0Y589D02*
X7Y589D01*
X124Y589D02*
X131Y589D01*
X338Y589D02*
X345Y589D01*
X413Y589D02*
X420Y589D01*
X1110Y589D02*
X1120Y589D01*
X1960Y589D02*
X1967Y589D01*
X0Y588D02*
X7Y588D01*
X124Y588D02*
X131Y588D01*
X338Y588D02*
X345Y588D01*
X412Y588D02*
X420Y588D01*
X1109Y588D02*
X1119Y588D01*
X1960Y588D02*
X1967Y588D01*
X0Y587D02*
X7Y587D01*
X124Y587D02*
X131Y587D01*
X338Y587D02*
X346Y587D01*
X412Y587D02*
X419Y587D01*
X1108Y587D02*
X1118Y587D01*
X1960Y587D02*
X1967Y587D01*
X0Y586D02*
X7Y586D01*
X124Y586D02*
X131Y586D01*
X339Y586D02*
X346Y586D01*
X412Y586D02*
X419Y586D01*
X1107Y586D02*
X1117Y586D01*
X1960Y586D02*
X1967Y586D01*
X0Y585D02*
X7Y585D01*
X124Y585D02*
X131Y585D01*
X339Y585D02*
X347Y585D01*
X411Y585D02*
X419Y585D01*
X1106Y585D02*
X1116Y585D01*
X1960Y585D02*
X1967Y585D01*
X0Y584D02*
X7Y584D01*
X125Y584D02*
X132Y584D01*
X339Y584D02*
X347Y584D01*
X411Y584D02*
X418Y584D01*
X1105Y584D02*
X1115Y584D01*
X1960Y584D02*
X1967Y584D01*
X0Y583D02*
X7Y583D01*
X125Y583D02*
X132Y583D01*
X340Y583D02*
X348Y583D01*
X410Y583D02*
X418Y583D01*
X1104Y583D02*
X1114Y583D01*
X1960Y583D02*
X1967Y583D01*
X0Y582D02*
X7Y582D01*
X125Y582D02*
X132Y582D01*
X340Y582D02*
X348Y582D01*
X409Y582D02*
X417Y582D01*
X1103Y582D02*
X1113Y582D01*
X1960Y582D02*
X1967Y582D01*
X0Y581D02*
X7Y581D01*
X125Y581D02*
X132Y581D01*
X341Y581D02*
X349Y581D01*
X409Y581D02*
X417Y581D01*
X1102Y581D02*
X1112Y581D01*
X1960Y581D02*
X1967Y581D01*
X0Y580D02*
X7Y580D01*
X125Y580D02*
X132Y580D01*
X341Y580D02*
X350Y580D01*
X408Y580D02*
X416Y580D01*
X1101Y580D02*
X1111Y580D01*
X1960Y580D02*
X1967Y580D01*
X0Y579D02*
X7Y579D01*
X125Y579D02*
X133Y579D01*
X342Y579D02*
X350Y579D01*
X407Y579D02*
X416Y579D01*
X1100Y579D02*
X1110Y579D01*
X1960Y579D02*
X1967Y579D01*
X0Y578D02*
X7Y578D01*
X126Y578D02*
X133Y578D01*
X342Y578D02*
X351Y578D01*
X406Y578D02*
X415Y578D01*
X1099Y578D02*
X1109Y578D01*
X1960Y578D02*
X1967Y578D01*
X0Y577D02*
X7Y577D01*
X126Y577D02*
X133Y577D01*
X343Y577D02*
X352Y577D01*
X406Y577D02*
X415Y577D01*
X1098Y577D02*
X1108Y577D01*
X1960Y577D02*
X1967Y577D01*
X0Y576D02*
X7Y576D01*
X126Y576D02*
X134Y576D01*
X344Y576D02*
X353Y576D01*
X405Y576D02*
X414Y576D01*
X1097Y576D02*
X1107Y576D01*
X1960Y576D02*
X1967Y576D01*
X0Y575D02*
X7Y575D01*
X127Y575D02*
X134Y575D01*
X344Y575D02*
X354Y575D01*
X404Y575D02*
X413Y575D01*
X1097Y575D02*
X1106Y575D01*
X1960Y575D02*
X1967Y575D01*
X0Y574D02*
X7Y574D01*
X127Y574D02*
X134Y574D01*
X345Y574D02*
X355Y574D01*
X403Y574D02*
X412Y574D01*
X1097Y574D02*
X1105Y574D01*
X1960Y574D02*
X1967Y574D01*
X0Y573D02*
X7Y573D01*
X127Y573D02*
X135Y573D01*
X346Y573D02*
X356Y573D01*
X401Y573D02*
X412Y573D01*
X1097Y573D02*
X1104Y573D01*
X1960Y573D02*
X1967Y573D01*
X0Y572D02*
X7Y572D01*
X128Y572D02*
X135Y572D01*
X347Y572D02*
X358Y572D01*
X400Y572D02*
X411Y572D01*
X1097Y572D02*
X1104Y572D01*
X1960Y572D02*
X1967Y572D01*
X0Y571D02*
X7Y571D01*
X128Y571D02*
X136Y571D01*
X348Y571D02*
X359Y571D01*
X399Y571D02*
X410Y571D01*
X1097Y571D02*
X1104Y571D01*
X1960Y571D02*
X1967Y571D01*
X0Y570D02*
X7Y570D01*
X129Y570D02*
X136Y570D01*
X349Y570D02*
X361Y570D01*
X397Y570D02*
X409Y570D01*
X1097Y570D02*
X1104Y570D01*
X1960Y570D02*
X1967Y570D01*
X0Y569D02*
X7Y569D01*
X129Y569D02*
X137Y569D01*
X350Y569D02*
X362Y569D01*
X395Y569D02*
X408Y569D01*
X1097Y569D02*
X1104Y569D01*
X1960Y569D02*
X1967Y569D01*
X0Y568D02*
X7Y568D01*
X129Y568D02*
X137Y568D01*
X351Y568D02*
X364Y568D01*
X393Y568D02*
X407Y568D01*
X1097Y568D02*
X1104Y568D01*
X1960Y568D02*
X1967Y568D01*
X0Y567D02*
X7Y567D01*
X130Y567D02*
X138Y567D01*
X352Y567D02*
X367Y567D01*
X390Y567D02*
X406Y567D01*
X1097Y567D02*
X1104Y567D01*
X1960Y567D02*
X1967Y567D01*
X0Y566D02*
X7Y566D01*
X131Y566D02*
X139Y566D01*
X353Y566D02*
X371Y566D01*
X387Y566D02*
X404Y566D01*
X1097Y566D02*
X1104Y566D01*
X1960Y566D02*
X1967Y566D01*
X0Y565D02*
X7Y565D01*
X131Y565D02*
X140Y565D01*
X355Y565D02*
X403Y565D01*
X1097Y565D02*
X1104Y565D01*
X1960Y565D02*
X1967Y565D01*
X0Y564D02*
X7Y564D01*
X132Y564D02*
X140Y564D01*
X356Y564D02*
X401Y564D01*
X1097Y564D02*
X1104Y564D01*
X1960Y564D02*
X1967Y564D01*
X0Y563D02*
X7Y563D01*
X132Y563D02*
X141Y563D01*
X358Y563D02*
X400Y563D01*
X1097Y563D02*
X1104Y563D01*
X1960Y563D02*
X1967Y563D01*
X0Y562D02*
X7Y562D01*
X133Y562D02*
X142Y562D01*
X360Y562D02*
X398Y562D01*
X1097Y562D02*
X1104Y562D01*
X1960Y562D02*
X1967Y562D01*
X0Y561D02*
X7Y561D01*
X134Y561D02*
X143Y561D01*
X362Y561D02*
X396Y561D01*
X1097Y561D02*
X1104Y561D01*
X1960Y561D02*
X1967Y561D01*
X0Y560D02*
X7Y560D01*
X134Y560D02*
X144Y560D01*
X364Y560D02*
X393Y560D01*
X1097Y560D02*
X1104Y560D01*
X1960Y560D02*
X1967Y560D01*
X0Y559D02*
X7Y559D01*
X135Y559D02*
X145Y559D01*
X367Y559D02*
X390Y559D01*
X1097Y559D02*
X1104Y559D01*
X1960Y559D02*
X1967Y559D01*
X0Y558D02*
X7Y558D01*
X136Y558D02*
X146Y558D01*
X372Y558D02*
X386Y558D01*
X1097Y558D02*
X1104Y558D01*
X1960Y558D02*
X1967Y558D01*
X0Y557D02*
X7Y557D01*
X137Y557D02*
X148Y557D01*
X1097Y557D02*
X1104Y557D01*
X1960Y557D02*
X1967Y557D01*
X0Y556D02*
X7Y556D01*
X138Y556D02*
X149Y556D01*
X1097Y556D02*
X1104Y556D01*
X1960Y556D02*
X1967Y556D01*
X0Y555D02*
X7Y555D01*
X139Y555D02*
X150Y555D01*
X1097Y555D02*
X1104Y555D01*
X1960Y555D02*
X1967Y555D01*
X0Y554D02*
X7Y554D01*
X140Y554D02*
X152Y554D01*
X1097Y554D02*
X1104Y554D01*
X1960Y554D02*
X1967Y554D01*
X0Y553D02*
X7Y553D01*
X141Y553D02*
X154Y553D01*
X1097Y553D02*
X1104Y553D01*
X1960Y553D02*
X1967Y553D01*
X0Y552D02*
X7Y552D01*
X142Y552D02*
X156Y552D01*
X1097Y552D02*
X1104Y552D01*
X1960Y552D02*
X1967Y552D01*
X0Y551D02*
X7Y551D01*
X143Y551D02*
X158Y551D01*
X1097Y551D02*
X1104Y551D01*
X1960Y551D02*
X1967Y551D01*
X0Y550D02*
X7Y550D01*
X145Y550D02*
X161Y550D01*
X1097Y550D02*
X1104Y550D01*
X1960Y550D02*
X1967Y550D01*
X0Y549D02*
X7Y549D01*
X146Y549D02*
X166Y549D01*
X1097Y549D02*
X1104Y549D01*
X1960Y549D02*
X1967Y549D01*
X0Y548D02*
X7Y548D01*
X148Y548D02*
X468Y548D01*
X480Y548D02*
X568Y548D01*
X580Y548D02*
X668Y548D01*
X680Y548D02*
X768Y548D01*
X780Y548D02*
X868Y548D01*
X880Y548D02*
X1104Y548D01*
X1960Y548D02*
X1967Y548D01*
X0Y547D02*
X7Y547D01*
X150Y547D02*
X1104Y547D01*
X1960Y547D02*
X1967Y547D01*
X0Y546D02*
X7Y546D01*
X151Y546D02*
X1104Y546D01*
X1960Y546D02*
X1967Y546D01*
X0Y545D02*
X7Y545D01*
X153Y545D02*
X1104Y545D01*
X1960Y545D02*
X1967Y545D01*
X0Y544D02*
X7Y544D01*
X156Y544D02*
X1104Y544D01*
X1960Y544D02*
X1967Y544D01*
X0Y543D02*
X7Y543D01*
X159Y543D02*
X1104Y543D01*
X1960Y543D02*
X1967Y543D01*
X0Y542D02*
X7Y542D01*
X162Y542D02*
X1104Y542D01*
X1960Y542D02*
X1967Y542D01*
X0Y541D02*
X7Y541D01*
X167Y541D02*
X1104Y541D01*
X1960Y541D02*
X1967Y541D01*
X0Y540D02*
X7Y540D01*
X1960Y540D02*
X1967Y540D01*
X0Y539D02*
X7Y539D01*
X1960Y539D02*
X1967Y539D01*
X0Y538D02*
X7Y538D01*
X1960Y538D02*
X1967Y538D01*
X0Y537D02*
X7Y537D01*
X1960Y537D02*
X1967Y537D01*
X0Y536D02*
X7Y536D01*
X1960Y536D02*
X1967Y536D01*
X0Y535D02*
X7Y535D01*
X1960Y535D02*
X1967Y535D01*
X0Y534D02*
X7Y534D01*
X1960Y534D02*
X1967Y534D01*
X0Y533D02*
X7Y533D01*
X1960Y533D02*
X1967Y533D01*
X0Y532D02*
X7Y532D01*
X1960Y532D02*
X1967Y532D01*
X0Y531D02*
X7Y531D01*
X1960Y531D02*
X1967Y531D01*
X0Y530D02*
X7Y530D01*
X1960Y530D02*
X1967Y530D01*
X0Y529D02*
X7Y529D01*
X1960Y529D02*
X1967Y529D01*
X0Y528D02*
X7Y528D01*
X1960Y528D02*
X1967Y528D01*
X0Y527D02*
X7Y527D01*
X1960Y527D02*
X1967Y527D01*
X0Y526D02*
X7Y526D01*
X1960Y526D02*
X1967Y526D01*
X0Y525D02*
X7Y525D01*
X1960Y525D02*
X1967Y525D01*
X0Y524D02*
X7Y524D01*
X1960Y524D02*
X1967Y524D01*
X0Y523D02*
X7Y523D01*
X1960Y523D02*
X1967Y523D01*
X0Y522D02*
X7Y522D01*
X1960Y522D02*
X1967Y522D01*
X0Y521D02*
X7Y521D01*
X1960Y521D02*
X1967Y521D01*
X0Y520D02*
X7Y520D01*
X1960Y520D02*
X1967Y520D01*
X0Y519D02*
X7Y519D01*
X1960Y519D02*
X1967Y519D01*
X0Y518D02*
X7Y518D01*
X1960Y518D02*
X1967Y518D01*
X0Y517D02*
X7Y517D01*
X1960Y517D02*
X1967Y517D01*
X0Y516D02*
X7Y516D01*
X1960Y516D02*
X1967Y516D01*
X0Y515D02*
X7Y515D01*
X1960Y515D02*
X1967Y515D01*
X0Y514D02*
X7Y514D01*
X1960Y514D02*
X1967Y514D01*
X0Y513D02*
X7Y513D01*
X1960Y513D02*
X1967Y513D01*
X0Y512D02*
X7Y512D01*
X1960Y512D02*
X1967Y512D01*
X0Y511D02*
X7Y511D01*
X1960Y511D02*
X1967Y511D01*
X0Y510D02*
X7Y510D01*
X1960Y510D02*
X1967Y510D01*
X0Y509D02*
X7Y509D01*
X1960Y509D02*
X1967Y509D01*
X0Y508D02*
X7Y508D01*
X1960Y508D02*
X1967Y508D01*
X0Y507D02*
X7Y507D01*
X1960Y507D02*
X1967Y507D01*
X0Y506D02*
X7Y506D01*
X1960Y506D02*
X1967Y506D01*
X0Y505D02*
X7Y505D01*
X1960Y505D02*
X1967Y505D01*
X0Y504D02*
X7Y504D01*
X1960Y504D02*
X1967Y504D01*
X0Y503D02*
X7Y503D01*
X1960Y503D02*
X1967Y503D01*
X0Y502D02*
X7Y502D01*
X1960Y502D02*
X1967Y502D01*
X0Y501D02*
X7Y501D01*
X122Y501D02*
X141Y501D01*
X188Y501D02*
X188Y501D01*
X222Y501D02*
X255Y501D01*
X272Y501D02*
X305Y501D01*
X325Y501D02*
X341Y501D01*
X1960Y501D02*
X1967Y501D01*
X0Y500D02*
X7Y500D01*
X121Y500D02*
X146Y500D01*
X186Y500D02*
X190Y500D01*
X222Y500D02*
X255Y500D01*
X272Y500D02*
X305Y500D01*
X323Y500D02*
X342Y500D01*
X1960Y500D02*
X1967Y500D01*
X0Y499D02*
X7Y499D01*
X121Y499D02*
X148Y499D01*
X185Y499D02*
X191Y499D01*
X222Y499D02*
X255Y499D01*
X272Y499D02*
X305Y499D01*
X322Y499D02*
X342Y499D01*
X1960Y499D02*
X1967Y499D01*
X0Y498D02*
X7Y498D01*
X121Y498D02*
X149Y498D01*
X185Y498D02*
X191Y498D01*
X222Y498D02*
X255Y498D01*
X272Y498D02*
X305Y498D01*
X322Y498D02*
X342Y498D01*
X1960Y498D02*
X1967Y498D01*
X0Y497D02*
X7Y497D01*
X121Y497D02*
X150Y497D01*
X185Y497D02*
X191Y497D01*
X222Y497D02*
X255Y497D01*
X272Y497D02*
X305Y497D01*
X322Y497D02*
X342Y497D01*
X1960Y497D02*
X1967Y497D01*
X0Y496D02*
X7Y496D01*
X121Y496D02*
X151Y496D01*
X185Y496D02*
X192Y496D01*
X222Y496D02*
X255Y496D01*
X272Y496D02*
X305Y496D01*
X322Y496D02*
X342Y496D01*
X1960Y496D02*
X1967Y496D01*
X0Y495D02*
X7Y495D01*
X121Y495D02*
X152Y495D01*
X184Y495D02*
X192Y495D01*
X222Y495D02*
X255Y495D01*
X272Y495D02*
X305Y495D01*
X323Y495D02*
X342Y495D01*
X1960Y495D02*
X1967Y495D01*
X0Y494D02*
X7Y494D01*
X121Y494D02*
X128Y494D01*
X142Y494D02*
X153Y494D01*
X184Y494D02*
X192Y494D01*
X222Y494D02*
X228Y494D01*
X235Y494D02*
X242Y494D01*
X249Y494D02*
X255Y494D01*
X272Y494D02*
X278Y494D01*
X285Y494D02*
X292Y494D01*
X299Y494D02*
X305Y494D01*
X335Y494D02*
X342Y494D01*
X1960Y494D02*
X1967Y494D01*
X0Y493D02*
X7Y493D01*
X121Y493D02*
X127Y493D01*
X145Y493D02*
X153Y493D01*
X184Y493D02*
X193Y493D01*
X222Y493D02*
X228Y493D01*
X235Y493D02*
X241Y493D01*
X249Y493D02*
X255Y493D01*
X272Y493D02*
X278Y493D01*
X286Y493D02*
X292Y493D01*
X299Y493D02*
X305Y493D01*
X336Y493D02*
X342Y493D01*
X1960Y493D02*
X1967Y493D01*
X0Y492D02*
X7Y492D01*
X121Y492D02*
X127Y492D01*
X147Y492D02*
X154Y492D01*
X183Y492D02*
X193Y492D01*
X222Y492D02*
X228Y492D01*
X235Y492D02*
X241Y492D01*
X249Y492D02*
X255Y492D01*
X272Y492D02*
X278Y492D01*
X286Y492D02*
X292Y492D01*
X299Y492D02*
X305Y492D01*
X336Y492D02*
X342Y492D01*
X1960Y492D02*
X1967Y492D01*
X0Y491D02*
X7Y491D01*
X121Y491D02*
X127Y491D01*
X147Y491D02*
X154Y491D01*
X183Y491D02*
X193Y491D01*
X222Y491D02*
X227Y491D01*
X235Y491D02*
X241Y491D01*
X249Y491D02*
X255Y491D01*
X272Y491D02*
X278Y491D01*
X286Y491D02*
X292Y491D01*
X299Y491D02*
X305Y491D01*
X336Y491D02*
X342Y491D01*
X1960Y491D02*
X1967Y491D01*
X0Y490D02*
X7Y490D01*
X121Y490D02*
X127Y490D01*
X148Y490D02*
X154Y490D01*
X183Y490D02*
X193Y490D01*
X222Y490D02*
X227Y490D01*
X235Y490D02*
X241Y490D01*
X250Y490D02*
X255Y490D01*
X272Y490D02*
X277Y490D01*
X286Y490D02*
X292Y490D01*
X300Y490D02*
X305Y490D01*
X336Y490D02*
X342Y490D01*
X1960Y490D02*
X1967Y490D01*
X0Y489D02*
X7Y489D01*
X121Y489D02*
X127Y489D01*
X148Y489D02*
X155Y489D01*
X182Y489D02*
X194Y489D01*
X223Y489D02*
X226Y489D01*
X235Y489D02*
X241Y489D01*
X250Y489D02*
X254Y489D01*
X273Y489D02*
X276Y489D01*
X286Y489D02*
X292Y489D01*
X301Y489D02*
X304Y489D01*
X336Y489D02*
X342Y489D01*
X1960Y489D02*
X1967Y489D01*
X0Y488D02*
X7Y488D01*
X121Y488D02*
X127Y488D01*
X149Y488D02*
X155Y488D01*
X182Y488D02*
X194Y488D01*
X235Y488D02*
X241Y488D01*
X286Y488D02*
X292Y488D01*
X336Y488D02*
X342Y488D01*
X1960Y488D02*
X1967Y488D01*
X0Y487D02*
X7Y487D01*
X121Y487D02*
X127Y487D01*
X149Y487D02*
X155Y487D01*
X182Y487D02*
X194Y487D01*
X235Y487D02*
X241Y487D01*
X286Y487D02*
X292Y487D01*
X336Y487D02*
X342Y487D01*
X1960Y487D02*
X1967Y487D01*
X0Y486D02*
X7Y486D01*
X121Y486D02*
X127Y486D01*
X149Y486D02*
X155Y486D01*
X182Y486D02*
X195Y486D01*
X235Y486D02*
X241Y486D01*
X286Y486D02*
X292Y486D01*
X336Y486D02*
X342Y486D01*
X1960Y486D02*
X1967Y486D01*
X0Y485D02*
X7Y485D01*
X121Y485D02*
X127Y485D01*
X149Y485D02*
X155Y485D01*
X181Y485D02*
X195Y485D01*
X235Y485D02*
X241Y485D01*
X286Y485D02*
X292Y485D01*
X336Y485D02*
X342Y485D01*
X1960Y485D02*
X1967Y485D01*
X0Y484D02*
X7Y484D01*
X121Y484D02*
X127Y484D01*
X149Y484D02*
X155Y484D01*
X181Y484D02*
X187Y484D01*
X189Y484D02*
X195Y484D01*
X235Y484D02*
X241Y484D01*
X286Y484D02*
X292Y484D01*
X336Y484D02*
X342Y484D01*
X1960Y484D02*
X1967Y484D01*
X0Y483D02*
X7Y483D01*
X121Y483D02*
X127Y483D01*
X149Y483D02*
X155Y483D01*
X181Y483D02*
X187Y483D01*
X189Y483D02*
X196Y483D01*
X235Y483D02*
X241Y483D01*
X286Y483D02*
X292Y483D01*
X336Y483D02*
X342Y483D01*
X1960Y483D02*
X1967Y483D01*
X0Y482D02*
X7Y482D01*
X121Y482D02*
X127Y482D01*
X148Y482D02*
X155Y482D01*
X180Y482D02*
X187Y482D01*
X189Y482D02*
X196Y482D01*
X235Y482D02*
X241Y482D01*
X286Y482D02*
X292Y482D01*
X336Y482D02*
X342Y482D01*
X1960Y482D02*
X1967Y482D01*
X0Y481D02*
X7Y481D01*
X121Y481D02*
X127Y481D01*
X148Y481D02*
X154Y481D01*
X180Y481D02*
X186Y481D01*
X190Y481D02*
X196Y481D01*
X235Y481D02*
X241Y481D01*
X286Y481D02*
X292Y481D01*
X336Y481D02*
X342Y481D01*
X1960Y481D02*
X1967Y481D01*
X0Y480D02*
X7Y480D01*
X121Y480D02*
X127Y480D01*
X147Y480D02*
X154Y480D01*
X180Y480D02*
X186Y480D01*
X190Y480D02*
X196Y480D01*
X235Y480D02*
X241Y480D01*
X286Y480D02*
X292Y480D01*
X336Y480D02*
X342Y480D01*
X1960Y480D02*
X1967Y480D01*
X0Y479D02*
X7Y479D01*
X121Y479D02*
X127Y479D01*
X146Y479D02*
X154Y479D01*
X180Y479D02*
X186Y479D01*
X190Y479D02*
X197Y479D01*
X235Y479D02*
X241Y479D01*
X286Y479D02*
X292Y479D01*
X336Y479D02*
X342Y479D01*
X1960Y479D02*
X1967Y479D01*
X0Y478D02*
X7Y478D01*
X121Y478D02*
X127Y478D01*
X144Y478D02*
X153Y478D01*
X179Y478D02*
X186Y478D01*
X191Y478D02*
X197Y478D01*
X235Y478D02*
X241Y478D01*
X286Y478D02*
X292Y478D01*
X336Y478D02*
X342Y478D01*
X1960Y478D02*
X1967Y478D01*
X0Y477D02*
X7Y477D01*
X121Y477D02*
X152Y477D01*
X179Y477D02*
X185Y477D01*
X191Y477D02*
X197Y477D01*
X235Y477D02*
X241Y477D01*
X286Y477D02*
X292Y477D01*
X336Y477D02*
X342Y477D01*
X1960Y477D02*
X1967Y477D01*
X0Y476D02*
X7Y476D01*
X121Y476D02*
X152Y476D01*
X179Y476D02*
X185Y476D01*
X191Y476D02*
X198Y476D01*
X235Y476D02*
X241Y476D01*
X286Y476D02*
X292Y476D01*
X336Y476D02*
X342Y476D01*
X1960Y476D02*
X1967Y476D01*
X0Y475D02*
X7Y475D01*
X121Y475D02*
X151Y475D01*
X178Y475D02*
X185Y475D01*
X192Y475D02*
X198Y475D01*
X235Y475D02*
X241Y475D01*
X286Y475D02*
X292Y475D01*
X336Y475D02*
X342Y475D01*
X1960Y475D02*
X1967Y475D01*
X0Y474D02*
X7Y474D01*
X121Y474D02*
X150Y474D01*
X178Y474D02*
X184Y474D01*
X192Y474D02*
X198Y474D01*
X235Y474D02*
X241Y474D01*
X286Y474D02*
X292Y474D01*
X336Y474D02*
X342Y474D01*
X1960Y474D02*
X1967Y474D01*
X0Y473D02*
X7Y473D01*
X121Y473D02*
X151Y473D01*
X178Y473D02*
X184Y473D01*
X192Y473D02*
X198Y473D01*
X235Y473D02*
X241Y473D01*
X286Y473D02*
X292Y473D01*
X336Y473D02*
X342Y473D01*
X1960Y473D02*
X1967Y473D01*
X0Y472D02*
X7Y472D01*
X121Y472D02*
X152Y472D01*
X177Y472D02*
X184Y472D01*
X192Y472D02*
X199Y472D01*
X235Y472D02*
X241Y472D01*
X286Y472D02*
X292Y472D01*
X336Y472D02*
X342Y472D01*
X1960Y472D02*
X1967Y472D01*
X0Y471D02*
X7Y471D01*
X121Y471D02*
X152Y471D01*
X177Y471D02*
X184Y471D01*
X193Y471D02*
X199Y471D01*
X235Y471D02*
X241Y471D01*
X286Y471D02*
X292Y471D01*
X336Y471D02*
X342Y471D01*
X351Y471D02*
X354Y471D01*
X1960Y471D02*
X1967Y471D01*
X0Y470D02*
X7Y470D01*
X121Y470D02*
X127Y470D01*
X144Y470D02*
X153Y470D01*
X177Y470D02*
X183Y470D01*
X193Y470D02*
X199Y470D01*
X235Y470D02*
X241Y470D01*
X286Y470D02*
X292Y470D01*
X336Y470D02*
X342Y470D01*
X350Y470D02*
X355Y470D01*
X1960Y470D02*
X1967Y470D01*
X0Y469D02*
X7Y469D01*
X121Y469D02*
X127Y469D01*
X146Y469D02*
X154Y469D01*
X177Y469D02*
X183Y469D01*
X193Y469D02*
X200Y469D01*
X235Y469D02*
X241Y469D01*
X286Y469D02*
X292Y469D01*
X336Y469D02*
X342Y469D01*
X350Y469D02*
X355Y469D01*
X1960Y469D02*
X1967Y469D01*
X0Y468D02*
X7Y468D01*
X121Y468D02*
X127Y468D01*
X147Y468D02*
X154Y468D01*
X176Y468D02*
X183Y468D01*
X194Y468D02*
X200Y468D01*
X235Y468D02*
X241Y468D01*
X286Y468D02*
X292Y468D01*
X336Y468D02*
X342Y468D01*
X350Y468D02*
X356Y468D01*
X1960Y468D02*
X1967Y468D01*
X0Y467D02*
X7Y467D01*
X121Y467D02*
X127Y467D01*
X148Y467D02*
X154Y467D01*
X176Y467D02*
X182Y467D01*
X194Y467D02*
X200Y467D01*
X235Y467D02*
X241Y467D01*
X286Y467D02*
X292Y467D01*
X336Y467D02*
X342Y467D01*
X350Y467D02*
X356Y467D01*
X1960Y467D02*
X1967Y467D01*
X0Y466D02*
X7Y466D01*
X121Y466D02*
X127Y466D01*
X148Y466D02*
X155Y466D01*
X176Y466D02*
X182Y466D01*
X194Y466D02*
X201Y466D01*
X235Y466D02*
X241Y466D01*
X286Y466D02*
X292Y466D01*
X336Y466D02*
X342Y466D01*
X350Y466D02*
X356Y466D01*
X1960Y466D02*
X1967Y466D01*
X0Y465D02*
X7Y465D01*
X121Y465D02*
X127Y465D01*
X149Y465D02*
X155Y465D01*
X175Y465D02*
X201Y465D01*
X235Y465D02*
X241Y465D01*
X286Y465D02*
X292Y465D01*
X336Y465D02*
X342Y465D01*
X350Y465D02*
X356Y465D01*
X1960Y465D02*
X1967Y465D01*
X0Y464D02*
X7Y464D01*
X121Y464D02*
X127Y464D01*
X149Y464D02*
X155Y464D01*
X175Y464D02*
X201Y464D01*
X235Y464D02*
X241Y464D01*
X286Y464D02*
X292Y464D01*
X336Y464D02*
X342Y464D01*
X350Y464D02*
X356Y464D01*
X1960Y464D02*
X1967Y464D01*
X0Y463D02*
X7Y463D01*
X121Y463D02*
X127Y463D01*
X149Y463D02*
X155Y463D01*
X175Y463D02*
X201Y463D01*
X235Y463D02*
X241Y463D01*
X286Y463D02*
X292Y463D01*
X336Y463D02*
X342Y463D01*
X350Y463D02*
X356Y463D01*
X1960Y463D02*
X1967Y463D01*
X0Y462D02*
X7Y462D01*
X121Y462D02*
X127Y462D01*
X149Y462D02*
X155Y462D01*
X175Y462D02*
X202Y462D01*
X235Y462D02*
X241Y462D01*
X286Y462D02*
X292Y462D01*
X336Y462D02*
X342Y462D01*
X350Y462D02*
X356Y462D01*
X1960Y462D02*
X1967Y462D01*
X0Y461D02*
X7Y461D01*
X121Y461D02*
X127Y461D01*
X149Y461D02*
X155Y461D01*
X174Y461D02*
X202Y461D01*
X235Y461D02*
X241Y461D01*
X286Y461D02*
X292Y461D01*
X336Y461D02*
X342Y461D01*
X350Y461D02*
X356Y461D01*
X1960Y461D02*
X1967Y461D01*
X0Y460D02*
X7Y460D01*
X121Y460D02*
X127Y460D01*
X149Y460D02*
X155Y460D01*
X174Y460D02*
X202Y460D01*
X235Y460D02*
X241Y460D01*
X286Y460D02*
X292Y460D01*
X336Y460D02*
X342Y460D01*
X350Y460D02*
X356Y460D01*
X1960Y460D02*
X1967Y460D01*
X0Y459D02*
X7Y459D01*
X121Y459D02*
X127Y459D01*
X148Y459D02*
X155Y459D01*
X174Y459D02*
X203Y459D01*
X235Y459D02*
X241Y459D01*
X286Y459D02*
X292Y459D01*
X336Y459D02*
X342Y459D01*
X350Y459D02*
X356Y459D01*
X1960Y459D02*
X1967Y459D01*
X0Y458D02*
X7Y458D01*
X121Y458D02*
X127Y458D01*
X148Y458D02*
X154Y458D01*
X173Y458D02*
X180Y458D01*
X197Y458D02*
X203Y458D01*
X235Y458D02*
X241Y458D01*
X286Y458D02*
X292Y458D01*
X336Y458D02*
X342Y458D01*
X350Y458D02*
X356Y458D01*
X1960Y458D02*
X1967Y458D01*
X0Y457D02*
X7Y457D01*
X121Y457D02*
X127Y457D01*
X147Y457D02*
X154Y457D01*
X173Y457D02*
X179Y457D01*
X197Y457D02*
X203Y457D01*
X235Y457D02*
X241Y457D01*
X286Y457D02*
X292Y457D01*
X336Y457D02*
X342Y457D01*
X350Y457D02*
X356Y457D01*
X1960Y457D02*
X1967Y457D01*
X0Y456D02*
X7Y456D01*
X121Y456D02*
X127Y456D01*
X147Y456D02*
X154Y456D01*
X173Y456D02*
X179Y456D01*
X197Y456D02*
X203Y456D01*
X235Y456D02*
X241Y456D01*
X286Y456D02*
X292Y456D01*
X336Y456D02*
X342Y456D01*
X350Y456D02*
X356Y456D01*
X1960Y456D02*
X1967Y456D01*
X0Y455D02*
X7Y455D01*
X121Y455D02*
X127Y455D01*
X145Y455D02*
X153Y455D01*
X172Y455D02*
X179Y455D01*
X197Y455D02*
X204Y455D01*
X235Y455D02*
X241Y455D01*
X286Y455D02*
X292Y455D01*
X336Y455D02*
X342Y455D01*
X350Y455D02*
X356Y455D01*
X1960Y455D02*
X1967Y455D01*
X0Y454D02*
X7Y454D01*
X121Y454D02*
X128Y454D01*
X142Y454D02*
X153Y454D01*
X172Y454D02*
X179Y454D01*
X198Y454D02*
X204Y454D01*
X235Y454D02*
X241Y454D01*
X286Y454D02*
X292Y454D01*
X335Y454D02*
X342Y454D01*
X349Y454D02*
X356Y454D01*
X1960Y454D02*
X1967Y454D01*
X0Y453D02*
X7Y453D01*
X121Y453D02*
X152Y453D01*
X172Y453D02*
X178Y453D01*
X198Y453D02*
X204Y453D01*
X235Y453D02*
X241Y453D01*
X286Y453D02*
X292Y453D01*
X323Y453D02*
X356Y453D01*
X1960Y453D02*
X1967Y453D01*
X0Y452D02*
X7Y452D01*
X121Y452D02*
X151Y452D01*
X172Y452D02*
X178Y452D01*
X198Y452D02*
X205Y452D01*
X235Y452D02*
X241Y452D01*
X286Y452D02*
X292Y452D01*
X322Y452D02*
X356Y452D01*
X1960Y452D02*
X1967Y452D01*
X0Y451D02*
X7Y451D01*
X121Y451D02*
X150Y451D01*
X171Y451D02*
X178Y451D01*
X199Y451D02*
X205Y451D01*
X235Y451D02*
X241Y451D01*
X286Y451D02*
X292Y451D01*
X322Y451D02*
X356Y451D01*
X1960Y451D02*
X1967Y451D01*
X0Y450D02*
X7Y450D01*
X121Y450D02*
X149Y450D01*
X171Y450D02*
X177Y450D01*
X199Y450D02*
X205Y450D01*
X235Y450D02*
X241Y450D01*
X286Y450D02*
X291Y450D01*
X322Y450D02*
X355Y450D01*
X1960Y450D02*
X1967Y450D01*
X0Y449D02*
X7Y449D01*
X121Y449D02*
X148Y449D01*
X172Y449D02*
X177Y449D01*
X199Y449D02*
X205Y449D01*
X236Y449D02*
X241Y449D01*
X286Y449D02*
X291Y449D01*
X322Y449D02*
X355Y449D01*
X1960Y449D02*
X1967Y449D01*
X0Y448D02*
X7Y448D01*
X121Y448D02*
X146Y448D01*
X172Y448D02*
X176Y448D01*
X200Y448D02*
X204Y448D01*
X236Y448D02*
X240Y448D01*
X287Y448D02*
X290Y448D01*
X323Y448D02*
X354Y448D01*
X1960Y448D02*
X1967Y448D01*
X0Y447D02*
X7Y447D01*
X122Y447D02*
X142Y447D01*
X174Y447D02*
X174Y447D01*
X202Y447D02*
X202Y447D01*
X238Y447D02*
X238Y447D01*
X325Y447D02*
X352Y447D01*
X1960Y447D02*
X1967Y447D01*
X0Y446D02*
X7Y446D01*
X1960Y446D02*
X1967Y446D01*
X0Y445D02*
X7Y445D01*
X1960Y445D02*
X1967Y445D01*
X0Y444D02*
X7Y444D01*
X1960Y444D02*
X1967Y444D01*
X0Y443D02*
X7Y443D01*
X1960Y443D02*
X1967Y443D01*
X0Y442D02*
X7Y442D01*
X1960Y442D02*
X1967Y442D01*
X0Y441D02*
X7Y441D01*
X1960Y441D02*
X1967Y441D01*
X0Y440D02*
X7Y440D01*
X1960Y440D02*
X1967Y440D01*
X0Y439D02*
X7Y439D01*
X1960Y439D02*
X1967Y439D01*
X0Y438D02*
X7Y438D01*
X1960Y438D02*
X1967Y438D01*
X0Y437D02*
X7Y437D01*
X1960Y437D02*
X1967Y437D01*
X0Y436D02*
X7Y436D01*
X1960Y436D02*
X1967Y436D01*
X0Y435D02*
X7Y435D01*
X1960Y435D02*
X1967Y435D01*
X0Y434D02*
X7Y434D01*
X1960Y434D02*
X1967Y434D01*
X0Y433D02*
X7Y433D01*
X1960Y433D02*
X1967Y433D01*
X0Y432D02*
X7Y432D01*
X1960Y432D02*
X1967Y432D01*
X0Y431D02*
X7Y431D01*
X1960Y431D02*
X1967Y431D01*
X0Y430D02*
X7Y430D01*
X1960Y430D02*
X1967Y430D01*
X0Y429D02*
X7Y429D01*
X1960Y429D02*
X1967Y429D01*
X0Y428D02*
X7Y428D01*
X1960Y428D02*
X1967Y428D01*
X0Y427D02*
X7Y427D01*
X1960Y427D02*
X1967Y427D01*
X0Y426D02*
X7Y426D01*
X1960Y426D02*
X1967Y426D01*
X0Y425D02*
X7Y425D01*
X1960Y425D02*
X1967Y425D01*
X0Y424D02*
X7Y424D01*
X1960Y424D02*
X1967Y424D01*
X0Y423D02*
X7Y423D01*
X1960Y423D02*
X1967Y423D01*
X0Y422D02*
X7Y422D01*
X1960Y422D02*
X1967Y422D01*
X0Y421D02*
X7Y421D01*
X478Y421D02*
X480Y421D01*
X668Y421D02*
X670Y421D01*
X1960Y421D02*
X1967Y421D01*
X0Y420D02*
X7Y420D01*
X476Y420D02*
X482Y420D01*
X666Y420D02*
X672Y420D01*
X1960Y420D02*
X1967Y420D01*
X0Y419D02*
X7Y419D01*
X475Y419D02*
X483Y419D01*
X665Y419D02*
X673Y419D01*
X1960Y419D02*
X1967Y419D01*
X0Y418D02*
X7Y418D01*
X474Y418D02*
X483Y418D01*
X664Y418D02*
X673Y418D01*
X1960Y418D02*
X1967Y418D01*
X0Y417D02*
X7Y417D01*
X474Y417D02*
X484Y417D01*
X664Y417D02*
X674Y417D01*
X1960Y417D02*
X1967Y417D01*
X0Y416D02*
X7Y416D01*
X474Y416D02*
X484Y416D01*
X664Y416D02*
X674Y416D01*
X1960Y416D02*
X1967Y416D01*
X0Y415D02*
X7Y415D01*
X474Y415D02*
X484Y415D01*
X664Y415D02*
X674Y415D01*
X1960Y415D02*
X1967Y415D01*
X0Y414D02*
X7Y414D01*
X474Y414D02*
X484Y414D01*
X664Y414D02*
X674Y414D01*
X1960Y414D02*
X1967Y414D01*
X0Y413D02*
X7Y413D01*
X474Y413D02*
X484Y413D01*
X664Y413D02*
X674Y413D01*
X1048Y413D02*
X1075Y413D01*
X1100Y413D02*
X1128Y413D01*
X1960Y413D02*
X1967Y413D01*
X0Y412D02*
X7Y412D01*
X474Y412D02*
X484Y412D01*
X664Y412D02*
X674Y412D01*
X1048Y412D02*
X1077Y412D01*
X1099Y412D02*
X1129Y412D01*
X1960Y412D02*
X1967Y412D01*
X0Y411D02*
X7Y411D01*
X474Y411D02*
X484Y411D01*
X664Y411D02*
X674Y411D01*
X1048Y411D02*
X1078Y411D01*
X1099Y411D02*
X1130Y411D01*
X1960Y411D02*
X1967Y411D01*
X0Y410D02*
X7Y410D01*
X474Y410D02*
X484Y410D01*
X664Y410D02*
X674Y410D01*
X1048Y410D02*
X1079Y410D01*
X1099Y410D02*
X1131Y410D01*
X1960Y410D02*
X1967Y410D01*
X0Y409D02*
X7Y409D01*
X474Y409D02*
X484Y409D01*
X664Y409D02*
X674Y409D01*
X1048Y409D02*
X1080Y409D01*
X1099Y409D02*
X1132Y409D01*
X1960Y409D02*
X1967Y409D01*
X0Y408D02*
X7Y408D01*
X474Y408D02*
X484Y408D01*
X664Y408D02*
X674Y408D01*
X1048Y408D02*
X1081Y408D01*
X1099Y408D02*
X1132Y408D01*
X1960Y408D02*
X1967Y408D01*
X0Y407D02*
X7Y407D01*
X474Y407D02*
X484Y407D01*
X664Y407D02*
X674Y407D01*
X1048Y407D02*
X1081Y407D01*
X1100Y407D02*
X1132Y407D01*
X1960Y407D02*
X1967Y407D01*
X0Y406D02*
X7Y406D01*
X474Y406D02*
X484Y406D01*
X664Y406D02*
X674Y406D01*
X1048Y406D02*
X1054Y406D01*
X1074Y406D02*
X1081Y406D01*
X1126Y406D02*
X1132Y406D01*
X1960Y406D02*
X1967Y406D01*
X0Y405D02*
X7Y405D01*
X474Y405D02*
X484Y405D01*
X664Y405D02*
X674Y405D01*
X1048Y405D02*
X1054Y405D01*
X1075Y405D02*
X1082Y405D01*
X1126Y405D02*
X1132Y405D01*
X1960Y405D02*
X1967Y405D01*
X0Y404D02*
X7Y404D01*
X474Y404D02*
X484Y404D01*
X664Y404D02*
X674Y404D01*
X1048Y404D02*
X1054Y404D01*
X1076Y404D02*
X1082Y404D01*
X1126Y404D02*
X1132Y404D01*
X1960Y404D02*
X1967Y404D01*
X0Y403D02*
X7Y403D01*
X474Y403D02*
X484Y403D01*
X664Y403D02*
X674Y403D01*
X1048Y403D02*
X1054Y403D01*
X1076Y403D02*
X1082Y403D01*
X1126Y403D02*
X1132Y403D01*
X1960Y403D02*
X1967Y403D01*
X0Y402D02*
X7Y402D01*
X474Y402D02*
X484Y402D01*
X664Y402D02*
X674Y402D01*
X1048Y402D02*
X1054Y402D01*
X1076Y402D02*
X1082Y402D01*
X1126Y402D02*
X1132Y402D01*
X1960Y402D02*
X1967Y402D01*
X0Y401D02*
X7Y401D01*
X474Y401D02*
X484Y401D01*
X664Y401D02*
X674Y401D01*
X1048Y401D02*
X1054Y401D01*
X1076Y401D02*
X1082Y401D01*
X1126Y401D02*
X1132Y401D01*
X1960Y401D02*
X1967Y401D01*
X0Y400D02*
X7Y400D01*
X474Y400D02*
X484Y400D01*
X664Y400D02*
X674Y400D01*
X1048Y400D02*
X1054Y400D01*
X1076Y400D02*
X1082Y400D01*
X1126Y400D02*
X1132Y400D01*
X1960Y400D02*
X1967Y400D01*
X0Y399D02*
X7Y399D01*
X474Y399D02*
X484Y399D01*
X664Y399D02*
X674Y399D01*
X1048Y399D02*
X1054Y399D01*
X1076Y399D02*
X1082Y399D01*
X1126Y399D02*
X1132Y399D01*
X1960Y399D02*
X1967Y399D01*
X0Y398D02*
X7Y398D01*
X474Y398D02*
X484Y398D01*
X664Y398D02*
X674Y398D01*
X1048Y398D02*
X1054Y398D01*
X1076Y398D02*
X1082Y398D01*
X1126Y398D02*
X1132Y398D01*
X1960Y398D02*
X1967Y398D01*
X0Y397D02*
X7Y397D01*
X474Y397D02*
X484Y397D01*
X664Y397D02*
X674Y397D01*
X1048Y397D02*
X1054Y397D01*
X1075Y397D02*
X1082Y397D01*
X1126Y397D02*
X1132Y397D01*
X1960Y397D02*
X1967Y397D01*
X0Y396D02*
X7Y396D01*
X474Y396D02*
X484Y396D01*
X664Y396D02*
X674Y396D01*
X1048Y396D02*
X1055Y396D01*
X1073Y396D02*
X1081Y396D01*
X1126Y396D02*
X1132Y396D01*
X1960Y396D02*
X1967Y396D01*
X0Y395D02*
X7Y395D01*
X474Y395D02*
X484Y395D01*
X664Y395D02*
X674Y395D01*
X916Y395D02*
X983Y395D01*
X1048Y395D02*
X1081Y395D01*
X1126Y395D02*
X1132Y395D01*
X1184Y395D02*
X1231Y395D01*
X1960Y395D02*
X1967Y395D01*
X0Y394D02*
X7Y394D01*
X474Y394D02*
X484Y394D01*
X664Y394D02*
X674Y394D01*
X916Y394D02*
X983Y394D01*
X1048Y394D02*
X1080Y394D01*
X1126Y394D02*
X1132Y394D01*
X1184Y394D02*
X1231Y394D01*
X1960Y394D02*
X1967Y394D01*
X0Y393D02*
X7Y393D01*
X474Y393D02*
X484Y393D01*
X664Y393D02*
X674Y393D01*
X917Y393D02*
X983Y393D01*
X1048Y393D02*
X1080Y393D01*
X1126Y393D02*
X1132Y393D01*
X1184Y393D02*
X1231Y393D01*
X1960Y393D02*
X1967Y393D01*
X0Y392D02*
X7Y392D01*
X474Y392D02*
X484Y392D01*
X664Y392D02*
X674Y392D01*
X917Y392D02*
X983Y392D01*
X1048Y392D02*
X1079Y392D01*
X1126Y392D02*
X1132Y392D01*
X1184Y392D02*
X1231Y392D01*
X1960Y392D02*
X1967Y392D01*
X0Y391D02*
X7Y391D01*
X474Y391D02*
X484Y391D01*
X664Y391D02*
X674Y391D01*
X917Y391D02*
X983Y391D01*
X1048Y391D02*
X1078Y391D01*
X1126Y391D02*
X1132Y391D01*
X1184Y391D02*
X1231Y391D01*
X1960Y391D02*
X1967Y391D01*
X0Y390D02*
X7Y390D01*
X474Y390D02*
X484Y390D01*
X664Y390D02*
X674Y390D01*
X917Y390D02*
X983Y390D01*
X1048Y390D02*
X1076Y390D01*
X1126Y390D02*
X1132Y390D01*
X1184Y390D02*
X1231Y390D01*
X1960Y390D02*
X1967Y390D01*
X0Y389D02*
X7Y389D01*
X474Y389D02*
X484Y389D01*
X664Y389D02*
X674Y389D01*
X917Y389D02*
X983Y389D01*
X1048Y389D02*
X1073Y389D01*
X1102Y389D02*
X1132Y389D01*
X1184Y389D02*
X1231Y389D01*
X1960Y389D02*
X1967Y389D01*
X0Y388D02*
X7Y388D01*
X474Y388D02*
X484Y388D01*
X664Y388D02*
X674Y388D01*
X917Y388D02*
X983Y388D01*
X1048Y388D02*
X1054Y388D01*
X1061Y388D02*
X1068Y388D01*
X1101Y388D02*
X1132Y388D01*
X1184Y388D02*
X1231Y388D01*
X1960Y388D02*
X1967Y388D01*
X0Y387D02*
X7Y387D01*
X474Y387D02*
X484Y387D01*
X664Y387D02*
X674Y387D01*
X916Y387D02*
X983Y387D01*
X1048Y387D02*
X1054Y387D01*
X1061Y387D02*
X1068Y387D01*
X1100Y387D02*
X1131Y387D01*
X1184Y387D02*
X1231Y387D01*
X1960Y387D02*
X1967Y387D01*
X0Y386D02*
X7Y386D01*
X474Y386D02*
X484Y386D01*
X664Y386D02*
X674Y386D01*
X916Y386D02*
X983Y386D01*
X1048Y386D02*
X1054Y386D01*
X1062Y386D02*
X1069Y386D01*
X1099Y386D02*
X1131Y386D01*
X1184Y386D02*
X1231Y386D01*
X1960Y386D02*
X1967Y386D01*
X0Y385D02*
X7Y385D01*
X474Y385D02*
X484Y385D01*
X664Y385D02*
X674Y385D01*
X1048Y385D02*
X1054Y385D01*
X1062Y385D02*
X1070Y385D01*
X1099Y385D02*
X1130Y385D01*
X1960Y385D02*
X1967Y385D01*
X0Y384D02*
X7Y384D01*
X474Y384D02*
X484Y384D01*
X664Y384D02*
X674Y384D01*
X1048Y384D02*
X1054Y384D01*
X1063Y384D02*
X1070Y384D01*
X1099Y384D02*
X1129Y384D01*
X1960Y384D02*
X1967Y384D01*
X0Y383D02*
X7Y383D01*
X474Y383D02*
X484Y383D01*
X664Y383D02*
X674Y383D01*
X1048Y383D02*
X1054Y383D01*
X1064Y383D02*
X1071Y383D01*
X1099Y383D02*
X1125Y383D01*
X1960Y383D02*
X1967Y383D01*
X0Y382D02*
X7Y382D01*
X474Y382D02*
X484Y382D01*
X664Y382D02*
X674Y382D01*
X1048Y382D02*
X1054Y382D01*
X1064Y382D02*
X1071Y382D01*
X1099Y382D02*
X1105Y382D01*
X1960Y382D02*
X1967Y382D01*
X0Y381D02*
X7Y381D01*
X474Y381D02*
X484Y381D01*
X664Y381D02*
X674Y381D01*
X1048Y381D02*
X1054Y381D01*
X1065Y381D02*
X1072Y381D01*
X1099Y381D02*
X1105Y381D01*
X1960Y381D02*
X1967Y381D01*
X0Y380D02*
X7Y380D01*
X474Y380D02*
X484Y380D01*
X664Y380D02*
X674Y380D01*
X1048Y380D02*
X1054Y380D01*
X1065Y380D02*
X1072Y380D01*
X1099Y380D02*
X1105Y380D01*
X1960Y380D02*
X1967Y380D01*
X0Y379D02*
X7Y379D01*
X474Y379D02*
X484Y379D01*
X664Y379D02*
X674Y379D01*
X1048Y379D02*
X1054Y379D01*
X1066Y379D02*
X1073Y379D01*
X1099Y379D02*
X1105Y379D01*
X1960Y379D02*
X1967Y379D01*
X0Y378D02*
X7Y378D01*
X474Y378D02*
X484Y378D01*
X664Y378D02*
X674Y378D01*
X1048Y378D02*
X1054Y378D01*
X1066Y378D02*
X1074Y378D01*
X1099Y378D02*
X1105Y378D01*
X1960Y378D02*
X1967Y378D01*
X0Y377D02*
X7Y377D01*
X474Y377D02*
X484Y377D01*
X664Y377D02*
X674Y377D01*
X1048Y377D02*
X1054Y377D01*
X1067Y377D02*
X1074Y377D01*
X1099Y377D02*
X1105Y377D01*
X1960Y377D02*
X1967Y377D01*
X0Y376D02*
X7Y376D01*
X474Y376D02*
X484Y376D01*
X664Y376D02*
X674Y376D01*
X1048Y376D02*
X1054Y376D01*
X1068Y376D02*
X1075Y376D01*
X1099Y376D02*
X1105Y376D01*
X1960Y376D02*
X1967Y376D01*
X0Y375D02*
X7Y375D01*
X474Y375D02*
X484Y375D01*
X664Y375D02*
X674Y375D01*
X1048Y375D02*
X1054Y375D01*
X1068Y375D02*
X1075Y375D01*
X1099Y375D02*
X1105Y375D01*
X1960Y375D02*
X1967Y375D01*
X0Y374D02*
X7Y374D01*
X474Y374D02*
X484Y374D01*
X664Y374D02*
X674Y374D01*
X1048Y374D02*
X1054Y374D01*
X1069Y374D02*
X1076Y374D01*
X1099Y374D02*
X1105Y374D01*
X1960Y374D02*
X1967Y374D01*
X0Y373D02*
X7Y373D01*
X474Y373D02*
X484Y373D01*
X664Y373D02*
X674Y373D01*
X1048Y373D02*
X1054Y373D01*
X1069Y373D02*
X1077Y373D01*
X1099Y373D02*
X1105Y373D01*
X1960Y373D02*
X1967Y373D01*
X0Y372D02*
X7Y372D01*
X474Y372D02*
X484Y372D01*
X664Y372D02*
X674Y372D01*
X1048Y372D02*
X1054Y372D01*
X1070Y372D02*
X1077Y372D01*
X1099Y372D02*
X1105Y372D01*
X1960Y372D02*
X1967Y372D01*
X0Y371D02*
X7Y371D01*
X474Y371D02*
X484Y371D01*
X664Y371D02*
X674Y371D01*
X1048Y371D02*
X1054Y371D01*
X1071Y371D02*
X1078Y371D01*
X1099Y371D02*
X1105Y371D01*
X1960Y371D02*
X1967Y371D01*
X0Y370D02*
X7Y370D01*
X474Y370D02*
X484Y370D01*
X664Y370D02*
X674Y370D01*
X1048Y370D02*
X1054Y370D01*
X1071Y370D02*
X1078Y370D01*
X1099Y370D02*
X1105Y370D01*
X1960Y370D02*
X1967Y370D01*
X0Y369D02*
X7Y369D01*
X474Y369D02*
X484Y369D01*
X664Y369D02*
X674Y369D01*
X1048Y369D02*
X1054Y369D01*
X1072Y369D02*
X1079Y369D01*
X1099Y369D02*
X1105Y369D01*
X1960Y369D02*
X1967Y369D01*
X0Y368D02*
X7Y368D01*
X474Y368D02*
X484Y368D01*
X664Y368D02*
X674Y368D01*
X1048Y368D02*
X1054Y368D01*
X1072Y368D02*
X1080Y368D01*
X1099Y368D02*
X1105Y368D01*
X1960Y368D02*
X1967Y368D01*
X0Y367D02*
X7Y367D01*
X474Y367D02*
X484Y367D01*
X664Y367D02*
X674Y367D01*
X1048Y367D02*
X1054Y367D01*
X1073Y367D02*
X1080Y367D01*
X1099Y367D02*
X1105Y367D01*
X1960Y367D02*
X1967Y367D01*
X0Y366D02*
X7Y366D01*
X474Y366D02*
X484Y366D01*
X664Y366D02*
X674Y366D01*
X1048Y366D02*
X1054Y366D01*
X1073Y366D02*
X1081Y366D01*
X1099Y366D02*
X1130Y366D01*
X1960Y366D02*
X1967Y366D01*
X0Y365D02*
X7Y365D01*
X474Y365D02*
X484Y365D01*
X664Y365D02*
X674Y365D01*
X1048Y365D02*
X1054Y365D01*
X1074Y365D02*
X1081Y365D01*
X1099Y365D02*
X1131Y365D01*
X1960Y365D02*
X1967Y365D01*
X0Y364D02*
X7Y364D01*
X474Y364D02*
X484Y364D01*
X664Y364D02*
X674Y364D01*
X1048Y364D02*
X1054Y364D01*
X1075Y364D02*
X1082Y364D01*
X1099Y364D02*
X1132Y364D01*
X1960Y364D02*
X1967Y364D01*
X0Y363D02*
X7Y363D01*
X474Y363D02*
X483Y363D01*
X664Y363D02*
X673Y363D01*
X1048Y363D02*
X1054Y363D01*
X1075Y363D02*
X1082Y363D01*
X1099Y363D02*
X1132Y363D01*
X1960Y363D02*
X1967Y363D01*
X0Y362D02*
X7Y362D01*
X475Y362D02*
X482Y362D01*
X665Y362D02*
X672Y362D01*
X1049Y362D02*
X1054Y362D01*
X1076Y362D02*
X1082Y362D01*
X1099Y362D02*
X1132Y362D01*
X1960Y362D02*
X1967Y362D01*
X0Y361D02*
X7Y361D01*
X476Y361D02*
X481Y361D01*
X666Y361D02*
X671Y361D01*
X1049Y361D02*
X1054Y361D01*
X1076Y361D02*
X1081Y361D01*
X1099Y361D02*
X1131Y361D01*
X1960Y361D02*
X1967Y361D01*
X0Y360D02*
X7Y360D01*
X1050Y360D02*
X1053Y360D01*
X1077Y360D02*
X1080Y360D01*
X1099Y360D02*
X1130Y360D01*
X1960Y360D02*
X1967Y360D01*
X0Y359D02*
X7Y359D01*
X1960Y359D02*
X1967Y359D01*
X0Y358D02*
X7Y358D01*
X1960Y358D02*
X1967Y358D01*
X0Y357D02*
X7Y357D01*
X1960Y357D02*
X1967Y357D01*
X0Y356D02*
X7Y356D01*
X1960Y356D02*
X1967Y356D01*
X0Y355D02*
X7Y355D01*
X1960Y355D02*
X1967Y355D01*
X0Y354D02*
X7Y354D01*
X1960Y354D02*
X1967Y354D01*
X0Y353D02*
X7Y353D01*
X1960Y353D02*
X1967Y353D01*
X0Y352D02*
X7Y352D01*
X1960Y352D02*
X1967Y352D01*
X0Y351D02*
X7Y351D01*
X1960Y351D02*
X1967Y351D01*
X0Y350D02*
X7Y350D01*
X1960Y350D02*
X1967Y350D01*
X0Y349D02*
X7Y349D01*
X1960Y349D02*
X1967Y349D01*
X0Y348D02*
X7Y348D01*
X1960Y348D02*
X1967Y348D01*
X0Y347D02*
X7Y347D01*
X1960Y347D02*
X1967Y347D01*
X0Y346D02*
X7Y346D01*
X1960Y346D02*
X1967Y346D01*
X0Y345D02*
X7Y345D01*
X1960Y345D02*
X1967Y345D01*
X0Y344D02*
X7Y344D01*
X1960Y344D02*
X1967Y344D01*
X0Y343D02*
X7Y343D01*
X1960Y343D02*
X1967Y343D01*
X0Y342D02*
X7Y342D01*
X1960Y342D02*
X1967Y342D01*
X0Y341D02*
X7Y341D01*
X1960Y341D02*
X1967Y341D01*
X0Y340D02*
X7Y340D01*
X1960Y340D02*
X1967Y340D01*
X0Y339D02*
X7Y339D01*
X1960Y339D02*
X1967Y339D01*
X0Y338D02*
X7Y338D01*
X1746Y338D02*
X1764Y338D01*
X1792Y338D02*
X1817Y338D01*
X1960Y338D02*
X1967Y338D01*
X0Y337D02*
X7Y337D01*
X1743Y337D02*
X1768Y337D01*
X1790Y337D02*
X1819Y337D01*
X1960Y337D02*
X1967Y337D01*
X0Y336D02*
X7Y336D01*
X1742Y336D02*
X1769Y336D01*
X1790Y336D02*
X1821Y336D01*
X1960Y336D02*
X1967Y336D01*
X0Y335D02*
X7Y335D01*
X1741Y335D02*
X1770Y335D01*
X1789Y335D02*
X1822Y335D01*
X1960Y335D02*
X1967Y335D01*
X0Y334D02*
X7Y334D01*
X1740Y334D02*
X1771Y334D01*
X1789Y334D02*
X1822Y334D01*
X1960Y334D02*
X1967Y334D01*
X0Y333D02*
X7Y333D01*
X1740Y333D02*
X1772Y333D01*
X1790Y333D02*
X1823Y333D01*
X1960Y333D02*
X1967Y333D01*
X0Y332D02*
X7Y332D01*
X1739Y332D02*
X1772Y332D01*
X1791Y332D02*
X1823Y332D01*
X1960Y332D02*
X1967Y332D01*
X0Y331D02*
X7Y331D01*
X1739Y331D02*
X1746Y331D01*
X1765Y331D02*
X1772Y331D01*
X1816Y331D02*
X1823Y331D01*
X1960Y331D02*
X1967Y331D01*
X0Y330D02*
X7Y330D01*
X1739Y330D02*
X1745Y330D01*
X1766Y330D02*
X1773Y330D01*
X1817Y330D02*
X1823Y330D01*
X1960Y330D02*
X1967Y330D01*
X0Y329D02*
X7Y329D01*
X1739Y329D02*
X1746Y329D01*
X1767Y329D02*
X1773Y329D01*
X1817Y329D02*
X1823Y329D01*
X1960Y329D02*
X1967Y329D01*
X0Y328D02*
X7Y328D01*
X1739Y328D02*
X1747Y328D01*
X1767Y328D02*
X1772Y328D01*
X1817Y328D02*
X1823Y328D01*
X1960Y328D02*
X1967Y328D01*
X0Y327D02*
X7Y327D01*
X1740Y327D02*
X1747Y327D01*
X1767Y327D02*
X1772Y327D01*
X1817Y327D02*
X1823Y327D01*
X1960Y327D02*
X1967Y327D01*
X0Y326D02*
X7Y326D01*
X1740Y326D02*
X1748Y326D01*
X1768Y326D02*
X1771Y326D01*
X1817Y326D02*
X1823Y326D01*
X1960Y326D02*
X1967Y326D01*
X0Y325D02*
X7Y325D01*
X1741Y325D02*
X1749Y325D01*
X1817Y325D02*
X1823Y325D01*
X1960Y325D02*
X1967Y325D01*
X0Y324D02*
X7Y324D01*
X1742Y324D02*
X1750Y324D01*
X1817Y324D02*
X1823Y324D01*
X1960Y324D02*
X1967Y324D01*
X0Y323D02*
X7Y323D01*
X1742Y323D02*
X1750Y323D01*
X1817Y323D02*
X1823Y323D01*
X1960Y323D02*
X1967Y323D01*
X0Y322D02*
X7Y322D01*
X1743Y322D02*
X1751Y322D01*
X1817Y322D02*
X1823Y322D01*
X1960Y322D02*
X1967Y322D01*
X0Y321D02*
X7Y321D01*
X1744Y321D02*
X1752Y321D01*
X1817Y321D02*
X1823Y321D01*
X1960Y321D02*
X1967Y321D01*
X0Y320D02*
X7Y320D01*
X1745Y320D02*
X1753Y320D01*
X1817Y320D02*
X1823Y320D01*
X1960Y320D02*
X1967Y320D01*
X0Y319D02*
X7Y319D01*
X1746Y319D02*
X1754Y319D01*
X1817Y319D02*
X1823Y319D01*
X1960Y319D02*
X1967Y319D01*
X0Y318D02*
X7Y318D01*
X1746Y318D02*
X1754Y318D01*
X1817Y318D02*
X1823Y318D01*
X1960Y318D02*
X1967Y318D01*
X0Y317D02*
X7Y317D01*
X1747Y317D02*
X1755Y317D01*
X1817Y317D02*
X1823Y317D01*
X1960Y317D02*
X1967Y317D01*
X0Y316D02*
X7Y316D01*
X1748Y316D02*
X1756Y316D01*
X1817Y316D02*
X1823Y316D01*
X1960Y316D02*
X1967Y316D01*
X0Y315D02*
X7Y315D01*
X1749Y315D02*
X1757Y315D01*
X1817Y315D02*
X1823Y315D01*
X1960Y315D02*
X1967Y315D01*
X0Y314D02*
X7Y314D01*
X1749Y314D02*
X1757Y314D01*
X1794Y314D02*
X1823Y314D01*
X1960Y314D02*
X1967Y314D01*
X0Y313D02*
X7Y313D01*
X1750Y313D02*
X1758Y313D01*
X1792Y313D02*
X1823Y313D01*
X1960Y313D02*
X1967Y313D01*
X0Y312D02*
X7Y312D01*
X1751Y312D02*
X1759Y312D01*
X1791Y312D02*
X1822Y312D01*
X1960Y312D02*
X1967Y312D01*
X0Y311D02*
X7Y311D01*
X1035Y311D02*
X1061Y311D01*
X1087Y311D02*
X1114Y311D01*
X1752Y311D02*
X1760Y311D01*
X1790Y311D02*
X1822Y311D01*
X1960Y311D02*
X1967Y311D01*
X0Y310D02*
X7Y310D01*
X238Y310D02*
X240Y310D01*
X1035Y310D02*
X1063Y310D01*
X1086Y310D02*
X1116Y310D01*
X1753Y310D02*
X1761Y310D01*
X1790Y310D02*
X1821Y310D01*
X1960Y310D02*
X1967Y310D01*
X0Y309D02*
X7Y309D01*
X237Y309D02*
X241Y309D01*
X1035Y309D02*
X1065Y309D01*
X1085Y309D02*
X1117Y309D01*
X1753Y309D02*
X1761Y309D01*
X1789Y309D02*
X1820Y309D01*
X1960Y309D02*
X1967Y309D01*
X0Y308D02*
X7Y308D01*
X237Y308D02*
X241Y308D01*
X1035Y308D02*
X1066Y308D01*
X1085Y308D02*
X1118Y308D01*
X1754Y308D02*
X1762Y308D01*
X1789Y308D02*
X1818Y308D01*
X1960Y308D02*
X1967Y308D01*
X0Y307D02*
X7Y307D01*
X237Y307D02*
X241Y307D01*
X1035Y307D02*
X1067Y307D01*
X1085Y307D02*
X1118Y307D01*
X1755Y307D02*
X1763Y307D01*
X1789Y307D02*
X1795Y307D01*
X1960Y307D02*
X1967Y307D01*
X0Y306D02*
X7Y306D01*
X237Y306D02*
X241Y306D01*
X1035Y306D02*
X1067Y306D01*
X1086Y306D02*
X1119Y306D01*
X1756Y306D02*
X1764Y306D01*
X1789Y306D02*
X1795Y306D01*
X1960Y306D02*
X1967Y306D01*
X0Y305D02*
X7Y305D01*
X237Y305D02*
X241Y305D01*
X547Y305D02*
X565Y305D01*
X584Y305D02*
X603Y305D01*
X1035Y305D02*
X1068Y305D01*
X1087Y305D02*
X1119Y305D01*
X1756Y305D02*
X1764Y305D01*
X1789Y305D02*
X1795Y305D01*
X1960Y305D02*
X1967Y305D01*
X0Y304D02*
X7Y304D01*
X237Y304D02*
X241Y304D01*
X545Y304D02*
X566Y304D01*
X584Y304D02*
X603Y304D01*
X1035Y304D02*
X1041Y304D01*
X1060Y304D02*
X1068Y304D01*
X1113Y304D02*
X1119Y304D01*
X1757Y304D02*
X1765Y304D01*
X1789Y304D02*
X1795Y304D01*
X1960Y304D02*
X1967Y304D01*
X0Y303D02*
X7Y303D01*
X237Y303D02*
X241Y303D01*
X544Y303D02*
X566Y303D01*
X583Y303D02*
X603Y303D01*
X1035Y303D02*
X1041Y303D01*
X1062Y303D02*
X1068Y303D01*
X1113Y303D02*
X1119Y303D01*
X1758Y303D02*
X1766Y303D01*
X1789Y303D02*
X1795Y303D01*
X1960Y303D02*
X1967Y303D01*
X0Y302D02*
X7Y302D01*
X237Y302D02*
X241Y302D01*
X543Y302D02*
X566Y302D01*
X583Y302D02*
X603Y302D01*
X1035Y302D02*
X1041Y302D01*
X1062Y302D02*
X1069Y302D01*
X1113Y302D02*
X1119Y302D01*
X1759Y302D02*
X1767Y302D01*
X1789Y302D02*
X1795Y302D01*
X1960Y302D02*
X1967Y302D01*
X0Y301D02*
X7Y301D01*
X237Y301D02*
X241Y301D01*
X542Y301D02*
X566Y301D01*
X583Y301D02*
X603Y301D01*
X1035Y301D02*
X1041Y301D01*
X1063Y301D02*
X1069Y301D01*
X1113Y301D02*
X1119Y301D01*
X1760Y301D02*
X1768Y301D01*
X1789Y301D02*
X1795Y301D01*
X1960Y301D02*
X1967Y301D01*
X0Y300D02*
X7Y300D01*
X237Y300D02*
X241Y300D01*
X542Y300D02*
X565Y300D01*
X584Y300D02*
X603Y300D01*
X1035Y300D02*
X1041Y300D01*
X1063Y300D02*
X1069Y300D01*
X1113Y300D02*
X1119Y300D01*
X1760Y300D02*
X1768Y300D01*
X1789Y300D02*
X1795Y300D01*
X1960Y300D02*
X1967Y300D01*
X0Y299D02*
X7Y299D01*
X237Y299D02*
X241Y299D01*
X541Y299D02*
X564Y299D01*
X586Y299D02*
X603Y299D01*
X1035Y299D02*
X1041Y299D01*
X1063Y299D02*
X1069Y299D01*
X1113Y299D02*
X1119Y299D01*
X1761Y299D02*
X1769Y299D01*
X1789Y299D02*
X1795Y299D01*
X1960Y299D02*
X1967Y299D01*
X0Y298D02*
X7Y298D01*
X237Y298D02*
X241Y298D01*
X541Y298D02*
X548Y298D01*
X597Y298D02*
X603Y298D01*
X1035Y298D02*
X1041Y298D01*
X1063Y298D02*
X1069Y298D01*
X1113Y298D02*
X1119Y298D01*
X1762Y298D02*
X1770Y298D01*
X1789Y298D02*
X1795Y298D01*
X1960Y298D02*
X1967Y298D01*
X0Y297D02*
X7Y297D01*
X237Y297D02*
X241Y297D01*
X540Y297D02*
X547Y297D01*
X597Y297D02*
X603Y297D01*
X1035Y297D02*
X1041Y297D01*
X1063Y297D02*
X1069Y297D01*
X1113Y297D02*
X1119Y297D01*
X1763Y297D02*
X1771Y297D01*
X1789Y297D02*
X1795Y297D01*
X1960Y297D02*
X1967Y297D01*
X0Y296D02*
X7Y296D01*
X237Y296D02*
X241Y296D01*
X540Y296D02*
X547Y296D01*
X597Y296D02*
X603Y296D01*
X1035Y296D02*
X1041Y296D01*
X1062Y296D02*
X1069Y296D01*
X1113Y296D02*
X1119Y296D01*
X1740Y296D02*
X1744Y296D01*
X1763Y296D02*
X1771Y296D01*
X1789Y296D02*
X1795Y296D01*
X1960Y296D02*
X1967Y296D01*
X0Y295D02*
X7Y295D01*
X237Y295D02*
X241Y295D01*
X539Y295D02*
X546Y295D01*
X597Y295D02*
X603Y295D01*
X916Y295D02*
X983Y295D01*
X1035Y295D02*
X1041Y295D01*
X1062Y295D02*
X1068Y295D01*
X1113Y295D02*
X1119Y295D01*
X1184Y295D02*
X1231Y295D01*
X1740Y295D02*
X1745Y295D01*
X1764Y295D02*
X1772Y295D01*
X1789Y295D02*
X1795Y295D01*
X1960Y295D02*
X1967Y295D01*
X0Y294D02*
X7Y294D01*
X237Y294D02*
X241Y294D01*
X539Y294D02*
X546Y294D01*
X597Y294D02*
X603Y294D01*
X916Y294D02*
X983Y294D01*
X1035Y294D02*
X1041Y294D01*
X1060Y294D02*
X1068Y294D01*
X1113Y294D02*
X1119Y294D01*
X1184Y294D02*
X1231Y294D01*
X1739Y294D02*
X1745Y294D01*
X1765Y294D02*
X1772Y294D01*
X1789Y294D02*
X1795Y294D01*
X1960Y294D02*
X1967Y294D01*
X0Y293D02*
X7Y293D01*
X221Y293D02*
X257Y293D01*
X538Y293D02*
X545Y293D01*
X597Y293D02*
X603Y293D01*
X917Y293D02*
X983Y293D01*
X1035Y293D02*
X1068Y293D01*
X1113Y293D02*
X1119Y293D01*
X1184Y293D02*
X1231Y293D01*
X1739Y293D02*
X1745Y293D01*
X1766Y293D02*
X1773Y293D01*
X1789Y293D02*
X1795Y293D01*
X1960Y293D02*
X1967Y293D01*
X0Y292D02*
X7Y292D01*
X220Y292D02*
X258Y292D01*
X538Y292D02*
X545Y292D01*
X597Y292D02*
X603Y292D01*
X917Y292D02*
X983Y292D01*
X1035Y292D02*
X1067Y292D01*
X1113Y292D02*
X1119Y292D01*
X1184Y292D02*
X1231Y292D01*
X1739Y292D02*
X1746Y292D01*
X1766Y292D02*
X1773Y292D01*
X1789Y292D02*
X1795Y292D01*
X1960Y292D02*
X1967Y292D01*
X0Y291D02*
X7Y291D01*
X219Y291D02*
X258Y291D01*
X537Y291D02*
X544Y291D01*
X597Y291D02*
X603Y291D01*
X917Y291D02*
X983Y291D01*
X1035Y291D02*
X1067Y291D01*
X1113Y291D02*
X1119Y291D01*
X1184Y291D02*
X1231Y291D01*
X1739Y291D02*
X1748Y291D01*
X1765Y291D02*
X1773Y291D01*
X1789Y291D02*
X1796Y291D01*
X1960Y291D02*
X1967Y291D01*
X0Y290D02*
X7Y290D01*
X219Y290D02*
X258Y290D01*
X537Y290D02*
X543Y290D01*
X597Y290D02*
X603Y290D01*
X917Y290D02*
X983Y290D01*
X1035Y290D02*
X1066Y290D01*
X1112Y290D02*
X1119Y290D01*
X1184Y290D02*
X1231Y290D01*
X1740Y290D02*
X1772Y290D01*
X1789Y290D02*
X1822Y290D01*
X1960Y290D02*
X1967Y290D01*
X0Y289D02*
X7Y289D01*
X220Y289D02*
X258Y289D01*
X536Y289D02*
X543Y289D01*
X597Y289D02*
X603Y289D01*
X917Y289D02*
X983Y289D01*
X1035Y289D02*
X1065Y289D01*
X1112Y289D02*
X1119Y289D01*
X1184Y289D02*
X1231Y289D01*
X1740Y289D02*
X1772Y289D01*
X1789Y289D02*
X1822Y289D01*
X1960Y289D02*
X1967Y289D01*
X0Y288D02*
X7Y288D01*
X237Y288D02*
X241Y288D01*
X536Y288D02*
X542Y288D01*
X597Y288D02*
X603Y288D01*
X917Y288D02*
X983Y288D01*
X1035Y288D02*
X1063Y288D01*
X1110Y288D02*
X1118Y288D01*
X1184Y288D02*
X1231Y288D01*
X1741Y288D02*
X1772Y288D01*
X1789Y288D02*
X1823Y288D01*
X1960Y288D02*
X1967Y288D01*
X0Y287D02*
X7Y287D01*
X237Y287D02*
X241Y287D01*
X535Y287D02*
X542Y287D01*
X597Y287D02*
X603Y287D01*
X916Y287D02*
X983Y287D01*
X1035Y287D02*
X1061Y287D01*
X1093Y287D02*
X1118Y287D01*
X1184Y287D02*
X1231Y287D01*
X1742Y287D02*
X1771Y287D01*
X1789Y287D02*
X1823Y287D01*
X1960Y287D02*
X1967Y287D01*
X0Y286D02*
X7Y286D01*
X237Y286D02*
X241Y286D01*
X535Y286D02*
X541Y286D01*
X597Y286D02*
X603Y286D01*
X916Y286D02*
X983Y286D01*
X1035Y286D02*
X1041Y286D01*
X1047Y286D02*
X1054Y286D01*
X1093Y286D02*
X1117Y286D01*
X1184Y286D02*
X1231Y286D01*
X1743Y286D02*
X1770Y286D01*
X1789Y286D02*
X1822Y286D01*
X1960Y286D02*
X1967Y286D01*
X0Y285D02*
X7Y285D01*
X237Y285D02*
X241Y285D01*
X534Y285D02*
X541Y285D01*
X597Y285D02*
X603Y285D01*
X1035Y285D02*
X1041Y285D01*
X1048Y285D02*
X1055Y285D01*
X1092Y285D02*
X1117Y285D01*
X1744Y285D02*
X1769Y285D01*
X1789Y285D02*
X1822Y285D01*
X1960Y285D02*
X1967Y285D01*
X0Y284D02*
X7Y284D01*
X237Y284D02*
X241Y284D01*
X534Y284D02*
X540Y284D01*
X597Y284D02*
X603Y284D01*
X1035Y284D02*
X1041Y284D01*
X1048Y284D02*
X1056Y284D01*
X1092Y284D02*
X1116Y284D01*
X1748Y284D02*
X1765Y284D01*
X1790Y284D02*
X1819Y284D01*
X1960Y284D02*
X1967Y284D01*
X0Y283D02*
X7Y283D01*
X237Y283D02*
X241Y283D01*
X534Y283D02*
X540Y283D01*
X597Y283D02*
X603Y283D01*
X1035Y283D02*
X1041Y283D01*
X1049Y283D02*
X1056Y283D01*
X1092Y283D02*
X1117Y283D01*
X1960Y283D02*
X1967Y283D01*
X0Y282D02*
X7Y282D01*
X237Y282D02*
X241Y282D01*
X533Y282D02*
X540Y282D01*
X597Y282D02*
X603Y282D01*
X1035Y282D02*
X1041Y282D01*
X1050Y282D02*
X1057Y282D01*
X1093Y282D02*
X1118Y282D01*
X1960Y282D02*
X1967Y282D01*
X0Y281D02*
X7Y281D01*
X237Y281D02*
X241Y281D01*
X533Y281D02*
X539Y281D01*
X597Y281D02*
X603Y281D01*
X1035Y281D02*
X1041Y281D01*
X1050Y281D02*
X1057Y281D01*
X1095Y281D02*
X1118Y281D01*
X1960Y281D02*
X1967Y281D01*
X0Y280D02*
X7Y280D01*
X237Y280D02*
X241Y280D01*
X533Y280D02*
X539Y280D01*
X597Y280D02*
X603Y280D01*
X1035Y280D02*
X1041Y280D01*
X1051Y280D02*
X1058Y280D01*
X1111Y280D02*
X1118Y280D01*
X1960Y280D02*
X1967Y280D01*
X0Y279D02*
X7Y279D01*
X237Y279D02*
X241Y279D01*
X533Y279D02*
X539Y279D01*
X597Y279D02*
X603Y279D01*
X1035Y279D02*
X1041Y279D01*
X1051Y279D02*
X1059Y279D01*
X1112Y279D02*
X1119Y279D01*
X1960Y279D02*
X1967Y279D01*
X0Y278D02*
X7Y278D01*
X237Y278D02*
X241Y278D01*
X533Y278D02*
X539Y278D01*
X597Y278D02*
X603Y278D01*
X1035Y278D02*
X1041Y278D01*
X1052Y278D02*
X1059Y278D01*
X1113Y278D02*
X1119Y278D01*
X1960Y278D02*
X1967Y278D01*
X0Y277D02*
X7Y277D01*
X237Y277D02*
X241Y277D01*
X533Y277D02*
X539Y277D01*
X597Y277D02*
X603Y277D01*
X1035Y277D02*
X1041Y277D01*
X1052Y277D02*
X1060Y277D01*
X1113Y277D02*
X1119Y277D01*
X1960Y277D02*
X1967Y277D01*
X0Y276D02*
X7Y276D01*
X237Y276D02*
X241Y276D01*
X533Y276D02*
X539Y276D01*
X597Y276D02*
X603Y276D01*
X613Y276D02*
X615Y276D01*
X1035Y276D02*
X1041Y276D01*
X1053Y276D02*
X1060Y276D01*
X1113Y276D02*
X1119Y276D01*
X1960Y276D02*
X1967Y276D01*
X0Y275D02*
X7Y275D01*
X237Y275D02*
X241Y275D01*
X533Y275D02*
X540Y275D01*
X597Y275D02*
X603Y275D01*
X611Y275D02*
X616Y275D01*
X1035Y275D02*
X1041Y275D01*
X1054Y275D02*
X1061Y275D01*
X1113Y275D02*
X1119Y275D01*
X1960Y275D02*
X1967Y275D01*
X0Y274D02*
X7Y274D01*
X237Y274D02*
X241Y274D01*
X534Y274D02*
X540Y274D01*
X597Y274D02*
X603Y274D01*
X611Y274D02*
X617Y274D01*
X1035Y274D02*
X1041Y274D01*
X1054Y274D02*
X1061Y274D01*
X1113Y274D02*
X1119Y274D01*
X1960Y274D02*
X1967Y274D01*
X0Y273D02*
X7Y273D01*
X237Y273D02*
X241Y273D01*
X534Y273D02*
X541Y273D01*
X597Y273D02*
X603Y273D01*
X611Y273D02*
X617Y273D01*
X1035Y273D02*
X1041Y273D01*
X1055Y273D02*
X1062Y273D01*
X1113Y273D02*
X1119Y273D01*
X1960Y273D02*
X1967Y273D01*
X0Y272D02*
X7Y272D01*
X237Y272D02*
X241Y272D01*
X535Y272D02*
X541Y272D01*
X597Y272D02*
X603Y272D01*
X611Y272D02*
X617Y272D01*
X1035Y272D02*
X1041Y272D01*
X1055Y272D02*
X1063Y272D01*
X1113Y272D02*
X1119Y272D01*
X1960Y272D02*
X1967Y272D01*
X0Y271D02*
X7Y271D01*
X238Y271D02*
X240Y271D01*
X535Y271D02*
X542Y271D01*
X597Y271D02*
X603Y271D01*
X611Y271D02*
X617Y271D01*
X1035Y271D02*
X1041Y271D01*
X1056Y271D02*
X1063Y271D01*
X1113Y271D02*
X1119Y271D01*
X1960Y271D02*
X1967Y271D01*
X0Y270D02*
X7Y270D01*
X535Y270D02*
X542Y270D01*
X597Y270D02*
X603Y270D01*
X611Y270D02*
X617Y270D01*
X1035Y270D02*
X1041Y270D01*
X1057Y270D02*
X1064Y270D01*
X1113Y270D02*
X1119Y270D01*
X1960Y270D02*
X1967Y270D01*
X0Y269D02*
X7Y269D01*
X536Y269D02*
X543Y269D01*
X597Y269D02*
X603Y269D01*
X611Y269D02*
X617Y269D01*
X1035Y269D02*
X1041Y269D01*
X1057Y269D02*
X1064Y269D01*
X1113Y269D02*
X1119Y269D01*
X1960Y269D02*
X1967Y269D01*
X0Y268D02*
X7Y268D01*
X536Y268D02*
X543Y268D01*
X597Y268D02*
X603Y268D01*
X611Y268D02*
X617Y268D01*
X1035Y268D02*
X1041Y268D01*
X1058Y268D02*
X1065Y268D01*
X1113Y268D02*
X1119Y268D01*
X1960Y268D02*
X1967Y268D01*
X0Y267D02*
X7Y267D01*
X537Y267D02*
X544Y267D01*
X597Y267D02*
X603Y267D01*
X611Y267D02*
X617Y267D01*
X1035Y267D02*
X1041Y267D01*
X1058Y267D02*
X1066Y267D01*
X1113Y267D02*
X1119Y267D01*
X1960Y267D02*
X1967Y267D01*
X0Y266D02*
X7Y266D01*
X537Y266D02*
X544Y266D01*
X597Y266D02*
X603Y266D01*
X611Y266D02*
X617Y266D01*
X1035Y266D02*
X1041Y266D01*
X1059Y266D02*
X1066Y266D01*
X1113Y266D02*
X1119Y266D01*
X1960Y266D02*
X1967Y266D01*
X0Y265D02*
X7Y265D01*
X538Y265D02*
X545Y265D01*
X597Y265D02*
X603Y265D01*
X611Y265D02*
X617Y265D01*
X1035Y265D02*
X1041Y265D01*
X1059Y265D02*
X1067Y265D01*
X1113Y265D02*
X1119Y265D01*
X1960Y265D02*
X1967Y265D01*
X0Y264D02*
X7Y264D01*
X538Y264D02*
X545Y264D01*
X597Y264D02*
X603Y264D01*
X611Y264D02*
X617Y264D01*
X1035Y264D02*
X1041Y264D01*
X1060Y264D02*
X1067Y264D01*
X1088Y264D02*
X1119Y264D01*
X1960Y264D02*
X1967Y264D01*
X0Y263D02*
X7Y263D01*
X539Y263D02*
X546Y263D01*
X597Y263D02*
X603Y263D01*
X611Y263D02*
X617Y263D01*
X1035Y263D02*
X1041Y263D01*
X1061Y263D02*
X1068Y263D01*
X1086Y263D02*
X1119Y263D01*
X1960Y263D02*
X1967Y263D01*
X0Y262D02*
X7Y262D01*
X94Y262D02*
X95Y262D01*
X103Y262D02*
X103Y262D01*
X539Y262D02*
X546Y262D01*
X597Y262D02*
X603Y262D01*
X611Y262D02*
X617Y262D01*
X1035Y262D02*
X1041Y262D01*
X1061Y262D02*
X1068Y262D01*
X1086Y262D02*
X1118Y262D01*
X1960Y262D02*
X1967Y262D01*
X0Y261D02*
X7Y261D01*
X94Y261D02*
X95Y261D01*
X99Y261D02*
X99Y261D01*
X103Y261D02*
X104Y261D01*
X540Y261D02*
X547Y261D01*
X597Y261D02*
X603Y261D01*
X611Y261D02*
X617Y261D01*
X1035Y261D02*
X1041Y261D01*
X1062Y261D02*
X1069Y261D01*
X1085Y261D02*
X1118Y261D01*
X1960Y261D02*
X1967Y261D01*
X0Y260D02*
X7Y260D01*
X94Y260D02*
X95Y260D01*
X99Y260D02*
X99Y260D01*
X103Y260D02*
X104Y260D01*
X540Y260D02*
X547Y260D01*
X597Y260D02*
X603Y260D01*
X611Y260D02*
X617Y260D01*
X1035Y260D02*
X1041Y260D01*
X1062Y260D02*
X1068Y260D01*
X1085Y260D02*
X1117Y260D01*
X1960Y260D02*
X1967Y260D01*
X0Y259D02*
X7Y259D01*
X94Y259D02*
X95Y259D01*
X99Y259D02*
X99Y259D01*
X103Y259D02*
X104Y259D01*
X541Y259D02*
X549Y259D01*
X597Y259D02*
X603Y259D01*
X611Y259D02*
X617Y259D01*
X1036Y259D02*
X1041Y259D01*
X1063Y259D02*
X1068Y259D01*
X1086Y259D02*
X1116Y259D01*
X1960Y259D02*
X1967Y259D01*
X0Y258D02*
X7Y258D01*
X94Y258D02*
X95Y258D01*
X99Y258D02*
X99Y258D01*
X103Y258D02*
X104Y258D01*
X541Y258D02*
X565Y258D01*
X585Y258D02*
X617Y258D01*
X1036Y258D02*
X1040Y258D01*
X1064Y258D02*
X1067Y258D01*
X1087Y258D02*
X1115Y258D01*
X1960Y258D02*
X1967Y258D01*
X0Y257D02*
X7Y257D01*
X95Y257D02*
X103Y257D01*
X542Y257D02*
X566Y257D01*
X584Y257D02*
X617Y257D01*
X1960Y257D02*
X1967Y257D01*
X0Y256D02*
X7Y256D01*
X543Y256D02*
X566Y256D01*
X583Y256D02*
X617Y256D01*
X1960Y256D02*
X1967Y256D01*
X0Y255D02*
X7Y255D01*
X544Y255D02*
X566Y255D01*
X583Y255D02*
X617Y255D01*
X1960Y255D02*
X1967Y255D01*
X0Y254D02*
X7Y254D01*
X545Y254D02*
X566Y254D01*
X583Y254D02*
X616Y254D01*
X1960Y254D02*
X1967Y254D01*
X0Y253D02*
X7Y253D01*
X95Y253D02*
X95Y253D01*
X546Y253D02*
X566Y253D01*
X584Y253D02*
X616Y253D01*
X1960Y253D02*
X1967Y253D01*
X0Y252D02*
X7Y252D01*
X95Y252D02*
X96Y252D01*
X99Y252D02*
X100Y252D01*
X549Y252D02*
X564Y252D01*
X586Y252D02*
X614Y252D01*
X1960Y252D02*
X1967Y252D01*
X0Y251D02*
X7Y251D01*
X96Y251D02*
X99Y251D01*
X1960Y251D02*
X1967Y251D01*
X0Y250D02*
X7Y250D01*
X97Y250D02*
X99Y250D01*
X1960Y250D02*
X1967Y250D01*
X0Y249D02*
X7Y249D01*
X96Y249D02*
X100Y249D01*
X1960Y249D02*
X1967Y249D01*
X0Y248D02*
X7Y248D01*
X95Y248D02*
X96Y248D01*
X100Y248D02*
X101Y248D01*
X1960Y248D02*
X1967Y248D01*
X0Y247D02*
X7Y247D01*
X1960Y247D02*
X1967Y247D01*
X0Y246D02*
X7Y246D01*
X1960Y246D02*
X1967Y246D01*
X0Y245D02*
X7Y245D01*
X1960Y245D02*
X1967Y245D01*
X0Y244D02*
X7Y244D01*
X1960Y244D02*
X1967Y244D01*
X0Y243D02*
X7Y243D01*
X95Y243D02*
X98Y243D01*
X1960Y243D02*
X1967Y243D01*
X0Y242D02*
X7Y242D01*
X96Y242D02*
X101Y242D01*
X1960Y242D02*
X1967Y242D01*
X0Y241D02*
X7Y241D01*
X97Y241D02*
X97Y241D01*
X101Y241D02*
X103Y241D01*
X1960Y241D02*
X1967Y241D01*
X0Y240D02*
X7Y240D01*
X97Y240D02*
X97Y240D01*
X99Y240D02*
X103Y240D01*
X1960Y240D02*
X1967Y240D01*
X0Y239D02*
X7Y239D01*
X95Y239D02*
X99Y239D01*
X1960Y239D02*
X1967Y239D01*
X0Y238D02*
X7Y238D01*
X95Y238D02*
X96Y238D01*
X1960Y238D02*
X1967Y238D01*
X0Y237D02*
X7Y237D01*
X1960Y237D02*
X1967Y237D01*
X0Y236D02*
X7Y236D01*
X1960Y236D02*
X1967Y236D01*
X0Y235D02*
X7Y235D01*
X1960Y235D02*
X1967Y235D01*
X0Y234D02*
X7Y234D01*
X94Y234D02*
X96Y234D01*
X1960Y234D02*
X1967Y234D01*
X0Y233D02*
X7Y233D01*
X96Y233D02*
X100Y233D01*
X1960Y233D02*
X1967Y233D01*
X0Y232D02*
X7Y232D01*
X97Y232D02*
X97Y232D01*
X99Y232D02*
X103Y232D01*
X1960Y232D02*
X1967Y232D01*
X0Y231D02*
X7Y231D01*
X97Y231D02*
X97Y231D01*
X100Y231D02*
X103Y231D01*
X1960Y231D02*
X1967Y231D01*
X0Y230D02*
X7Y230D01*
X96Y230D02*
X101Y230D01*
X1960Y230D02*
X1967Y230D01*
X0Y229D02*
X7Y229D01*
X95Y229D02*
X97Y229D01*
X1960Y229D02*
X1967Y229D01*
X0Y228D02*
X7Y228D01*
X1960Y228D02*
X1967Y228D01*
X0Y227D02*
X7Y227D01*
X1960Y227D02*
X1967Y227D01*
X0Y226D02*
X7Y226D01*
X1960Y226D02*
X1967Y226D01*
X0Y225D02*
X7Y225D01*
X95Y225D02*
X95Y225D01*
X1960Y225D02*
X1967Y225D01*
X0Y224D02*
X7Y224D01*
X95Y224D02*
X98Y224D01*
X1960Y224D02*
X1967Y224D01*
X0Y223D02*
X7Y223D01*
X97Y223D02*
X102Y223D01*
X1960Y223D02*
X1967Y223D01*
X0Y222D02*
X7Y222D01*
X97Y222D02*
X97Y222D01*
X101Y222D02*
X103Y222D01*
X1960Y222D02*
X1967Y222D01*
X0Y221D02*
X7Y221D01*
X97Y221D02*
X102Y221D01*
X1960Y221D02*
X1967Y221D01*
X0Y220D02*
X7Y220D01*
X95Y220D02*
X98Y220D01*
X1960Y220D02*
X1967Y220D01*
X0Y219D02*
X7Y219D01*
X95Y219D02*
X95Y219D01*
X1960Y219D02*
X1967Y219D01*
X0Y218D02*
X7Y218D01*
X1960Y218D02*
X1967Y218D01*
X0Y217D02*
X7Y217D01*
X1960Y217D02*
X1967Y217D01*
X0Y216D02*
X7Y216D01*
X1960Y216D02*
X1967Y216D01*
X0Y215D02*
X7Y215D01*
X1960Y215D02*
X1967Y215D01*
X0Y214D02*
X7Y214D01*
X1960Y214D02*
X1967Y214D01*
X0Y213D02*
X7Y213D01*
X1960Y213D02*
X1967Y213D01*
X0Y212D02*
X7Y212D01*
X1960Y212D02*
X1967Y212D01*
X0Y211D02*
X7Y211D01*
X1960Y211D02*
X1967Y211D01*
X0Y210D02*
X7Y210D01*
X238Y210D02*
X240Y210D01*
X1960Y210D02*
X1967Y210D01*
X0Y209D02*
X7Y209D01*
X237Y209D02*
X241Y209D01*
X1960Y209D02*
X1967Y209D01*
X0Y208D02*
X7Y208D01*
X237Y208D02*
X241Y208D01*
X1960Y208D02*
X1967Y208D01*
X0Y207D02*
X7Y207D01*
X237Y207D02*
X241Y207D01*
X1960Y207D02*
X1967Y207D01*
X0Y206D02*
X7Y206D01*
X237Y206D02*
X241Y206D01*
X1960Y206D02*
X1967Y206D01*
X0Y205D02*
X7Y205D01*
X237Y205D02*
X241Y205D01*
X1960Y205D02*
X1967Y205D01*
X0Y204D02*
X7Y204D01*
X237Y204D02*
X241Y204D01*
X1960Y204D02*
X1967Y204D01*
X0Y203D02*
X7Y203D01*
X237Y203D02*
X241Y203D01*
X1960Y203D02*
X1967Y203D01*
X0Y202D02*
X7Y202D01*
X237Y202D02*
X241Y202D01*
X1960Y202D02*
X1967Y202D01*
X0Y201D02*
X7Y201D01*
X237Y201D02*
X241Y201D01*
X1960Y201D02*
X1967Y201D01*
X0Y200D02*
X7Y200D01*
X237Y200D02*
X241Y200D01*
X1960Y200D02*
X1967Y200D01*
X0Y199D02*
X7Y199D01*
X237Y199D02*
X241Y199D01*
X1960Y199D02*
X1967Y199D01*
X0Y198D02*
X7Y198D01*
X237Y198D02*
X241Y198D01*
X1960Y198D02*
X1967Y198D01*
X0Y197D02*
X7Y197D01*
X237Y197D02*
X241Y197D01*
X1960Y197D02*
X1967Y197D01*
X0Y196D02*
X7Y196D01*
X237Y196D02*
X241Y196D01*
X1960Y196D02*
X1967Y196D01*
X0Y195D02*
X7Y195D01*
X237Y195D02*
X241Y195D01*
X1960Y195D02*
X1967Y195D01*
X0Y194D02*
X7Y194D01*
X237Y194D02*
X241Y194D01*
X1960Y194D02*
X1967Y194D01*
X0Y193D02*
X7Y193D01*
X237Y193D02*
X241Y193D01*
X1960Y193D02*
X1967Y193D01*
X0Y192D02*
X7Y192D01*
X237Y192D02*
X241Y192D01*
X1960Y192D02*
X1967Y192D01*
X0Y191D02*
X7Y191D01*
X237Y191D02*
X241Y191D01*
X1960Y191D02*
X1967Y191D01*
X0Y190D02*
X7Y190D01*
X237Y190D02*
X241Y190D01*
X1960Y190D02*
X1967Y190D01*
X0Y189D02*
X7Y189D01*
X237Y189D02*
X241Y189D01*
X1960Y189D02*
X1967Y189D01*
X0Y188D02*
X7Y188D01*
X237Y188D02*
X241Y188D01*
X1960Y188D02*
X1967Y188D01*
X0Y187D02*
X7Y187D01*
X237Y187D02*
X241Y187D01*
X1960Y187D02*
X1967Y187D01*
X0Y186D02*
X7Y186D01*
X237Y186D02*
X241Y186D01*
X1960Y186D02*
X1967Y186D01*
X0Y185D02*
X7Y185D01*
X237Y185D02*
X241Y185D01*
X1960Y185D02*
X1967Y185D01*
X0Y184D02*
X7Y184D01*
X237Y184D02*
X241Y184D01*
X1960Y184D02*
X1967Y184D01*
X0Y183D02*
X7Y183D01*
X237Y183D02*
X241Y183D01*
X1960Y183D02*
X1967Y183D01*
X0Y182D02*
X7Y182D01*
X237Y182D02*
X241Y182D01*
X1960Y182D02*
X1967Y182D01*
X0Y181D02*
X7Y181D01*
X237Y181D02*
X241Y181D01*
X1960Y181D02*
X1967Y181D01*
X0Y180D02*
X7Y180D01*
X237Y180D02*
X241Y180D01*
X1960Y180D02*
X1967Y180D01*
X0Y179D02*
X7Y179D01*
X237Y179D02*
X241Y179D01*
X1960Y179D02*
X1967Y179D01*
X0Y178D02*
X7Y178D01*
X237Y178D02*
X241Y178D01*
X1960Y178D02*
X1967Y178D01*
X0Y177D02*
X7Y177D01*
X237Y177D02*
X241Y177D01*
X1960Y177D02*
X1967Y177D01*
X0Y176D02*
X7Y176D01*
X237Y176D02*
X241Y176D01*
X1960Y176D02*
X1967Y176D01*
X0Y175D02*
X7Y175D01*
X237Y175D02*
X241Y175D01*
X1960Y175D02*
X1967Y175D01*
X0Y174D02*
X7Y174D01*
X237Y174D02*
X241Y174D01*
X1960Y174D02*
X1967Y174D01*
X0Y173D02*
X7Y173D01*
X237Y173D02*
X241Y173D01*
X1960Y173D02*
X1967Y173D01*
X0Y172D02*
X7Y172D01*
X237Y172D02*
X241Y172D01*
X1960Y172D02*
X1967Y172D01*
X0Y171D02*
X7Y171D01*
X238Y171D02*
X240Y171D01*
X1960Y171D02*
X1967Y171D01*
X0Y170D02*
X7Y170D01*
X1960Y170D02*
X1967Y170D01*
X0Y169D02*
X7Y169D01*
X1960Y169D02*
X1967Y169D01*
X0Y168D02*
X7Y168D01*
X1960Y168D02*
X1967Y168D01*
X0Y167D02*
X7Y167D01*
X1960Y167D02*
X1967Y167D01*
X0Y166D02*
X7Y166D01*
X1960Y166D02*
X1967Y166D01*
X0Y165D02*
X7Y165D01*
X1960Y165D02*
X1967Y165D01*
X0Y164D02*
X7Y164D01*
X1960Y164D02*
X1967Y164D01*
X0Y163D02*
X7Y163D01*
X1960Y163D02*
X1967Y163D01*
X0Y162D02*
X7Y162D01*
X1960Y162D02*
X1967Y162D01*
X0Y161D02*
X7Y161D01*
X1960Y161D02*
X1967Y161D01*
X0Y160D02*
X7Y160D01*
X1960Y160D02*
X1967Y160D01*
X0Y159D02*
X7Y159D01*
X1960Y159D02*
X1967Y159D01*
X0Y158D02*
X7Y158D01*
X1960Y158D02*
X1967Y158D01*
X0Y157D02*
X7Y157D01*
X1960Y157D02*
X1967Y157D01*
X0Y156D02*
X7Y156D01*
X1960Y156D02*
X1967Y156D01*
X0Y155D02*
X7Y155D01*
X1960Y155D02*
X1967Y155D01*
X0Y154D02*
X7Y154D01*
X1960Y154D02*
X1967Y154D01*
X0Y153D02*
X7Y153D01*
X1960Y153D02*
X1967Y153D01*
X0Y152D02*
X7Y152D01*
X1960Y152D02*
X1967Y152D01*
X0Y151D02*
X7Y151D01*
X1960Y151D02*
X1967Y151D01*
X0Y150D02*
X7Y150D01*
X1960Y150D02*
X1967Y150D01*
X0Y149D02*
X7Y149D01*
X1960Y149D02*
X1967Y149D01*
X0Y148D02*
X7Y148D01*
X1960Y148D02*
X1967Y148D01*
X0Y147D02*
X7Y147D01*
X1960Y147D02*
X1967Y147D01*
X0Y146D02*
X7Y146D01*
X1960Y146D02*
X1967Y146D01*
X0Y145D02*
X7Y145D01*
X1960Y145D02*
X1967Y145D01*
X0Y144D02*
X7Y144D01*
X1960Y144D02*
X1967Y144D01*
X0Y143D02*
X7Y143D01*
X1960Y143D02*
X1967Y143D01*
X0Y142D02*
X7Y142D01*
X1960Y142D02*
X1967Y142D01*
X0Y141D02*
X7Y141D01*
X1960Y141D02*
X1967Y141D01*
X0Y140D02*
X7Y140D01*
X1960Y140D02*
X1967Y140D01*
X0Y139D02*
X7Y139D01*
X1960Y139D02*
X1967Y139D01*
X0Y138D02*
X7Y138D01*
X1960Y138D02*
X1967Y138D01*
X0Y137D02*
X7Y137D01*
X1960Y137D02*
X1967Y137D01*
X0Y136D02*
X7Y136D01*
X1960Y136D02*
X1967Y136D01*
X0Y135D02*
X7Y135D01*
X1960Y135D02*
X1967Y135D01*
X0Y134D02*
X7Y134D01*
X1960Y134D02*
X1967Y134D01*
X0Y133D02*
X7Y133D01*
X1960Y133D02*
X1967Y133D01*
X0Y132D02*
X7Y132D01*
X1960Y132D02*
X1967Y132D01*
X0Y131D02*
X7Y131D01*
X1960Y131D02*
X1967Y131D01*
X0Y130D02*
X7Y130D01*
X1960Y130D02*
X1967Y130D01*
X0Y129D02*
X7Y129D01*
X1960Y129D02*
X1967Y129D01*
X0Y128D02*
X7Y128D01*
X1960Y128D02*
X1967Y128D01*
X0Y127D02*
X7Y127D01*
X1960Y127D02*
X1967Y127D01*
X0Y126D02*
X7Y126D01*
X1960Y126D02*
X1967Y126D01*
X0Y125D02*
X7Y125D01*
X1960Y125D02*
X1967Y125D01*
X0Y124D02*
X7Y124D01*
X1960Y124D02*
X1967Y124D01*
X0Y123D02*
X7Y123D01*
X1960Y123D02*
X1967Y123D01*
X0Y122D02*
X7Y122D01*
X1960Y122D02*
X1967Y122D01*
X0Y121D02*
X7Y121D01*
X1960Y121D02*
X1967Y121D01*
X0Y120D02*
X7Y120D01*
X1960Y120D02*
X1967Y120D01*
X0Y119D02*
X7Y119D01*
X1960Y119D02*
X1967Y119D01*
X0Y118D02*
X7Y118D01*
X1960Y118D02*
X1967Y118D01*
X0Y117D02*
X7Y117D01*
X1960Y117D02*
X1967Y117D01*
X0Y116D02*
X7Y116D01*
X1960Y116D02*
X1967Y116D01*
X0Y115D02*
X7Y115D01*
X1960Y115D02*
X1967Y115D01*
X0Y114D02*
X7Y114D01*
X1960Y114D02*
X1967Y114D01*
X0Y113D02*
X7Y113D01*
X1960Y113D02*
X1967Y113D01*
X0Y112D02*
X7Y112D01*
X1960Y112D02*
X1967Y112D01*
X0Y111D02*
X7Y111D01*
X1960Y111D02*
X1967Y111D01*
X0Y110D02*
X7Y110D01*
X1960Y110D02*
X1967Y110D01*
X0Y109D02*
X7Y109D01*
X1960Y109D02*
X1967Y109D01*
X0Y108D02*
X7Y108D01*
X1960Y108D02*
X1967Y108D01*
X0Y107D02*
X7Y107D01*
X1960Y107D02*
X1967Y107D01*
X0Y106D02*
X7Y106D01*
X1960Y106D02*
X1967Y106D01*
X0Y105D02*
X7Y105D01*
X1960Y105D02*
X1967Y105D01*
X0Y104D02*
X7Y104D01*
X1960Y104D02*
X1967Y104D01*
X0Y103D02*
X7Y103D01*
X1960Y103D02*
X1967Y103D01*
X0Y102D02*
X7Y102D01*
X1960Y102D02*
X1967Y102D01*
X0Y101D02*
X7Y101D01*
X1960Y101D02*
X1967Y101D01*
X0Y100D02*
X7Y100D01*
X1960Y100D02*
X1967Y100D01*
X0Y99D02*
X7Y99D01*
X1960Y99D02*
X1967Y99D01*
X0Y98D02*
X7Y98D01*
X1960Y98D02*
X1967Y98D01*
X0Y97D02*
X7Y97D01*
X1960Y97D02*
X1967Y97D01*
X0Y96D02*
X7Y96D01*
X1960Y96D02*
X1967Y96D01*
X0Y95D02*
X7Y95D01*
X1960Y95D02*
X1967Y95D01*
X0Y94D02*
X7Y94D01*
X1960Y94D02*
X1967Y94D01*
X0Y93D02*
X7Y93D01*
X1960Y93D02*
X1967Y93D01*
X0Y92D02*
X7Y92D01*
X1960Y92D02*
X1967Y92D01*
X0Y91D02*
X7Y91D01*
X1960Y91D02*
X1967Y91D01*
X0Y90D02*
X7Y90D01*
X1960Y90D02*
X1967Y90D01*
X0Y89D02*
X7Y89D01*
X1960Y89D02*
X1967Y89D01*
X0Y88D02*
X7Y88D01*
X1960Y88D02*
X1967Y88D01*
X0Y87D02*
X7Y87D01*
X1960Y87D02*
X1967Y87D01*
X0Y86D02*
X7Y86D01*
X1960Y86D02*
X1967Y86D01*
X0Y85D02*
X7Y85D01*
X1960Y85D02*
X1967Y85D01*
X0Y84D02*
X7Y84D01*
X1960Y84D02*
X1967Y84D01*
X0Y83D02*
X7Y83D01*
X1960Y83D02*
X1967Y83D01*
X0Y82D02*
X7Y82D01*
X1960Y82D02*
X1967Y82D01*
X0Y81D02*
X7Y81D01*
X1960Y81D02*
X1967Y81D01*
X0Y80D02*
X7Y80D01*
X1960Y80D02*
X1967Y80D01*
X0Y79D02*
X7Y79D01*
X1960Y79D02*
X1967Y79D01*
X0Y78D02*
X7Y78D01*
X1960Y78D02*
X1967Y78D01*
X0Y77D02*
X7Y77D01*
X1960Y77D02*
X1967Y77D01*
X0Y76D02*
X7Y76D01*
X1960Y76D02*
X1967Y76D01*
X0Y75D02*
X7Y75D01*
X1960Y75D02*
X1967Y75D01*
X0Y74D02*
X7Y74D01*
X1960Y74D02*
X1967Y74D01*
X0Y73D02*
X7Y73D01*
X1960Y73D02*
X1967Y73D01*
X0Y72D02*
X7Y72D01*
X1960Y72D02*
X1967Y72D01*
X0Y71D02*
X7Y71D01*
X1960Y71D02*
X1967Y71D01*
X0Y70D02*
X7Y70D01*
X1960Y70D02*
X1967Y70D01*
X0Y69D02*
X7Y69D01*
X1960Y69D02*
X1967Y69D01*
X0Y68D02*
X7Y68D01*
X1960Y68D02*
X1967Y68D01*
X0Y67D02*
X7Y67D01*
X1960Y67D02*
X1967Y67D01*
X0Y66D02*
X7Y66D01*
X1960Y66D02*
X1967Y66D01*
X0Y65D02*
X7Y65D01*
X1960Y65D02*
X1967Y65D01*
X0Y64D02*
X7Y64D01*
X1960Y64D02*
X1967Y64D01*
X0Y63D02*
X7Y63D01*
X1960Y63D02*
X1967Y63D01*
X0Y62D02*
X7Y62D01*
X1960Y62D02*
X1967Y62D01*
X0Y61D02*
X7Y61D01*
X1960Y61D02*
X1967Y61D01*
X0Y60D02*
X7Y60D01*
X1960Y60D02*
X1967Y60D01*
X0Y59D02*
X7Y59D01*
X1960Y59D02*
X1967Y59D01*
X0Y58D02*
X7Y58D01*
X1960Y58D02*
X1967Y58D01*
X0Y57D02*
X7Y57D01*
X1960Y57D02*
X1967Y57D01*
X0Y56D02*
X7Y56D01*
X1960Y56D02*
X1967Y56D01*
X0Y55D02*
X7Y55D01*
X1960Y55D02*
X1967Y55D01*
X0Y54D02*
X7Y54D01*
X1960Y54D02*
X1967Y54D01*
X0Y53D02*
X7Y53D01*
X1960Y53D02*
X1967Y53D01*
X0Y52D02*
X7Y52D01*
X1960Y52D02*
X1967Y52D01*
X0Y51D02*
X7Y51D01*
X1960Y51D02*
X1967Y51D01*
X0Y50D02*
X7Y50D01*
X1960Y50D02*
X1967Y50D01*
X0Y49D02*
X7Y49D01*
X1960Y49D02*
X1967Y49D01*
X0Y48D02*
X7Y48D01*
X1960Y48D02*
X1967Y48D01*
X0Y47D02*
X7Y47D01*
X1960Y47D02*
X1967Y47D01*
X0Y46D02*
X7Y46D01*
X1960Y46D02*
X1967Y46D01*
X0Y45D02*
X7Y45D01*
X1960Y45D02*
X1967Y45D01*
X0Y44D02*
X7Y44D01*
X1960Y44D02*
X1967Y44D01*
X0Y43D02*
X7Y43D01*
X1960Y43D02*
X1967Y43D01*
X0Y42D02*
X7Y42D01*
X1960Y42D02*
X1967Y42D01*
X0Y41D02*
X7Y41D01*
X1960Y41D02*
X1967Y41D01*
X0Y40D02*
X7Y40D01*
X1960Y40D02*
X1967Y40D01*
X0Y39D02*
X7Y39D01*
X1960Y39D02*
X1967Y39D01*
X0Y38D02*
X7Y38D01*
X1960Y38D02*
X1967Y38D01*
X0Y37D02*
X7Y37D01*
X1960Y37D02*
X1967Y37D01*
X0Y36D02*
X7Y36D01*
X1960Y36D02*
X1967Y36D01*
X0Y35D02*
X7Y35D01*
X1960Y35D02*
X1967Y35D01*
X0Y34D02*
X7Y34D01*
X1960Y34D02*
X1967Y34D01*
X0Y33D02*
X7Y33D01*
X1960Y33D02*
X1967Y33D01*
X0Y32D02*
X7Y32D01*
X1960Y32D02*
X1967Y32D01*
X0Y31D02*
X7Y31D01*
X1960Y31D02*
X1967Y31D01*
X0Y30D02*
X7Y30D01*
X1960Y30D02*
X1967Y30D01*
X0Y29D02*
X7Y29D01*
X1960Y29D02*
X1967Y29D01*
X0Y28D02*
X7Y28D01*
X1960Y28D02*
X1967Y28D01*
X0Y27D02*
X7Y27D01*
X1960Y27D02*
X1967Y27D01*
X0Y26D02*
X7Y26D01*
X1960Y26D02*
X1967Y26D01*
X0Y25D02*
X7Y25D01*
X1960Y25D02*
X1967Y25D01*
X0Y24D02*
X7Y24D01*
X1960Y24D02*
X1967Y24D01*
X0Y23D02*
X7Y23D01*
X1960Y23D02*
X1967Y23D01*
X0Y22D02*
X7Y22D01*
X1960Y22D02*
X1967Y22D01*
X0Y21D02*
X7Y21D01*
X1960Y21D02*
X1967Y21D01*
X0Y20D02*
X7Y20D01*
X1960Y20D02*
X1967Y20D01*
X0Y19D02*
X7Y19D01*
X1960Y19D02*
X1967Y19D01*
X0Y18D02*
X7Y18D01*
X1960Y18D02*
X1967Y18D01*
X0Y17D02*
X7Y17D01*
X1960Y17D02*
X1967Y17D01*
X0Y16D02*
X7Y16D01*
X1960Y16D02*
X1967Y16D01*
X0Y15D02*
X7Y15D01*
X1960Y15D02*
X1967Y15D01*
X0Y14D02*
X7Y14D01*
X1960Y14D02*
X1967Y14D01*
X0Y13D02*
X7Y13D01*
X1960Y13D02*
X1967Y13D01*
X0Y12D02*
X7Y12D01*
X1960Y12D02*
X1967Y12D01*
X0Y11D02*
X7Y11D01*
X1960Y11D02*
X1967Y11D01*
X0Y10D02*
X7Y10D01*
X1960Y10D02*
X1967Y10D01*
X0Y9D02*
X1967Y9D01*
X0Y8D02*
X1967Y8D01*
X0Y7D02*
X1967Y7D01*
X0Y6D02*
X1967Y6D01*
X0Y5D02*
X1967Y5D01*
X0Y4D02*
X1967Y4D01*
X0Y3D02*
X1967Y3D01*
X0Y2D02*
X1967Y2D01*
D02*
G04 End of Silk1*
M02*