G04 MADE WITH FRITZING*
G04 WWW.FRITZING.ORG*
G04 DOUBLE SIDED*
G04 HOLES PLATED*
G04 CONTOUR ON CENTER OF CONTOUR VECTOR*
%ASAXBY*%
%FSLAX23Y23*%
%MOIN*%
%OFA0B0*%
%SFA1.0B1.0*%
%ADD10C,0.088000*%
%ADD11C,0.085000*%
%ADD12C,0.086000*%
%ADD13R,0.088000X0.088000*%
%ADD14R,0.085000X0.085000*%
%ADD15R,0.001000X0.001000*%
%LNMASK1*%
G90*
G70*
G54D10*
X430Y1189D03*
X274Y1189D03*
X118Y1189D03*
G54D11*
X1574Y889D03*
X1574Y1145D03*
X1752Y889D03*
X1752Y1145D03*
X1574Y189D03*
X1574Y445D03*
X1752Y189D03*
X1752Y445D03*
X574Y389D03*
X574Y189D03*
X874Y389D03*
X1274Y389D03*
X874Y289D03*
X1274Y289D03*
X374Y1289D03*
X774Y1289D03*
G54D12*
X474Y589D03*
X574Y589D03*
X674Y589D03*
X774Y589D03*
X874Y589D03*
X474Y1089D03*
X574Y1089D03*
X674Y1089D03*
X774Y1089D03*
X874Y1089D03*
G54D13*
X430Y1189D03*
G54D14*
X574Y389D03*
G54D15*
X167Y330D02*
X180Y330D01*
X163Y329D02*
X185Y329D01*
X160Y328D02*
X188Y328D01*
X158Y327D02*
X190Y327D01*
X156Y326D02*
X192Y326D01*
X154Y325D02*
X194Y325D01*
X152Y324D02*
X195Y324D01*
X151Y323D02*
X197Y323D01*
X150Y322D02*
X198Y322D01*
X148Y321D02*
X199Y321D01*
X147Y320D02*
X201Y320D01*
X146Y319D02*
X202Y319D01*
X145Y318D02*
X203Y318D01*
X144Y317D02*
X203Y317D01*
X143Y316D02*
X204Y316D01*
X143Y315D02*
X205Y315D01*
X142Y314D02*
X206Y314D01*
X141Y313D02*
X206Y313D01*
X141Y312D02*
X207Y312D01*
X140Y311D02*
X208Y311D01*
X139Y310D02*
X208Y310D01*
X139Y309D02*
X209Y309D01*
X138Y308D02*
X209Y308D01*
X138Y307D02*
X210Y307D01*
X137Y306D02*
X210Y306D01*
X137Y305D02*
X211Y305D01*
X137Y304D02*
X211Y304D01*
X136Y303D02*
X211Y303D01*
X136Y302D02*
X212Y302D01*
X136Y301D02*
X212Y301D01*
X136Y300D02*
X212Y300D01*
X135Y299D02*
X212Y299D01*
X135Y298D02*
X213Y298D01*
X135Y297D02*
X213Y297D01*
X135Y296D02*
X213Y296D01*
X135Y295D02*
X213Y295D01*
X135Y294D02*
X213Y294D01*
X135Y293D02*
X213Y293D01*
X134Y292D02*
X213Y292D01*
X134Y291D02*
X213Y291D01*
X134Y290D02*
X213Y290D01*
X134Y289D02*
X213Y289D01*
X135Y288D02*
X213Y288D01*
X135Y287D02*
X213Y287D01*
X135Y286D02*
X213Y286D01*
X135Y285D02*
X213Y285D01*
X135Y284D02*
X213Y284D01*
X135Y283D02*
X213Y283D01*
X135Y282D02*
X212Y282D01*
X136Y281D02*
X212Y281D01*
X136Y280D02*
X212Y280D01*
X136Y279D02*
X212Y279D01*
X136Y278D02*
X211Y278D01*
X137Y277D02*
X211Y277D01*
X137Y276D02*
X211Y276D01*
X138Y275D02*
X210Y275D01*
X138Y274D02*
X210Y274D01*
X139Y273D02*
X209Y273D01*
X139Y272D02*
X209Y272D01*
X140Y271D02*
X208Y271D01*
X140Y270D02*
X207Y270D01*
X141Y269D02*
X207Y269D01*
X142Y268D02*
X206Y268D01*
X142Y267D02*
X205Y267D01*
X143Y266D02*
X205Y266D01*
X144Y265D02*
X204Y265D01*
X145Y264D02*
X203Y264D01*
X146Y263D02*
X202Y263D01*
X147Y262D02*
X201Y262D01*
X148Y261D02*
X200Y261D01*
X149Y260D02*
X199Y260D01*
X150Y259D02*
X198Y259D01*
X152Y258D02*
X196Y258D01*
X153Y257D02*
X195Y257D01*
X155Y256D02*
X193Y256D01*
X157Y255D02*
X191Y255D01*
X159Y254D02*
X189Y254D01*
X161Y253D02*
X186Y253D01*
X165Y252D02*
X183Y252D01*
X170Y251D02*
X177Y251D01*
X167Y230D02*
X181Y230D01*
X163Y229D02*
X185Y229D01*
X160Y228D02*
X188Y228D01*
X158Y227D02*
X190Y227D01*
X155Y226D02*
X192Y226D01*
X154Y225D02*
X194Y225D01*
X152Y224D02*
X195Y224D01*
X151Y223D02*
X197Y223D01*
X149Y222D02*
X198Y222D01*
X148Y221D02*
X199Y221D01*
X147Y220D02*
X201Y220D01*
X146Y219D02*
X202Y219D01*
X145Y218D02*
X203Y218D01*
X144Y217D02*
X203Y217D01*
X143Y216D02*
X204Y216D01*
X143Y215D02*
X205Y215D01*
X142Y214D02*
X206Y214D01*
X141Y213D02*
X207Y213D01*
X141Y212D02*
X207Y212D01*
X140Y211D02*
X208Y211D01*
X139Y210D02*
X208Y210D01*
X139Y209D02*
X209Y209D01*
X138Y208D02*
X209Y208D01*
X138Y207D02*
X210Y207D01*
X137Y206D02*
X210Y206D01*
X137Y205D02*
X211Y205D01*
X137Y204D02*
X211Y204D01*
X136Y203D02*
X211Y203D01*
X136Y202D02*
X212Y202D01*
X136Y201D02*
X212Y201D01*
X136Y200D02*
X212Y200D01*
X135Y199D02*
X212Y199D01*
X135Y198D02*
X213Y198D01*
X135Y197D02*
X213Y197D01*
X135Y196D02*
X213Y196D01*
X135Y195D02*
X213Y195D01*
X135Y194D02*
X213Y194D01*
X135Y193D02*
X213Y193D01*
X134Y192D02*
X213Y192D01*
X134Y191D02*
X213Y191D01*
X134Y190D02*
X213Y190D01*
X134Y189D02*
X213Y189D01*
X135Y188D02*
X213Y188D01*
X135Y187D02*
X213Y187D01*
X135Y186D02*
X213Y186D01*
X135Y185D02*
X213Y185D01*
X135Y184D02*
X213Y184D01*
X135Y183D02*
X212Y183D01*
X135Y182D02*
X212Y182D01*
X136Y181D02*
X212Y181D01*
X136Y180D02*
X212Y180D01*
X136Y179D02*
X212Y179D01*
X137Y178D02*
X211Y178D01*
X137Y177D02*
X211Y177D01*
X137Y176D02*
X210Y176D01*
X138Y175D02*
X210Y175D01*
X138Y174D02*
X210Y174D01*
X139Y173D02*
X209Y173D01*
X139Y172D02*
X209Y172D01*
X140Y171D02*
X208Y171D01*
X140Y170D02*
X207Y170D01*
X141Y169D02*
X207Y169D01*
X142Y168D02*
X206Y168D01*
X142Y167D02*
X205Y167D01*
X143Y166D02*
X205Y166D01*
X144Y165D02*
X204Y165D01*
X145Y164D02*
X203Y164D01*
X146Y163D02*
X202Y163D01*
X147Y162D02*
X201Y162D01*
X148Y161D02*
X200Y161D01*
X149Y160D02*
X199Y160D01*
X150Y159D02*
X197Y159D01*
X152Y158D02*
X196Y158D01*
X153Y157D02*
X195Y157D01*
X155Y156D02*
X193Y156D01*
X157Y155D02*
X191Y155D01*
X159Y154D02*
X189Y154D01*
X162Y153D02*
X186Y153D01*
X165Y152D02*
X183Y152D01*
X171Y151D02*
X176Y151D01*
D02*
G04 End of Mask1*
M02*